<svg width="451" height="135" fill="none" xmlns="http://www.w3.org/2000/svg"><path d="M26.893 73.57a36.723 36.723 0 0 1-3.892.489c-1.2.094-2.394.26-3.574.5a16.554 16.554 0 0 1-3.871.34 98.177 98.177 0 0 1-3.882.329l-1.644-.064a2.12 2.12 0 0 1-1.517-.829 5.297 5.297 0 0 0-2.29-1.063 18.283 18.283 0 0 1-2.769-.563c-1.739-.17-2.333-1.138-1.972-2.498.135-.235.198-.505.18-.776-.148-.16-.297-.32-.445-.33-1.061-.35-1.369-.829-1.061-1.913.17-.457.658-1.063.827-1.531.329-.617.658-1.063 1.06-1.063a21.584 21.584 0 0 1 7.085-3.508 36.062 36.062 0 0 1 7.265-1.51c2.323-.074 4.646-.148 7.287-.371 1.593-.16 3.2-.16 4.793 0 1.708-.096 3.405 0 5.303-.287.499-1.063.986-1.84 1.495-2.913.51-1.074 1.146-1.998 1.655-3.072 1.973-3.53 4.104-6.888 5.929-10.63 2.12-3.529 4.242-6.888 6.363-10.566a19.127 19.127 0 0 1 1.792-2.594 4.772 4.772 0 0 1 2.694-1.786c.257-.316.656-.48 1.06-.435.35-.076.712-.076 1.061 0 .308.17.456.33.287.786-.17.457-.18.776-.202 1.244a8.007 8.007 0 0 1-1.06 2.466 21.137 21.137 0 0 1 2.715-2.243c.318-.308.636-.446.933-.287.286.006.565-.092.785-.276.127.776.265 1.254.403 1.881-.16.16-.17.468-.499.925.244-.266.584-.423.944-.436a7.771 7.771 0 0 1 1.06-.436 11.213 11.213 0 0 1 1.252 4.252 8.517 8.517 0 0 1-1.559 4.635c-1.633 2.604-3.118 5.05-4.592 7.654-1.474 2.604-3.118 5.049-4.603 7.664a3.285 3.285 0 0 1-.816 1.371c-.68 1.7-.404 2.647.975 2.849 1.468.135 2.914.45 4.306.935a15.418 15.418 0 0 1 3.786 1.797 8.662 8.662 0 0 1 3.002 2.604 11.553 11.553 0 0 1 1.262 3.954 2.97 2.97 0 0 1-2.068 1.648c-.928.225-1.866.402-2.81.532a51.128 51.128 0 0 0-6.969.382c-2.333.223-4.804.298-7.137.532a4.975 4.975 0 0 0-4.434 3.167c-2.12 4.614-4.327 8.919-6.49 13.373-2.164 4.454-4.179 8.929-6.364 13.542a7.446 7.446 0 0 1-.827 1.531c-.18.627-.35 1.063-.053 1.563.17.992-.093 2.01-.721 2.795a12.118 12.118 0 0 1-2.545 2.126 7.306 7.306 0 0 0-2.419-1.807 3.885 3.885 0 0 0-3.234-.106c-.319 0-.467 0-.615-.181-.149-.18-.308-.17-.605-.329a19.078 19.078 0 0 1-1.273-3.487 7.893 7.893 0 0 1 .297-4.252c.7-2.126 1.39-4.177 2.238-6.495.849-2.317 1.549-4.326 2.397-6.633.679-1.7 1.506-3.39 2.195-5.24.69-1.85 1.666-3.54 2.344-5.24 1.103-.416 1.284-1.223 1.782-2.116z" fill="#fff"/><path fill-rule="evenodd" clip-rule="evenodd" d="M199.395 28.478c.332-1 .2-2.096-.361-2.987a2.382 2.382 0 0 0 1.347-2.626 3.02 3.02 0 0 0-.085-2.041 13.657 13.657 0 0 0-1.262-3.487 8.638 8.638 0 0 0-2.216-3.04c-.605-.34-1.071-.51-1.39-.053a.74.74 0 0 1-.933.128 5.975 5.975 0 0 0-.085-2.19c.008-.222-.359-.377-.939-.622a18.649 18.649 0 0 1-.874-.388 1.177 1.177 0 0 0-.615-.17 1.2 1.2 0 0 1-.616-.18c-.604-.49-1.05-.82-1.962-1.478a4.922 4.922 0 0 0-2.121-1.01l-.054-.003c-.414-.019-.55-.025-.55-.178-.536-.255-.989-.505-1.443-.755-.453-.25-.906-.5-1.442-.754a28.818 28.818 0 0 1-1.479-.77c-.449-.245-.897-.49-1.416-.74a1.134 1.134 0 0 0-.912-.34 8.811 8.811 0 0 0-1.994-.383 15.106 15.106 0 0 1-2.122-.542 3.092 3.092 0 0 0-.646.914c-.087.234-.255.426-.441.64-.179.206-.375.43-.535.732-.051-.298-.046-.56-.042-.787.005-.25.008-.46-.064-.627V3.678a26.946 26.946 0 0 0-8.612-1.233c-.984 0-1.966-.006-2.948-.012-1.961-.012-3.918-.024-5.876.012l-.646.011c-2.745.05-5.614.1-8.337.297-1.52.11-3.082.177-4.644.245-1.458.063-2.916.125-4.339.223-.259-.095-.411-.281-.576-.485a2.302 2.302 0 0 0-.485-.482c-.247-.171-.403-.382-.558-.591-.145-.195-.288-.388-.502-.547a7.266 7.266 0 0 0-.923 1.36c-.101.264-.293.422-.498.592a2.35 2.35 0 0 0-.467.472 1.898 1.898 0 0 1-1.58.882c-.615-.18-.722-.489-.722-1.435a5.144 5.144 0 0 1 .085-2.647 2.816 2.816 0 0 0-2.81.84c-.441.514-.808.96-1.198 1.432-.183.222-.37.45-.573.694a7.2 7.2 0 0 1-5.07 3.263l-.644.153c-4.366 1.035-8.827 2.092-13.143 3.43a94 94 0 0 0-13.332 5.166c-1.625.637-3.17 1.362-4.752 2.105-.556.261-1.115.524-1.685.786a33.207 33.207 0 0 0-6.184 4.167 30.444 30.444 0 0 0-3.552 4.252 5.655 5.655 0 0 0-.849 4.9 11.463 11.463 0 0 0 1.527 5.06c.87 1.61 2.16 2.951 3.734 3.88a31.605 31.605 0 0 0 7.307 3.54c.866.29 1.715.581 2.563.872 1.697.58 3.394 1.162 5.232 1.743a19.21 19.21 0 0 0 4.306.776l4.465.627c.567.15 1.088.439 1.517.84a2.78 2.78 0 0 1-.223 1.87c-.508 1.163-.981 2.404-1.454 3.646-.465 1.222-.931 2.444-1.431 3.594-.462 1.063-.882 2.19-1.303 3.322-.497 1.336-.997 2.678-1.571 3.927a619.5 619.5 0 0 0-8.251 23.482c-2.577 7.568-5.017 15.466-7.318 23.513-.133.587-.254.984-.38 1.399-.046.148-.092.299-.14.461-.09.309-.217.617-.344.925a9.349 9.349 0 0 0-.345.925 8.53 8.53 0 0 0-2.79.213c-.87.189-1.752.317-2.64.382a6.72 6.72 0 0 1-2.471-.244 3.736 3.736 0 0 1-1.952-1.786 18.35 18.35 0 0 0-1.877.872c-.266.077-.678.247-1.127.432-.355.146-.732.302-1.08.429a38.634 38.634 0 0 1 3.183-3.806 6.224 6.224 0 0 1-1.56.106.689.689 0 0 0-.933.277c-.255.188-.51.322-.743.446-.346.184-.647.343-.837.617a3.953 3.953 0 0 1-1.58 1.063 1.993 1.993 0 0 0-.491.064 2.113 2.113 0 0 1-.442.063c-.47-.029-.94.007-1.4.107.515-.415.998-.87 1.442-1.361.075-.071.16-.141.247-.214.28-.235.589-.492.718-.849.593-.7 1.234-1.357 1.92-1.967a9.703 9.703 0 0 0-5.303 1.85 8.813 8.813 0 0 0-3.68 3.625 4.258 4.258 0 0 0-.53 1.86 14.66 14.66 0 0 1 .964 3.476 3.604 3.604 0 0 0 2.058 2.881c1.222.632 2.49 1.264 3.753 1.895a317.42 317.42 0 0 1 3.247 1.634 18 18 0 0 0 8.304 1.382c.84.067 1.665.257 2.45.563a2.03 2.03 0 0 1 1.326 1.914c.33-.108.647-.254.944-.436.261.131.578.08.784-.128.274.592.409 1.24.393 1.892-.17.617.435.989 1.357.989l2.715-2.413c.848.316 1.72.558 2.61.723.933.18 1.854.422 2.757.723.294-.334.564-.69.806-1.063.163-.232.362-.381.56-.528.203-.15.404-.3.564-.535.162-.238.403-.391.644-.543.234-.148.467-.296.629-.52a7.446 7.446 0 0 1 1.421-.883 56.645 56.645 0 0 1 6.363-1.807 71.78 71.78 0 0 0 3.083-.731c1.118-.283 2.225-.563 3.281-.768a162.4 162.4 0 0 1 3.212-.965h.003v-.001c2.101-.615 4.201-1.23 6.171-1.989a58.842 58.842 0 0 0 9.11-4.06c.278-.083.451-.225.612-.359.11-.09.214-.176.343-.237.38-.061.719-.271.944-.584.199-.191.425-.352.645-.508.307-.218.601-.427.786-.693a7.55 7.55 0 0 1 1.422-.893c1.863-.956 3.668-2.024 5.49-3.102 1.257-.744 2.522-1.493 3.821-2.213a100.46 100.46 0 0 0 9.174-5.772 228.429 228.429 0 0 0 7.944-5.985 39.837 39.837 0 0 0 7.424-7.09 29.866 29.866 0 0 0 5.08-8.42 13.542 13.542 0 0 0 .456-8.577 19.887 19.887 0 0 0-3.606-7.324 24.904 24.904 0 0 0-5.844-5.517 6.861 6.861 0 0 1-1.824-1.063c-.594-.638-1.4-.51-2.46-.234-.248.107-.393-.062-.654-.367a8.316 8.316 0 0 0-.258-.292 1.843 1.843 0 0 0-1.559-.5 2.815 2.815 0 0 1-1.676-.69 1.588 1.588 0 0 1-.096-1.723c.356-.24.721-.518 1.094-.803.617-.47 1.258-.959 1.918-1.323a9.653 9.653 0 0 1 2.991-1.616c1.57-.574 2.981-1.148 4.402-1.881.944-.487 1.883-.904 2.867-1.341.498-.22 1.007-.447 1.534-.69 2.514-1.158 4.879-2.487 7.244-3.816a65.323 65.323 0 0 0 6.968-4.443c.335-.235.67-.515 1.029-.813.322-.269.662-.553 1.039-.834a14.716 14.716 0 0 0 2.121-2.275c-1.348.946-2.765 1.812-4.15 2.659-.576.352-1.147.7-1.704 1.05a28.276 28.276 0 0 1-6.13 2.913c2.048-1.385 3.95-2.962 5.814-4.508.539-.447 1.074-.892 1.609-1.328a48.242 48.242 0 0 1 7.934-5.517 6.71 6.71 0 0 0-.223 1.871 3.623 3.623 0 0 0 1.739-1.063 6.922 6.922 0 0 1 1.135-1.52 9.992 9.992 0 0 0 1.803-2.912zm-111.456-2.18a9.84 9.84 0 0 0-1.42.883c-.128.16-.478.297-.775-.213a1.133 1.133 0 0 0-.912-.34 10.885 10.885 0 0 1 3.68-3.752 19.778 19.778 0 0 1 4.921-2.02 11.815 11.815 0 0 1-1.463 1.828 22.015 22.015 0 0 1-2.121 1.956c-.307.287-.613.541-.92.796-.33.274-.66.548-.99.862zm25.348 13.862a85.28 85.28 0 0 0 3.033-7.24c.298-.845.593-1.709.895-2.59.582-1.697 1.186-3.46 1.863-5.286a42.763 42.763 0 0 0-10.171 3.19l-.578.261c-2.998 1.36-6.051 2.747-8.861 4.405a4.417 4.417 0 0 1-.955.754 2.718 2.718 0 0 1-.965.904c1.863.565 3.516 1.188 5.12 1.791a120.277 120.277 0 0 0 4.072 1.47h.001l.002.002c2.092.728 4.304 1.498 6.544 2.339zm40.514 27.17c1.824.744 3.659 1.435 5.653 2.126 1.983.542 3.033 1.51 2.651 2.742.276 1.106.064 2.658-.636 4.975a19.27 19.27 0 0 1-4.571 6.729 67.336 67.336 0 0 1-10.5 8.504c-3.648 2.54-7.434 4.751-11.38 6.952a181.65 181.65 0 0 1-28.423 12.139 4.363 4.363 0 0 1-1.559.415 7.54 7.54 0 0 1-.933.127h-.001c-.31.03-.62.059-.933.128.179-.663.347-1.298.509-1.913.483-1.83.916-3.469 1.432-5.06a55.353 55.353 0 0 1 2.397-6.484c.413-1.165.811-2.33 1.208-3.492l.001-.001c.918-2.687 1.829-5.352 2.895-7.935.783-1.895 1.524-3.832 2.264-5.768.705-1.843 1.409-3.685 2.148-5.489.238-.918.594-1.8 1.061-2.625a5.418 5.418 0 0 1 2.535-1.797l1.718-.563a13.61 13.61 0 0 0 1.49-.262c.466-.1.931-.2 1.469-.26a13.83 13.83 0 0 0 1.479-.26h.001c.469-.1.938-.201 1.479-.26.674-.073 1.295-.212 1.854-.337.338-.076.654-.146.946-.194a13.28 13.28 0 0 1 2.641-.373 51.219 51.219 0 0 1 2.09-.3 38.21 38.21 0 0 0 2.269-.337 13.635 13.635 0 0 0 4.539-1.712 6.12 6.12 0 0 1 3.298-1.297 5.855 5.855 0 0 1 3.246.117 34.428 34.428 0 0 1 5.663 1.765zm-21.349-31.135c-1.167 2.466-2.344 5.24-3.362 7.707-.321.776-.657 1.598-1.004 2.446-.756 1.846-1.562 3.816-2.369 5.717.387-.063.777-.167 1.167-.27h.001c.389-.105.779-.208 1.165-.272.693-.114.995-.245 1.529-.477l.096-.041.104-.045c6.894-2.573 13.787-5.145 20.533-7.728 6.745-2.583 13.501-5.623 20.267-8.982a48.978 48.978 0 0 0 7.255-4.125 39.717 39.717 0 0 0 6.363-5.091c.805-.84 1.56-1.728 2.259-2.658a4.545 4.545 0 0 0 .87-2.785 6.812 6.812 0 0 1 1.41-4.954c-1.421.734-2.047 1.18-2.057 1.34-.647.914-1.125 1.212-1.591 1.19a1.476 1.476 0 0 1-1.061-.818c.105-.38.274-.74.499-1.063.074-.135.148-.3.235-.495.113-.25.248-.55.433-.898-2.047 1.18-3.309 1.924-3.479 2.126-.169.202-.594-.648-.519-2.838-.414.057-.832.145-1.265.235-.533.11-1.087.226-1.684.297a8.01 8.01 0 0 0-2.969.829 9.124 9.124 0 0 1-7.732-.117c-.103.283-.319.505-.511.7-.124.129-.239.246-.306.363a3.794 3.794 0 0 1-1.124 1.212c-.219-.162-.401-.36-.585-.558-.19-.206-.381-.412-.613-.58-.826.176-1.601.352-2.334.52-1.481.336-2.796.635-4.03.82-1.992.508-4.02.863-6.066 1.063-.95.13-1.855.177-2.762.224-.875.046-1.751.091-2.668.211a9.99 9.99 0 0 0-5.494 2.318c-.17.308-.329.457-.488.446-.603 1.353-1.249 2.705-1.895 4.058a199.297 199.297 0 0 0-1.626 3.459v-.044a3.51 3.51 0 0 0-.058.171l-.091.201c-1.894 1.697-3.039 4.163-4.114 6.479l-.001.003-.003.006-.006.013-.319.685zm4.534-7.387a7.528 7.528 0 0 0-.089.316c-.055.21-.097.37-.192.491a5.566 5.566 0 0 1-.327.674h-.001c-.127.235-.254.47-.341.708a17.74 17.74 0 0 1 1.623-2.126l-.029-.001c-.289-.01-.442-.015-.586-.18v-.01l-.058.128zm-1.478 4.116c-.091.237-.182.476-.182.72l.318-.15c.011-.251.066-.5.116-.727.042-.193.081-.369.086-.516.004-.138.04-.301.08-.48.052-.236.11-.498.11-.764-.17.394-.288.809-.35 1.234-.005.228-.091.455-.178.683zm23.155 54.931c-.186.195-.392.41-.492.682v-.053a58.021 58.021 0 0 1-6.247 6.037 79.549 79.549 0 0 1-7.594 4.9c-2.789 1.616-5.971 3.222-8.983 4.688-2.98 1.34-6.13 2.913-9.131 4.529a.585.585 0 0 1-.467.138h-.615c-.159-.011-.297-.17-.297-.478 5.992-2.945 11.815-6.176 17.658-9.567a76.862 76.862 0 0 0 16.057-12.32.774.774 0 0 1 .425 1.063c-.069.125-.187.248-.314.381zm-14.927-38.022c-.098 0-.211-.02-.329-.04-.253-.043-.529-.09-.731.04-.054.035-.109.066-.165.098-.252.145-.523.3-.801.806a1.22 1.22 0 0 1 .785-.287 2.363 2.363 0 0 0 1.241-.617zm1.761-1.658a3.058 3.058 0 0 1 2.004.223c-.367.16-.715.274-1.006.37-.229.075-.423.138-.563.204-.517.273-.881.429-1.234.58-.212.091-.42.18-.654.292a4.119 4.119 0 0 1 1.453-1.67zM166.488 41l.004-.001c2.824-1.288 5.697-2.598 8.478-4.156a54.4 54.4 0 0 0 8.994-6.09c.5-.313.96-.71 1.421-1.108.417-.36.834-.72 1.283-1.019a5.75 5.75 0 0 0 2.121-2.583c-.424-.956-1.198-1.137-2.121-.393a19.821 19.821 0 0 0-2.863 2.254c-.327.254-.637.51-.947.767-.595.492-1.192.986-1.917 1.476a24.394 24.394 0 0 0-3.182 2.391c-.353.248-.7.496-1.046.744-.693.496-1.386.992-2.135 1.489a279.1 279.1 0 0 1-2.997 1.695c-.986.553-1.972 1.105-2.996 1.695a56.728 56.728 0 0 1-6.14 2.913c-1.107.575-2.212 1.035-3.265 1.474h-.001c-.894.373-1.753.73-2.546 1.13-.198.085-.393.169-.586.25-1.79.765-3.378 1.444-5.226 2.365a3.804 3.804 0 0 0-1.58 1.063c-.448.44-.93.841-1.443 1.201a.41.41 0 0 1 .142.013c.045.017.082.056.166.147.061.065.097.104.14.116.062.017.139-.022.326-.116a14.026 14.026 0 0 1 3.903-1.116 6.743 6.743 0 0 0 3.787-2.052c.159-.308.318-.468.636-.457.246-.099.51-.142.774-.127.605-.278 1.212-.52 1.819-.763.65-.26 1.299-.52 1.946-.821a17.645 17.645 0 0 1 3.935-1.871l1.116-.51zm-13.981 14.446c-.157.147-.283-.163-.286-.468.318-.308.435-.319.594-.308l.028.002c.149.009.289.018.279.168-.007.11.067.144.211.21.064.03.143.067.235.12l-1.061.276zm-.286-.468v-.01.01zm11.103 39.894c-.375.355-.77.729-1.24 1.106-.324.242-.623.51-.928.785-.444.398-.899.807-1.458 1.16l-5.08 3.572c-.456.287-.877.574-1.298.862a39.36 39.36 0 0 1-1.396.923c-.899.561-1.647 1.121-2.395 1.681l-.14.105a7.738 7.738 0 0 1-2.545 1.286 5.856 5.856 0 0 0-2.684 1.786 19.968 19.968 0 0 0 4.709-2.03 57.806 57.806 0 0 0 5.696-3.551c1.898-1.339 3.797-2.678 5.706-4.177a51.545 51.545 0 0 0 4.327-4.071l-.117-.457c-.404.307-.77.653-1.157 1.02zm-8.473-39.98a5.501 5.501 0 0 1-.127-.786l.159-.148c.159.01.318-.139.477-.298.297.17.435.33.435.648a.777.777 0 0 1-.226.142c-.079.037-.159.073-.241.156-.159-.01-.318.138-.477.287zm-8.007 56.031c.079-.074.199-.149.318-.223.119-.074.238-.149.318-.223a1.84 1.84 0 0 1 .636-.447l.149.16a.838.838 0 0 1-.637.446 2.171 2.171 0 0 1-.554.407c-.002-.047-.109-.12-.23-.12zm.148.16c.059 0 .083-.017.082-.04a2.075 2.075 0 0 1-.082.04zm10.224-51.193c.064.03.141.065.233.116a4.296 4.296 0 0 1-.795.595.67.67 0 0 0-.071-.247.629.629 0 0 1-.067-.231c0-.06-.023-.123-.05-.197-.039-.108-.088-.24-.088-.43a.572.572 0 0 1 .318-.15l.297.33c0 .112.073.146.223.214zm3.786 31.357c-.25.312-.537.539-.802.748-.25.198-.48.38-.64.602-.183.255-.507.456-.841.664-.266.166-.538.335-.75.537-.17.163-.36.324-.55.483-.342.288-.681.573-.892.867-.182.253-.486.453-.836.684h-.002a7.545 7.545 0 0 0-.902.666 3.623 3.623 0 0 1-1.739 1.063c-.785.128-1.114.744-.689 1.86a68.924 68.924 0 0 0 12.43-10.204 3.624 3.624 0 0 0-2.366 1.063c-.604-.106-1.092.51-1.41.967h-.011zm7.562-83.86l-.456-.329h.011c.18-.627.498-.925.997-.903l1.336.361c-.6.352-1.232.644-1.888.872zm-10.319 96.265a2.241 2.241 0 0 1 1.113-.893l.308.171a2.518 2.518 0 0 1-.636.595 2.24 2.24 0 0 0-.647.606l-.138-.479zm6.056-4.942c-.17.308-.329.446-.488.446v.319c.202-.103.372-.262.488-.457v-.308zm8.134-51.47l.011-.001h-.011zm.011-.001a3.949 3.949 0 0 1 2.068-2.115 4.055 4.055 0 0 0 2.344-.542 11.053 11.053 0 0 1-1.92 1.807c-.737.507-1.599.8-2.492.85zm7.859-38.033c.159 0 .318-.15.477-.298l.445.478c0 .16-.159.309-.318.457l-.488.457a4.05 4.05 0 0 1-.089-.23c-.06-.165-.09-.248-.197-.248 0-.078-.038-.118-.076-.157-.039-.04-.078-.08-.072-.162a.33.33 0 0 1 .318-.297zm8.145 23.736a16.835 16.835 0 0 0 2.556-2.126 5.317 5.317 0 0 0 1.442-3.05 15.781 15.781 0 0 0-2.545 1.945c-.282.21-.565.442-.854.68-.526.43-1.076.88-1.692 1.265-.51.318-1.021.725-1.53 1.13a19.72 19.72 0 0 1-1.322.996c-.336.223-.655.458-.975.695-.581.429-1.168.863-1.878 1.24a7.057 7.057 0 0 0-1.909 1.498c-.174.242-.428.394-.654.53-.201.121-.38.229-.46.374a1.95 1.95 0 0 1-.795.755 7.898 7.898 0 0 0-.669 1.222 155.298 155.298 0 0 1 5.696-3.55 25.751 25.751 0 0 0 5.546-3.604h.043zm1.379-9.492c.124-.427.291-.84.498-1.233a8.375 8.375 0 0 1 1.156 2.296 1.587 1.587 0 0 0-1.23 0h-.933c.266-.3.442-.668.509-1.063zm3.096 4.177a1.443 1.443 0 0 1 1.061-.436 1.95 1.95 0 0 0 .806-1.063c-.764-.34-1.23-.202-1.241.266-.073.248-.196.448-.322.65-.111.18-.224.363-.304.583zm4.508 2.509v1.244l-2.503-.245a9.001 9.001 0 0 1 1.124-1.212c.46-.422.889-.877 1.283-1.36.045.29.039.545.034.783-.007.278-.012.532.062.79zm43.048 51.629a.221.221 0 0 1 .064-.085l-.026.036-.038.049zm-1.834 1.287a3.872 3.872 0 0 0 1.834-1.287c-.017.06.081.066.185.073l.028.002c-.113.386-.285.773-.439 1.12-.091.207-.177.4-.24.57-.081.217-.197.467-.315.72-.131.283-.264.57-.353.821-.228.35-.389.701-.542 1.036-.183.398-.355.772-.614 1.09a6.393 6.393 0 0 1-1.199 2.02 17.47 17.47 0 0 1-1.941 2.434l-.277.246c-2.623 2.32-5.25 4.646-8.016 6.813a71.544 71.544 0 0 1-9.174 5.931 7.653 7.653 0 0 1-2.206 1.169 3.971 3.971 0 0 1-2.344.542c-1.036.126-2.128.291-3.212.455h-.001c-1.025.155-2.044.309-3.002.428a20.516 20.516 0 0 1-6.194.095 15.957 15.957 0 0 1-8.845-3.593 17.574 17.574 0 0 1-4.836-7.834 21.567 21.567 0 0 1-1.061-6.282 48.58 48.58 0 0 1 .382-6.559 71.504 71.504 0 0 1 4.942-14.977 82.979 82.979 0 0 1 8.389-14.244 37.14 37.14 0 0 1 15.262-11.82c3.765-1.436 7.18-1.787 10.086-.904a27.814 27.814 0 0 1 12.165 5.9c.379.242.689.58.901.977.273.195.43.45.579.691.095.154.186.301.302.425 2.121 2.424 1.983 5.23-.297 8.6-1.095 1.697-2.271 3.399-3.403 5.038h-.001v.001h-.001l-1.156 1.679a55.682 55.682 0 0 1-5.642 6.378 14.215 14.215 0 0 0-2.121 2.275c-.62.853-1.289 1.67-2.005 2.445 0 1.063-.53 1.7-1.453 1.669a26.354 26.354 0 0 0-1.93 1.966 20.764 20.764 0 0 1-1.919 1.913c-.939.885-1.92 1.733-2.898 2.578h-.001c-.856.74-1.71 1.479-2.532 2.238-.74.683-1.532 1.32-2.333 1.963-1.104.888-2.225 1.788-3.245 2.842a7.97 7.97 0 0 1-1.262.744c-.458.27-.933.512-1.421.722a6.161 6.161 0 0 1-2.016.096 13.653 13.653 0 0 0-.53 2.01c-.223 2.019.34 3.603 1.559 4.124a1.98 1.98 0 0 0 1.856.063 12.719 12.719 0 0 1 2.047-1.063 66.485 66.485 0 0 0 18.2-12.458 17.845 17.845 0 0 0 1.612-1.818c.168-.316.417-.587.686-.88.255-.277.529-.575.767-.948.392-.44.821-.846 1.283-1.212.211-.303.558-.462.907-.62.176-.081.354-.162.514-.262a28.98 28.98 0 0 1-1.347 3.189 8.508 8.508 0 0 0-1.357 3.242 11.5 11.5 0 0 0 1.421-1.594 12.77 12.77 0 0 1 1.453-1.67c.114-.109.224-.208.327-.301.471-.427.819-.742.967-1.378.18-.616.806-1.063 1.75-1.499a1.458 1.458 0 0 1-.213 1.871 2.51 2.51 0 0 0-.54 2.01c.243-.304.485-.57.726-.835.241-.266.483-.532.727-.835.391-.54.823-1.047 1.293-1.52.479.349.883.79 1.188 1.297.149.319-.201 1.403-.88 3.253.229-.519.561-.986.976-1.371zM199.65 61.016a713.817 713.817 0 0 1 4.076-4.46c2.282-2.485 4.468-4.865 6.381-7.063l-.446-.33a12.92 12.92 0 0 0-5.09 4.05 52.895 52.895 0 0 0-4.921 7.803zm7.816-2.233a57.57 57.57 0 0 1-2.768 3.817c-.073-.083-.183-.129-.295-.174-.116-.047-.234-.095-.31-.188a26.67 26.67 0 0 1 5.674-7.44c0 .068 0 .109.02.133.03.036.104.036.288.036a45.53 45.53 0 0 1-2.609 3.816zm11.115-3.678a16.84 16.84 0 0 0-4.147 3.604 43.663 43.663 0 0 0-4.242 5.804 53.323 53.323 0 0 0-3.32 6.601 28.177 28.177 0 0 0-1.909 6.027 86.088 86.088 0 0 1 5.515-11.374 75.003 75.003 0 0 1 8.103-10.661zm-13.576 30.02c-.326.099-.607.31-.795.595.021-.627.032-1.095-.414-1.403.422-.168.764-.491.955-.904 2.259-2.572 4.338-4.858 6.586-7.122 2.248-2.264 4.497-4.688 6.745-7.111.322-.448.639-.821.954-1.193.329-.388.657-.775.987-1.242 1.161-1.31 2.163-2.707 3.18-4.125.394-.551.791-1.105 1.2-1.657.407-.393.738-.858.976-1.372a2.374 2.374 0 0 1 1.591-1.063c.292.54.268 1.196-.064 1.712a6.99 6.99 0 0 1-.976 1.382c-.852 1.194-1.835 2.384-2.82 3.575-.523.633-1.045 1.265-1.549 1.9-1.239 1.558-2.593 3.109-3.866 4.566l-.001.002-.651.746a68.3 68.3 0 0 1-5.621 6.06 318.974 318.974 0 0 1-3.341 3.318 398.4 398.4 0 0 0-2.747 2.719c-.006.096-.066.187-.147.312-.054.083-.118.181-.182.304zm.859-7.006c-.183.278-.3.594-.339.925.131.302.014.728-.179 1.432l-.033.12c.529-.5.966-1.004 1.36-1.457.316-.365.605-.696.888-.966.637-.606 1.284-1.361 1.931-2.127 1.621-1.625 3.184-3.319 4.762-5.029.92-.996 1.844-1.998 2.789-2.996a51.165 51.165 0 0 0 6.491-8.685 30.271 30.271 0 0 0 3.298-5.825c.541-2.126-.382-2.52-2.577-1.658-.245.156-.449.27-.656.388-.188.106-.379.214-.606.356a26.267 26.267 0 0 0-7.53 7.44 77.025 77.025 0 0 0-5.717 8.866 89.8 89.8 0 0 0-3.882 9.216zm5.452-18.89a27.301 27.301 0 0 1 4.178-4.39 24.536 24.536 0 0 1-3.415 4.572c-.276.375-.561.757-.85 1.142-.895 1.199-1.816 2.43-2.554 3.588.758-1.7 1.64-3.342 2.641-4.911zm20.575.097a18.057 18.057 0 0 0-1.623 2.126c-.244.377-.488.72-.732 1.063-.243.342-.487.685-.731 1.063.307 0 .456 0 .604.17a17.484 17.484 0 0 0 1.474-2.126 19.072 19.072 0 0 1 1.612-2.126h-.307c-.088-.1-.123-.142-.169-.159-.031-.011-.067-.011-.128-.011zm-2.323 8.833c-.464.36-.894.762-1.283 1.201a9.086 9.086 0 0 1 2.1-2.423 1.382 1.382 0 0 1-.817 1.222zm6.141-7.92l-2.429 3.19-2.428 3.189a6.368 6.368 0 0 0 3.043-3.02 25.247 25.247 0 0 1 2.281-3.358h-.467zm-1.135 5.922h.636c.425-.533.82-1.127 1.213-1.717.499-.75.994-1.493 1.534-2.089.284-.458.584-.94.891-1.43.587-.94 1.196-1.913 1.74-2.822a.457.457 0 0 1-.308-.16c-.62.732-1.151 1.572-1.663 2.38-.425.672-.837 1.323-1.275 1.873-.475.597-.917 1.273-1.36 1.952-.456.698-.913 1.398-1.408 2.013zm71.642 44.241a9.846 9.846 0 0 1 1.304-1.987l-2.121.34c-.094-.377-.153-.699-.203-.965-.095-.515-.153-.826-.348-.938a3.458 3.458 0 0 0-2.323-.074c.147-.231.211-.505.18-.776l.001-.033c.01-.297.015-.441-.128-.595-1.071-.51-1.485-.999-1.485-1.775l.074-2.19c.235-1.496.391-3.004.467-4.517.042-1.471.248-2.933.615-4.358.105-.38.274-.74.499-1.064.366-.37.63-.827.768-1.327-.099.525.04.91.313 1.062.379-.99.745-1.967 1.108-2.94l.003-.007.001-.002c.941-2.514 1.868-4.993 2.961-7.543h-.308c-.493.732-.933 1.5-1.315 2.296-.173.395-.384.79-.616 1.224-.223.417-.465.87-.709 1.391a14.225 14.225 0 0 1 1.06-3.401c.482-1.006.944-1.859 1.558-2.991l.107-.198c.587-1.04 1.175-2.06 1.754-3.068 1.044-1.813 2.064-3.585 3.019-5.362 1.644-2.753 3.139-5.517 4.624-8.28a15.785 15.785 0 0 0 1.633-2.446c.17-.383.377-.771.604-1.197h.001c.226-.425.472-.887.721-1.418.184-.277.3-.594.339-.924l.001-.028c.01-.29.016-.44-.139-.44-.456-.18-.753-.34-.89-.819a1.214 1.214 0 0 0-.435-1.063c-.403-1.583-1.315-2.083-3.044-1.36a2.372 2.372 0 0 0-.732-1.276 1.063 1.063 0 0 0-.583-.956 8.933 8.933 0 0 1-1.58 1.063c-.203.294-.519.46-.878.648a5.736 5.736 0 0 0-.703.415c.106-.383.349-.643.585-.894.145-.154.286-.304.391-.478.276-.457.445-.925 0-1.403a50.152 50.152 0 0 0-1.45-1.49h-.002v-.001c-.447-.447-.875-.874-1.231-1.262a4.237 4.237 0 0 0-3.67-1.222c-.082-.09-.214-.132-.368-.182a2.133 2.133 0 0 1-.395-.159 2.648 2.648 0 0 1-.499-.093c-.199-.048-.401-.098-.562-.098-.328-.011-.607-.113-.865-.207-.234-.086-.451-.165-.673-.165a4.05 4.05 0 0 0-1.389 0 30.428 30.428 0 0 0-8.273 1.892 74.059 74.059 0 0 0-7.71 3.795 98.182 98.182 0 0 0-14.243 9.195c-4.423 3.444-8.75 7.048-12.908 10.97-2.556 2.445-4.963 4.858-7.222 7.44a62.054 62.054 0 0 0-6.173 8.505c-.784 1.26-1.43 2.67-2.028 3.976-.275.6-.54 1.179-.803 1.71a22.316 22.316 0 0 0-1.75 5.88c-.265 3.124.116 5.633 1.76 7.259a8.56 8.56 0 0 0 7.18 2.435l2.121.085c2.352.351 4.754.11 6.99-.702a62.084 62.084 0 0 0 8.643-3.848l.26-.143c2.597-1.429 5.193-2.859 7.79-4.587l.587-.39h.002c2.002-1.327 3.864-2.56 5.594-3.926.863-.62 1.695-1.215 2.523-1.806l.003-.002.001-.001.002-.001.002-.002.002-.001.003-.002.002-.002c1.152-.823 2.296-1.64 3.497-2.51h.615v1.414a38.925 38.925 0 0 0 .318 12.831 12.172 12.172 0 0 0 3.924 7.441c.534.368 1.09.701 1.665.999.641.38 1.414.465 2.121.234.977-.139 1.962-.21 2.949-.213a8.314 8.314 0 0 1 2.768.415 1.765 1.765 0 0 0 1.548-.107c.239-.148.475-.257.711-.366a6.25 6.25 0 0 0 .711-.367c1.103-.585 1.771-1.35 1.771-1.967zm-46.687-36.503a119.358 119.358 0 0 0-11.931 13.968 24.639 24.639 0 0 1 3.298-5.878 58.804 58.804 0 0 1 6.608-7.59 68.336 68.336 0 0 1 7.827-7.228 57.56 57.56 0 0 1 7.615-5.316A142.711 142.711 0 0 0 259.529 73.9zm-7.159 13.659c.382-.527.746-1.03 1.019-1.53a15.47 15.47 0 0 0 1.951-2.902l-.318-.16c-.295.478-.62.925-.934 1.356-.385.53-.753 1.037-1.028 1.546a14.809 14.809 0 0 0-1.952 2.903l.319.159c.298-.482.626-.935.943-1.372zm51.915-32.899a2.546 2.546 0 0 0-.636.755v.01c-4.083 4.69-8.288 9.241-12.395 13.686h-.001l-.829.899a283.895 283.895 0 0 1-13.936 13.585 113.326 113.326 0 0 1-16.524 12.756 34.572 34.572 0 0 1-3.319 1.754l-.478.257c-.946.51-1.91 1.028-2.99 1.656-.05-.294-.044-.552-.039-.777.006-.255.011-.467-.068-.637.005-.132.043-.293.084-.471.056-.238.118-.505.118-.773a16.023 16.023 0 0 1 4.168-8.61c1.49-1.788 2.979-3.463 4.375-5.032v-.001c.264-.296.524-.588.779-.877 1.052-1.174 2.157-2.233 3.249-3.28a82.294 82.294 0 0 0 2.203-2.162 8.504 8.504 0 0 1 2.248-2.424c.4-.267.779-.58 1.162-.898.495-.409.997-.824 1.559-1.153-.001.083-.041.196-.087.327-.064.185-.141.406-.141.629.57-.459 1.106-.96 1.601-1.499.18-.264.461-.47.787-.71.244-.179.512-.376.781-.63h.352a31.835 31.835 0 0 0 4.454-3.592c.808-.557 1.635-1.113 2.462-1.669 1.603-1.077 3.206-2.155 4.676-3.242a36.441 36.441 0 0 1 7.148-4.55 62.11 62.11 0 0 1 4.73-2.657 18.134 18.134 0 0 1 5.154-1.435 2.974 2.974 0 0 0-.647.765zm-28.329 16.38l.023-.02h-.827a2.79 2.79 0 0 1-.416.299c-.241.151-.496.312-.698.593a6.856 6.856 0 0 0-1.061.904c.028.026.039.062.038.107l.132-.075c.128-.12.276-.214.429-.31.241-.154.494-.314.695-.594a7.157 7.157 0 0 0 1.114-.903h.571zm-14.73 10.567a42.063 42.063 0 0 0-3.701 3.944 21.465 21.465 0 0 0-2.779 4.432c.965-1.222 2.121-2.742 3.086-4.252.736-.755 1.366-1.558 1.971-2.33.494-.63.971-1.239 1.476-1.783l-.053-.011zm3.197.209c.174-.184.349-.367.526-.55l.053.011c-.195.178-.388.358-.579.539zm0 0a62.787 62.787 0 0 0-5.445 6.594 67.395 67.395 0 0 0-4.921 7.802 28.095 28.095 0 0 1 4.454-7.813 53.38 53.38 0 0 1 5.912-6.583zm2.424-6.109c-.081 0-.121 0-.142.02-.02.02-.022.056-.027.13a.147.147 0 0 1-.048.108.146.146 0 0 1-.111.04c-.094.094-.133.132-.179.146a.372.372 0 0 1-.129.003c0 .15.131.159.271.168l.026.002.339-.617zm27.702-4.975c.242-.377.573-.688.966-.903.311-.388.601-.793.869-1.212l-.148-.16c-.149 0-.308 0-.297-.17-1.324 1.394-2.718 2.783-4.111 4.172-1.486 1.482-2.973 2.963-4.374 4.45-1.639 1.739-3.398 3.412-5.134 5.063-1.14 1.085-2.27 2.16-3.35 3.239l-.159.308c.307 0 .466-.138.466-.298l.488-.457a306.06 306.06 0 0 1 2.619-2.435c1.669-1.54 3.314-3.058 4.89-4.645.959-.938 1.985-1.886 3.048-2.87h.001c1.382-1.28 2.829-2.617 4.279-4.07l-.053-.011zm14.943-16.537a3.185 3.185 0 0 1-.095.019l.011.053.084-.072zm0 0a2.994 2.994 0 0 0 2.133-1.778c-.166.238-.374.39-.559.523-.17.124-.319.233-.396.38-.412.266-.805.558-1.178.875zm3.32 17.643c.16-.298.626-.446 1.252-.425a49.824 49.824 0 0 0-3.118 5.06h-.159c.169-.309.169-.468 0-.627-.17-.16 0-.468.18-.617.064-.177.152-.373.245-.582.153-.343.322-.723.434-1.119a3.56 3.56 0 0 0 1.177-1.68l-.011-.01zm0-4.539h-.307l.021-.621c0 .07.033.107.067.145.035.039.071.079.071.157 0 .08.037.12.074.16.037.04.074.08.074.16zm-.286-.621v-.017.017zm4.041-.442a4.184 4.184 0 0 1-.87 2.626 17.826 17.826 0 0 0-1.474 2.296 3.983 3.983 0 0 1 .711-2.636c.276-.326.529-.726.792-1.14.252-.397.513-.808.809-1.178l.032.032zm1.935-3.06a2.612 2.612 0 0 1-.143.307l.149.149c.061-.112.12-.202.17-.28.089-.137.152-.235.159-.337.006-.095.066-.187.147-.312.054-.083.118-.18.181-.304h-.307a.564.564 0 0 1-.17.467c-.096.09-.134.183-.186.31zm49.1 34.663c.332-.279.657-.567.973-.864l.002.088.1-.184c.288-.275.57-.558.844-.847a9.03 9.03 0 0 0 .658-1.063c.21-.197.286-.402.362-.608.039-.106.078-.212.136-.317a2.524 2.524 0 0 0-.511.172l.182-.314c.1-.172.171-.293.213-.368a1.299 1.299 0 0 0-.732-1.276l-2.864 2.126c-.138-.468.35-1.073.987-1.68.795-.595.816-1.222-.085-1.88-.467.294-.861.627-1.256.96-.403.342-.807.683-1.29.984a5.486 5.486 0 0 1-2.842 1.467 7.114 7.114 0 0 1 1.782-2.445 3.87 3.87 0 0 0 1.304-2.508 4.335 4.335 0 0 0-1.251.584 2.447 2.447 0 0 0-1.061.585l-.199.124a99.586 99.586 0 0 0-2.813 1.8 17.567 17.567 0 0 1-3.309 1.765c-1.193.43-2.346.944-3.499 1.457-1.122.5-2.244.999-3.405 1.423-1.177.43-2.355.898-3.532 1.366-1.177.468-2.354.936-3.532 1.366a8.149 8.149 0 0 1-3.128.978c-1.08.225-2.17.395-3.267.51-.109.132-.36.087-.607.043-.11-.02-.22-.039-.315-.043-.308-.01-.605-.021-.605-.329l.095-2.817a6.793 6.793 0 0 1 .414-2.955c.29-.812.682-1.584 1.167-2.296.162-.255.307-.494.452-.733.29-.477.58-.954 1.011-1.563a72.374 72.374 0 0 1 11.03-14.627 98.118 98.118 0 0 1 14.339-12.012 5.712 5.712 0 0 1 2.058-1.329 10.897 10.897 0 0 1-2.906 3.646c-.324.383-.605.686-.886.989-.281.303-.562.606-.885.989a2.788 2.788 0 0 0-.552 2.476c.197-.131.384-.254.559-.368h.001c.813-.531 1.369-.895 1.508-1.28.498-.466.954-.935 1.41-1.404.427-.44.854-.88 1.316-1.317.477-.451.88-.906 1.283-1.36a20.6 20.6 0 0 1 1.283-1.36c.316-.092.483-.272.658-.46.09-.096.182-.195.297-.285.339-.266.785-.266 1.4-.266-.307.364-.579.694-.852 1.023v.001c-.293.353-.585.706-.919 1.102-.505.728-1.1 1.39-1.771 1.967-.537.35-.981.793-1.41 1.222-.326.325-.644.642-.987.904-.317.241-.634.53-.971.837-.509.464-1.064.969-1.734 1.416-.647.819-.657 1.234.244 1.882a10.084 10.084 0 0 1 2.047-1.18c-.011.478.308.797.594.808.135.005.309.047.489.091.201.05.409.1.572.1.339.128.698.192 1.06.191.308.011.435.33.435.798.929-.285 1.826-.67 2.673-1.148a22.61 22.61 0 0 0 1.38-.881c.342-.23.7-.47 1.084-.712-.002.023.015.06.07.115v-.319a.16.16 0 0 1-.159.16c.165-.229.364-.38.562-.532.199-.151.398-.303.563-.531.403-.113.746-.38.954-.744a25.522 25.522 0 0 1 3.532-3.7c.673-.814 1.399-1.518 2.114-2.211.48-.466.955-.927 1.407-1.413 1.463-1.797 2.28-3.168 2.63-4.252.35-1.085-.074-2.35-.954-3.785a13.845 13.845 0 0 0-1.772-2.413 7.264 7.264 0 0 0-2.407-1.956 29.226 29.226 0 0 0-3.786-2.126 6.743 6.743 0 0 0-4.624-.478 6.78 6.78 0 0 0-.934.248 6.82 6.82 0 0 1-1.251.305c-.514.07-.938.189-1.344.302-.332.093-.652.183-1 .24a42.462 42.462 0 0 0-8.166 3.625c-2.292 1.47-4.583 3.08-6.882 4.694l-.733.514a100.959 100.959 0 0 0-13.714 11.874 73.862 73.862 0 0 0-10.701 14.16 39.548 39.548 0 0 0-3.51 7.44 21.02 21.02 0 0 0-1.061 7.441 17.915 17.915 0 0 0 2.355 7.898c1.315 2.268 3.584 3.756 6.809 4.465 1.676.614 3.435.972 5.218 1.063 2.251.341 4.539.369 6.798.085a2.29 2.29 0 0 0 1.4-.266c.319-.142.585-.248.843-.351h.001c.283-.113.558-.222.884-.372a104.91 104.91 0 0 0 3.447-1.189h.002a118.57 118.57 0 0 1 3.127-1.086c2.262-.935 4.468-2 6.607-3.189l1.888-.871a6.203 6.203 0 0 0 1.899-1.18 14.58 14.58 0 0 0 1.633-1.52 1.63 1.63 0 0 1 1.718-.404.572.572 0 0 0 .636-.606 5.047 5.047 0 0 1 1.475-2.296zm4.496-26.883s-.067 0-.07.044l.07-.044zm-14.922-15.85a24.4 24.4 0 0 0-5.038 2.647 52.819 52.819 0 0 0-6.045 4.635c-.451.425-.902.841-1.349 1.253-1.452 1.34-2.859 2.64-4.092 4.062a47.346 47.346 0 0 0-3.712 4.56 125.312 125.312 0 0 1 9.736-8.727c3.352-2.891 6.852-5.74 10.5-8.43zM343.633 71.05a23.144 23.144 0 0 0-3.373 3.487l-.414-.287c.359-.41.711-.838 1.063-1.267.687-.838 1.375-1.676 2.119-2.379a41.443 41.443 0 0 1 3.818-3.189c0 .082 0 .121.02.14.019.02.056.02.129.02a22.575 22.575 0 0 1-3.362 3.475zm16.778-7.387a67.136 67.136 0 0 0-11.613 8.982 49.422 49.422 0 0 0-8.867 11.385 90.002 90.002 0 0 1 9.651-10.769 131.208 131.208 0 0 1 10.861-9.598h-.032zM342.954 77.13l.442-.385a1.581 1.581 0 0 0-.442.385zm.983-.863c-.024.094-.038.19-.039.289a1.565 1.565 0 0 0-.502.19l.541-.479zm9.734-9.699l-.062.06c-.268.259-.41.396-.41.541a2.171 2.171 0 0 0-.488.606c-1.463 1.648-3.054 3.328-4.645 4.837-.903.749-1.856 1.609-2.829 2.487-.43.389-.864.78-1.3 1.168.03-.115.078-.226.141-.328 1.283-1.382 2.726-2.902 4.168-4.252l4.317-4.071c.008-.246.198-.39.358-.512.048-.036.093-.07.13-.105.075-.07.187-.139.301-.209.117-.071.236-.144.319-.222zm0 0l.016-.015-.006.006-.01.009zm1.596-1.046c-.087-.1-.123-.141-.168-.158-.032-.012-.068-.012-.129-.012a.508.508 0 0 1-.307-.17 3.76 3.76 0 0 1-.453.7 2.42 2.42 0 0 0-.523.522c.192-.156.367-.331.523-.522.04-.029.082-.057.124-.084.332.004.657-.092.933-.276zm18.157 3.912a10.723 10.723 0 0 0 1.442-1.35 18.042 18.042 0 0 1-3.16 1.913 13.132 13.132 0 0 0 1.718-.563zm-.212-2.669c-.053.096-.089.177-.119.244-.066.148-.1.224-.21.224-.098 0-.136.057-.188.136-.032.048-.069.105-.13.162a.146.146 0 0 0 .04.112c.028.03.067.047.109.047a1.06 1.06 0 0 1 .95-.595h-.155c-.18-.319-.329-.478-.339-.33h.042zm4.486-4.527h-.042.042zm0 0a16.435 16.435 0 0 0-1.601 1.658c-.166.235-.409.465-.691.731-.278.263-.594.562-.911.937 0 .309.138.32.138.32a35.844 35.844 0 0 0 3.521-3.317c-.174-.291-.313-.325-.456-.33zm-.604 4.251c-.159 0-.308 0-.308-.17l.796-.595h.159s0 .137.131.016l-.778.75zm.795-.765l-.017.016.017-.016zm3.182-3.476c-.332.17-.608.432-.796.755l.297.319c.159 0 .626-.447.796-.755.069-.126.189-.25.319-.383.188-.195.397-.41.497-.68h-.307c-.373.103-.673.38-.806.744zm47.895 54.798a4.96 4.96 0 0 1-.891-1.127 14.942 14.942 0 0 1-.403-1.775 3.091 3.091 0 0 0-.116-1.254 14.169 14.169 0 0 1-.075-2.339c.115-.945.303-1.88.563-2.795.111-.961.354-1.902.721-2.796a75.239 75.239 0 0 0 2.916-8.345l.464-1.245.001-.002c.868-2.326 1.715-4.595 2.462-7.087a28.598 28.598 0 0 1 1.761-3.816 96.682 96.682 0 0 0 1.983-3.837 14.616 14.616 0 0 0-.7 2.317c-.16.797-.394 1.576-.7 2.328 1.665-3.418 3.504-6.762 5.312-10.05a678.141 678.141 0 0 0 1.646-3.003 127.018 127.018 0 0 0 6.363-13.064 14.534 14.534 0 0 0-1.453 1.817 20.74 20.74 0 0 1-1.145 1.84c.262-.782.55-1.467.843-2.161.229-.543.461-1.092.684-1.698.35-.95.695-1.76 1.042-2.574.158-.37.316-.74.475-1.126a2.056 2.056 0 0 0-.679-2.678c-.103-.11-.207-.203-.304-.29-.185-.165-.348-.31-.439-.518-.275-1.106-.562-1.584-.869-1.754-.145-.3-.893-.046-2.088.36l-.097.033a2.468 2.468 0 0 0-.721-1.275 2.607 2.607 0 0 1-.3-.423c-.151-.243-.311-.502-.591-.704a9.62 9.62 0 0 1-2.068 1.647 23.207 23.207 0 0 1-2.068 1.648c.011-.335.112-.658.207-.957.085-.27.164-.522.164-.744.009-.485.129-.96.35-1.392-.743-.702-1.824-.702-2.949.361a17.224 17.224 0 0 0-2.534 1.786l-.178.133c-.737.552-1.483 1.112-2.357 1.653-2.774 2.065-5.56 4.206-8.315 6.322h-.001a1152.61 1152.61 0 0 1-4.835 3.702 157.94 157.94 0 0 0-12.589 10.63 9.264 9.264 0 0 1-1.75 1.19c-.553.391-1.131.746-1.729 1.063 0-.17 0-.17-.159-.17a299.736 299.736 0 0 1 26.101-51.385 8.687 8.687 0 0 1-2.037.712 7.743 7.743 0 0 0-1.718.564 7.876 7.876 0 0 1 1.294-1.829 2.584 2.584 0 0 1 1.061-.116c.417.028.836-.012 1.241-.117a6.662 6.662 0 0 0 1.474-2.296c-.159.159-.318.297-.477.297h-.149c-.162-.451-.28-.8-.402-1.16-.093-.277-.189-.56-.308-.902-.105-.298-.189-.574-.27-.836-.132-.432-.252-.826-.43-1.216a15.217 15.217 0 0 1-1.75 1.5c-.217.197-.466.4-.733.62h-.001c-.323.265-.673.552-1.027.878a9.342 9.342 0 0 0 1.008-2.126c.321-.652.605-1.323.848-2.01a2.254 2.254 0 0 0-1.559.267 7.25 7.25 0 0 0-1.124 1.063c-.162.232-.365.423-.568.615-.197.186-.395.372-.556.597a2.979 2.979 0 0 1-1.57.722 10.628 10.628 0 0 0 1.506-3.189 3.539 3.539 0 0 0-.095-1.722 3.461 3.461 0 0 0-2.503.85 19.875 19.875 0 0 0-1.92 1.808 13.454 13.454 0 0 0-1.941 2.285c-.484.565-.879 1.135-1.318 1.77-.148.213-.301.434-.464.665a444.854 444.854 0 0 0-5.568 8.716 90.258 90.258 0 0 0-4.846 8.387c-.514 1.01-1.046 2-1.578 2.991h-.001c-1.007 1.875-2.016 3.751-2.897 5.768-.674 1.541-1.421 3.04-2.169 4.539-.748 1.499-1.495 2.998-2.169 4.539-2.163 4.294-4.327 8.76-6.024 13.075a468.888 468.888 0 0 1-1.7 4.371c-1.184 3.015-2.368 6.03-3.412 9.054-.649 1.908-1.342 3.871-2.031 5.825a618.206 618.206 0 0 0-1.744 4.986 253.664 253.664 0 0 0-1.805 5.52 274.93 274.93 0 0 1-1.664 5.11 3.85 3.85 0 0 0-.53 2.009c-.35.967-.371 1.563-.233 2.03.122.414.751.612 1.629.887v.001c.114.035.232.072.354.112a2.128 2.128 0 0 0 .096 1.732c.137.468.583.829 1.357.829a9.038 9.038 0 0 0 1.877-.563 4.92 4.92 0 0 1 2.037-.872c-.155.414-.112.876.116 1.255 2.206-1.17 3.426-.659 4.137 1.243a14.11 14.11 0 0 1 1.749-1.498c.26-.239.535-.39.804-.539.272-.149.537-.295.777-.524.116.584.583.605 1.06 0 .083-.145.239-.328.396-.513.166-.195.334-.392.421-.55.359-.342.638-.76.817-1.223-.165.234-.401.383-.637.532-.236.148-.472.297-.636.531-.167.237-.368.389-.57.541-.196.148-.392.296-.554.522a7.01 7.01 0 0 0 .827-1.531c.103-.283.318-.5.581-.764a7.1 7.1 0 0 0 .554-.607 254.623 254.623 0 0 1 24.573-26.033l3.033-2.859c.287.627-.031 1.084-.36 1.552a3.813 3.813 0 0 0-.976 1.212c.573.18.912.659.573 1.584a18.258 18.258 0 0 1-1.061 3.189c-.208.626-.416 1.313-.621 1.986-.149.492-.296.977-.439 1.426a123.1 123.1 0 0 0-4.402 19.697 18.778 18.778 0 0 0 0 5.166 8.025 8.025 0 0 0 2.121 4.454 3.473 3.473 0 0 0 3.362 1.063l2.323.085c.651.191 1.319.319 1.994.383.374.073.698.148.971.212.4.092.692.16.874.16.149.011.626-.287 1.273-1.201.294-.393.567-.801.817-1.223.087-.158.214-.317.339-.474.119-.149.236-.295.318-.44zm-25.607-22.089a80.18 80.18 0 0 0-1.681 1.743 38.52 38.52 0 0 1-3.861 4.252c-.537.559-1.051 1.118-1.559 1.671l-.001.001c-.864.941-1.71 1.861-2.618 2.719a6.663 6.663 0 0 1 .975-1.531c1.071-1.374 2.192-2.633 3.303-3.88.737-.828 1.47-1.65 2.18-2.498 1.782-2.126 3.712-4.252 5.643-6.378.332-.393.705-.75 1.113-1.063.406-.395.959-.6 1.522-.567l.014.05a28.205 28.205 0 0 1-3.349 3.738c-.562.606-1.122 1.174-1.681 1.743zm5.03-5.482a1.4 1.4 0 0 0 .034.103c.101-.271.306-.486.492-.681.127-.133.245-.257.314-.382.064-.116.173-.253.292-.403.195-.246.419-.528.525-.82-1.469.687-1.86 1.401-1.671 2.134l.023.002.025.002-.034.045zm-9.129 13.688c-.441.514-.808.959-1.198 1.433l-.002.003-.003.003-.002.002-.001.001c-.18.219-.365.444-.566.684a10.223 10.223 0 0 1-1.771 1.967 13.081 13.081 0 0 1 3.543-4.093zm29.961-42.891c-.8.398-1.545.898-2.217 1.488l.021.021a18.677 18.677 0 0 0-1.781 1.84 25.194 25.194 0 0 0-2.228 1.796c-.727.5-1.418 1.05-2.068 1.647a7.274 7.274 0 0 0-2.121 1.648c-.379.287-.725.577-1.072.867h-.001c-.371.31-.743.622-1.154.93a29.247 29.247 0 0 1-2.386 1.945c-.33.39-.653.696-.977 1.003a12.56 12.56 0 0 0-.943.963c-.6.697-1.245 1.354-1.93 1.967a50.058 50.058 0 0 0-4.158 3.922 12.489 12.489 0 0 1-2.121 1.956c-.451.344-.854.786-1.295 1.27-.336.37-.694.762-1.112 1.154A4.486 4.486 0 0 1 403.661 81a18.349 18.349 0 0 1 3.373-3.476c.562-.606 1.161-1.172 1.76-1.738.599-.566 1.199-1.132 1.761-1.738.751-.64 1.474-1.3 2.192-1.954.963-.879 1.917-1.749 2.92-2.553.477-.383.954-.76 1.431-1.138 1.273-1.008 2.546-2.016 3.819-3.114 1.58-1 3.012-2.062 4.443-3.125.583-.482 1.198-.96 1.832-1.454.751-.585 1.528-1.19 2.305-1.842.24-.18.504-.327.784-.435.367-.11.723-.256 1.061-.436a4.428 4.428 0 0 1-2.121 2.275zm-10.903-28.51l-.297-.17.851-1.167a.94.94 0 0 0-.055.412l-.499.925zm.554-1.337l.296-.407a.933.933 0 0 0-.296.407zm.296-.407l.147-.201v.106a1 1 0 0 0-.147.095zm-4.626 52.598a4.32 4.32 0 0 0 2.747-2.732c-.241.17-.481.294-.704.41-.364.19-.683.356-.886.653-.58.388-.992.98-1.157 1.658v.01zm4.601-4.353c-.155.112-.335.243-.443.452.191-1.063.71-1.574 1.273-1.202-.107.207-.285.332-.439.44a1.536 1.536 0 0 0-.198.156 1.587 1.587 0 0 1-.193.154zm2.442-2.419c-.775 0-1.061.117-1.061.436v1.063l1.061-1.499zm1.41-.744a8.52 8.52 0 0 0-1.262.745v-.022c.394-.34.724-.746.976-1.2.34-.294.615-.657.806-1.064.127.787-.043 1.254-.52 1.541z" fill="#fff"/></svg>