<svg width="453" height="135" fill="none" xmlns="http://www.w3.org/2000/svg"><path fill-rule="evenodd" clip-rule="evenodd" d="M101.137 25.969c-.227.934-.487 1.86-.777 2.776a4.891 4.891 0 0 1 .777-2.776zm-1.886 5.853c.142-.272.29-.545.436-.818.262-.486.525-.974.759-1.463a4.98 4.98 0 0 1-.086-.796 42.39 42.39 0 0 1-1.109 3.077zm-3.875 7.306a44.073 44.073 0 0 0 2.732-4.73c.41-.846.791-1.705 1.143-2.576-.12.232-.236.463-.346.695a41.7 41.7 0 0 1-3.53 6.611zM92.92 42.49l.158-.194a41.725 41.725 0 0 0 2.297-3.168 44.065 44.065 0 0 1-2.329 3.19l-.126.172zm0 0a58.137 58.137 0 0 1-6.257 7.188 144.235 144.235 0 0 0 6.257-7.188zm-8.534 9.32c-2.621 2.425-5.358 4.853-8.21 7.112-1.381.993-2.632 2.07-3.97 3.222l-.282.243a9.185 9.185 0 0 1-5.114 1.85c-.191 1.435-.659 2.285-1.53 2.54-.54.158-1.085.378-1.593.582-.312.126-.61.246-.885.343-.36.166-.726.337-1.095.509l-.004.002c-1.729.806-3.54 1.65-5.343 2.306-1.093.398-2.19.828-3.287 1.258h-.001v.001h-.002c-1.097.431-2.195.862-3.29 1.26a9.75 9.75 0 0 0-3.19 1.616c-.369.262-.739.465-1.074.648-.195.107-.377.207-.541.309-.447.276-1.063.393-1.743.52a9.408 9.408 0 0 0-3.35.893 7.527 7.527 0 0 1-3.348.745 9.812 9.812 0 0 0-2.073 4.134 15.53 15.53 0 0 1-1.297 3.86c.36-.87.59-1.786.68-2.722.09-.452.22-.942.35-1.43.118-.442.235-.882.32-1.291a36.145 36.145 0 0 0-2.88 8.132 82.464 82.464 0 0 0-1.723 8.185c-.105.855-.242 1.71-.38 2.567a71.913 71.913 0 0 0-.385 2.609 66.962 66.962 0 0 1-.223 1.61c-.173 1.188-.346 2.373-.383 3.567a9.567 9.567 0 0 0 .383 5.315c.255 1.159-.223 2.445-1.574 3.699-.395-.079-.762-.128-1.114-.175a11.62 11.62 0 0 1-1.171-.197c-.332-.079-.698-.084-1.081-.09-.44-.007-.904-.014-1.364-.133-.156.21-.344.348-.534.488-.185.137-.371.274-.53.479-.405.509-.857.978-1.35 1.404a.99.99 0 0 1-.552-.745 2.976 2.976 0 0 1-.84-.605 5.316 5.316 0 0 1-3.19-4.019c-.222-1.732-.307-3.624-.382-5.506a41.458 41.458 0 0 1 .447-8.504c.255-1.826.645-3.781 1.033-5.734.193-.969.385-1.936.561-2.887.176-.743.313-1.45.45-2.156.126-.657.252-1.314.411-2a59.58 59.58 0 0 0 .416-1.999c.14-.711.28-1.422.456-2.168.07-.137.11-.273.15-.409.043-.149.085-.297.169-.441.15-.26.168-.79.187-1.337l.004-.109a15.16 15.16 0 0 1-2.583-.234c-.44-.087-.882-.138-1.343-.19-.44-.052-.896-.104-1.389-.192h-.712c-.287 0-.436 0-.574-.17a4.72 4.72 0 0 1-1.69-1.064 2.19 2.19 0 0 0-2.127-.5 1.52 1.52 0 0 0-1.063-1.487c-.698-.318-.68-.888-.649-1.89v-.874a1.786 1.786 0 0 1-.116-.872c.16 0 .278-.043.376-.08a.517.517 0 0 1 .208-.047.453.453 0 0 0 .198-.05.856.856 0 0 1 .377-.078 16.878 16.878 0 0 0 2.391-2.232 14.947 14.947 0 0 1 2.222-1.945.66.66 0 0 1 .883-.256c.287 0 .563.17.542.745 0 .16.043.277.08.376a.516.516 0 0 1 .047.208.66.66 0 0 1 0 .723c.222-.14.443-.243.666-.345.216-.1.433-.2.652-.335a8.395 8.395 0 0 1 1.064-.543 6.97 6.97 0 0 1 1.998.5c.63.061 1.253.182 1.86.362a2.945 2.945 0 0 0 2.382-2.126 9.28 9.28 0 0 0 .67-2.722c.084-.43.21-.895.334-1.36.125-.465.25-.93.335-1.36.33-1.149-.223-1.744-1.52-1.787.145.61.366 1.2.66 1.754-.128.176-.303.35-.518.564-.305.303-.688.685-1.13 1.264l-.128-.446a2.498 2.498 0 0 0-2.243-1.807 3.104 3.104 0 0 1-1.818-1.797 36.785 36.785 0 0 1-1.754-3.39 31.24 31.24 0 0 0-1.892-3.678.787.787 0 0 1 .733-.404c.18 0 .306-.102.443-.212.09-.072.184-.148.301-.203-.149 0-.149 0-.138-.149.01-.138.002-.139-.12-.147l-.029-.002a.138.138 0 0 1-.138-.148c-.38.404-.902.645-1.456.67a2.061 2.061 0 0 1-1-.32 1.222 1.222 0 0 1-.701-.744c-.055-.059-.11-.112-.163-.164-.212-.208-.388-.38-.38-.729-.138-.148-.138-.148-.138-.287a.85.85 0 0 1 .468-.85c.204-.3.524-.5.883-.553a1.43 1.43 0 0 0 .371-.276 1.44 1.44 0 0 1 .373-.276.967.967 0 0 0-.117-.872c-1.914 1.233-3.636 1.063-4.89-.308a60.59 60.59 0 0 1-5.539-6.56 12.649 12.649 0 0 1-2.254-5.57 8.504 8.504 0 0 1 .479-5.622 23.386 23.386 0 0 1 3.37-5.666 26.332 26.332 0 0 1 6.856-6.378 140.58 140.58 0 0 1 7.814-4.784 55.275 55.275 0 0 1 8.504-3.752c.878-.29 1.77-.61 2.68-.936 1.954-.7 3.98-1.426 6.07-1.934A133.369 133.369 0 0 1 54.075.904 76.11 76.11 0 0 1 71.234.627a54.708 54.708 0 0 1 12.969 2.615A32.381 32.381 0 0 1 95.089 9.26a17.107 17.107 0 0 1 4.975 6.101 10.043 10.043 0 0 1 1.626 7.282 24.79 24.79 0 0 1-2.583 7.866 88.497 88.497 0 0 1-14.256 20.027c-.153.219-.343.359-.536.501-.182.134-.367.27-.527.477a9.75 9.75 0 0 1-.754.978 6.77 6.77 0 0 1 .664-.335c.22-.101.441-.202.664-.335l.025-.012zm0 0c.404-.194.76-.477 1.038-.829.417-.43.83-.865 1.239-1.303-.51.497-1.03.984-1.558 1.463-.238.222-.478.445-.72.668zM5.526 26.967a11.14 11.14 0 0 0 4.815-5.9 5.581 5.581 0 0 0-3.114 2.488 28.252 28.252 0 0 0-1.701 3.412zM7.322 71.4a3.125 3.125 0 0 1 1.063-2.562c.436-.127.628-.489.787-.914.08-.212.194-.425.308-.638a5.31 5.31 0 0 0 .309-.637h-.574a6.06 6.06 0 0 1-.657.688 3.99 3.99 0 0 0-.534.566c-.152.21-.337.382-.54.572a6.217 6.217 0 0 0-.661.693c-.744.553-1.19 1.116-.925 1.552.313.525.398 1.155.234 1.743l1.19-1.063zm4.816-27.436c.298-.058.59-.143.872-.255-.411-.304-.55-.453-.415-.446-.425 0-.712 0-.585.414-.01.139-.01.287.128.287zm4.922-17.082c.235-.31.441-.641.617-.988v.053a.328.328 0 0 1 .111.019c.046.021.079.071.165.204h.138a1.647 1.647 0 0 0-.457.85c-.197.183-.268.37-.34.56-.037.096-.074.194-.128.29h-.712c.228-.312.43-.643.606-.988zm2.109 2.193c.212-.263.351-.435.442-.513a7.3 7.3 0 0 0 .49-1.712c-.452.475-.858.99-1.213 1.541-.12.173-.265.32-.406.464-.206.21-.402.41-.497.663.078.085.112.121.154.139a.426.426 0 0 0 .133.02.448.448 0 0 1 .276.203v-.053c.257-.303.46-.553.62-.752zm-2.881 16.877a2.548 2.548 0 0 1-.036-.021v.053l.018-.016.018-.017zm0 0c.253.142.529.243.814.298.348.062.684.173 1 .33a1.86 1.86 0 0 0-.67-1.33c-.421.163-.809.4-1.144.702zM45.21 57.847a90.029 90.029 0 0 1 6.049-3.986c1.951-1.173 3.932-2.596 5.777-3.922l.282-.203c3.264-2.636 6.527-5.315 9.663-8.333a97.58 97.58 0 0 0 8.239-8.962 41.515 41.515 0 0 0 3.806-5.655 21.792 21.792 0 0 0 2.37-5.984 10.63 10.63 0 0 0-.255-5.07c-.531-1.319-1.658-2.222-3.646-3.02a14.12 14.12 0 0 0-4.72-1.169 31.894 31.894 0 0 0-5.188.106 55.671 55.671 0 0 0-9.238 1.16c-2.8.41-5.492 1.05-8.273 1.71l-1.167.277a91.55 91.55 0 0 0-18.986 6.994 34.51 34.51 0 0 0-5.145 2.998 26.29 26.29 0 0 0-4.337 4.475c-1.212 1.552-1.69 2.977-1.064 4.444a3.338 3.338 0 0 1-.116 3.465c.361.143.749.208 1.137.191.446-.127.585-.127.585 0a2.87 2.87 0 0 0 1.063 1.478 4.83 4.83 0 0 1 1.254 1.2c.265.193.41.558.549.906.084.21.165.416.27.572.276.415 0 1.297-.51 2.297a3.85 3.85 0 0 0 1.296-.107 1.19 1.19 0 0 1 1 .181 3.859 3.859 0 0 1 1.796 2.232 1.988 1.988 0 0 0 2.126 1.372 32.84 32.84 0 0 1 .808-2.424c.601-1.61 1.28-3.27 1.957-4.921v-.001c.52-1.27 1.04-2.536 1.52-3.773a90.417 90.417 0 0 1 4.06-8.823 37.597 37.597 0 0 1 1.988-3.402c.413-.57.854-1.17 1.298-1.773.539-.733 1.082-1.471 1.583-2.17a2.594 2.594 0 0 1 1.063-1.404 2.041 2.041 0 0 1 2.041-.51c.225.976.085 2-.393 2.88-.21.292-.403.568-.596.845v.002a39.68 39.68 0 0 1-1.222 1.684 6.718 6.718 0 0 0-1.743 4.57 1.82 1.82 0 0 1 .755-.988c.167-.304.428-.547.744-.69.344-.56.729-1.068 1.135-1.605.32-.424.653-.865.99-1.362.76-.95 1.47-1.94 2.127-2.965.22-.27.436-.507.652-.741.233-.255.466-.508.698-.8a1.67 1.67 0 0 1 1.882-.224c.144.321.144.689 0 1.01a1.69 1.69 0 0 0 .106 1.159 21.725 21.725 0 0 1 1.924-1.52c.388-.026.762.151.989.467.25.226.397.545.404.882.102.262.237.508.404.734a1.34 1.34 0 0 0 1.297 0c-1.77 4.227-3.669 8.478-5.569 12.731v.002a1161.95 1161.95 0 0 0-2.883 6.486 158.18 158.18 0 0 0-7.314 19.538 22.163 22.163 0 0 1 2.552-1.18 11.7 11.7 0 0 1 2.126-1.361zm-24.374-15.7c-.147.102-.324.225-.427.425l.02-.723a2.01 2.01 0 0 1 1.17-.245c-.149-.01-.149.139.128.298a1.254 1.254 0 0 0-.723.117 1.584 1.584 0 0 1-.168.127zm9.597 55.987a.808.808 0 0 1-.117-.871 2.37 2.37 0 0 0-.106-1.063c.158-.352.276-.704.395-1.055.12-.36.241-.717.402-1.071a12.56 12.56 0 0 1 .798-2.126h.287a55.57 55.57 0 0 0-1.212 5.9l-.447.286zM47.09 28.081c-.144.337-.306.718-.55 1.098v-.053c0-.149-.139-.149-.574.043.138-.198.249-.459.374-.752.144-.337.306-.717.55-1.098.367-.584.68-1.2.936-1.84h.574c-.366.588-.68 1.207-.935 1.85-.14.198-.25.459-.375.752zm-4.707 29.14c.193-.468.356-.947.49-1.435.113-.489.274-.966.477-1.425h.288c-.184.467-.344.942-.479 1.425a7.91 7.91 0 0 1-.489 1.435h-.287zm2.848-7.471a5.07 5.07 0 0 0-.297.615h.287a1.19 1.19 0 0 0 .468-.989h-.287c-.005.067-.079.203-.17.374zm1.925-5.37c.638-1.573 1.255-2.849 2.03-4.412.389-.78.702-1.493 1.016-2.205.313-.712.627-1.425 1.015-2.206.052-.1.087-.183.118-.253.055-.13.094-.22.19-.31.182-.26.443-.454.745-.553-.419.822-.807 1.677-1.192 2.522-.475 1.045-.944 2.076-1.456 3.016-.673 1.239-1.2 2.642-1.74 4.08h-.001c-.202.537-.405 1.078-.619 1.618-.323.362-.54.808-.627 1.286h-.574c.092-.451.253-.885.479-1.286.386-.327.61-.806.616-1.31v.013zm0-.053zm4.754-16.392c-.04.139-.08.277-.15.415h-.15c.199-.56.366-1.132.5-1.711h.287c-.191.166-.21.335-.23.507a.861.861 0 0 1-.089.343 2.032 2.032 0 0 0-.168.446zm-6.146 44.147c.185-.47.345-.949.478-1.435 0-.426-.266-.585-.978-.894a.872.872 0 0 1 .117.872c.084.479.212.948.383 1.403v.053zm7.154-39.788c-.169.775-.39 1.539-.659 2.285l.16-.287c.041-.077.095-.155.152-.236.146-.208.307-.439.315-.752.005-.216.086-.43.166-.64.082-.217.164-.432.164-.647a1.68 1.68 0 0 0 .457-.86c.006-.162.102-.32.214-.502.087-.143.184-.3.254-.487h-.575c-.279.688-.496 1.4-.648 2.126zm2.679-6.559c.067 0 .102 0 .12.017.018.018.018.056.018.132.03.32-.087.637-.319.86-.27.263-.437.614-.468.99h-.574l1.223-1.999zm-4.082 41.946v.5a12.04 12.04 0 0 1-1.308-.213c.16 0 .16-.15.16-.287h1.148zm14.691-19.623a19.285 19.285 0 0 0 4.582-3.19c1.488-1.392 2.977-2.784 4.476-4.326a51.798 51.798 0 0 0 3.763-4.634 25.588 25.588 0 0 0 2.615-4.826 99.416 99.416 0 0 1-7.218 8.706c-1.93 2.106-4.017 4.14-6.148 6.215l-.005.004c-.685.667-1.374 1.34-2.065 2.019v.032zm17.355-9.6c-.042-.016-.076-.053-.154-.137a16.764 16.764 0 0 0 1.669-2.254c.422-.498.776-1.002 1.162-1.553.157-.224.32-.457.496-.7a.425.425 0 0 0 .287.149c.064.004.1.007.133.02.042.018.076.055.154.14-.166.23-.322.451-.472.665-.396.565-.758 1.079-1.197 1.588-.466.54-.844 1.08-1.27 1.687-.127.182-.26.37-.399.566a.468.468 0 0 0-.276-.16c-.065 0-.101 0-.133-.011zm-2.567 15.244a7.536 7.536 0 0 1 1.063-1.7 1.924 1.924 0 0 0-1.063 1.743v-.043zm11.52-18.454l.386-.499v.043a21.483 21.483 0 0 1-2.764 5.06c-1.35 1.403-2.7 2.795-4.189 4.188.552-.77 1.1-1.479 1.636-2.17.64-.828 1.261-1.63 1.84-2.475.95-1.386 2.017-2.763 3.09-4.147zm47.648 54.372c1.457-.233 2.19-.786 2.382-1.934a1.127 1.127 0 0 1 .999-1.212 2.189 2.189 0 0 0-1.063-1.477c-1.127-.617-2.254-1.244-3.391-1.999-1.138-.754-2.265-1.37-3.402-1.987.126-.34.188-.7.181-1.063-.078-.168-.011-.372.062-.596.057-.175.118-.362.118-.552l.108-.284.082-.215.003-.008c.613-1.612 1.119-2.94 1.572-4.628.408-1.519.908-2.84 1.425-4.204l.001-.001.349-.929c.226-.45.388-.93.479-1.424a1.936 1.936 0 0 0-.521-1.605 66.38 66.38 0 0 1-2.828 6.686 9.362 9.362 0 0 0-.978 2.997 5.84 5.84 0 0 1-1.839 3.104 6.72 6.72 0 0 1 .957-2.71c.319-.85.638-1.701.967-2.85.161-.56.325-1.192.489-1.822.171-.658.342-1.317.51-1.897a86.19 86.19 0 0 0 1-3.86c.147-.202.262-.47.393-.773.143-.331.303-.703.542-1.076a11.07 11.07 0 0 0 .946-1.786 7.257 7.257 0 0 1 1.116-3.284c.2-.72.45-1.371.689-1.994.156-.406.308-.8.438-1.195.369-1.155.902-2.25 1.584-3.253.477-1.044.806-2.15.978-3.285.096-.648.189-1.259.282-1.87.093-.611.186-1.223.282-1.871A6.38 6.38 0 0 0 148.678 41a17.62 17.62 0 0 1 2.476-4.678 16.09 16.09 0 0 0-1.275 3.126 30.549 30.549 0 0 1-1.552 3.125 23.337 23.337 0 0 1-1.297 3.38l-.097.236c-.434 1.057-.862 2.097-1.317 3.028-.239.487-.5.973-.761 1.457a39.065 39.065 0 0 0-.791 1.519 6.488 6.488 0 0 0-.681 3.189 29.522 29.522 0 0 0 2.626-4.815 133.69 133.69 0 0 0 1.521-3.409c.693-1.592 1.404-3.223 2.242-4.925.764-2.05 1.611-4.025 2.411-5.888.37-.862.729-1.7 1.066-2.51a28.112 28.112 0 0 0 1.775-5.315 27.546 27.546 0 0 1-1.541 2.838c-.212.384-.451.766-.707 1.174-.311.496-.646 1.03-.984 1.654l-.978-1.063a.989.989 0 0 0-.542-.893c.077-.272.119-.514.162-.757.045-.26.09-.52.178-.816.091-.307.137-.614.185-.941v-.002c.042-.285.087-.586.166-.917.192.198.384.27.573.339.093.034.186.068.278.118.231.266.523.473.85.605.169-.582.382-1.15.638-1.7.172-.322.298-.596.404-.826v-.001c.083-.18.153-.333.223-.46a10.628 10.628 0 0 1 1.127-3.274 6.64 6.64 0 0 1 2.126-2.668c1.052-1.456 1.382-2.413.702-3.582 1.754-.52 2.508-1.648 2.275-3.104a3.46 3.46 0 0 1 .924-1.552 10.46 10.46 0 0 0 1.808-2.732c.089-.495.212-.99.336-1.485.126-.506.253-1.013.344-1.523a.67.67 0 0 0-.117-.872 1.4 1.4 0 0 0-.542-1.063 4.015 4.015 0 0 0-2.381 2.222 4.872 4.872 0 0 1-2.254 2.381l1.541-2.838c.406-.831.868-1.634 1.382-2.402-1.966-1.372-3.093-2.126-3.667-2.297-.464-.137-.922.108-1.641.493-.171.091-.356.19-.56.294-.244-1.307-.499-2.2-.935-2.2a17.09 17.09 0 0 0-3.806 1.318c-.276-.163-.415-.312-.415-.447a.765.765 0 0 0-.414-.595L149.347.5c-.149-.011-.276-.16-.276-.447-.714.138-1.42.312-2.116.521-.487.376-.939.795-1.35 1.254-1.063 1.117-2.126 2.094-3.189 3.072a29.605 29.605 0 0 0-3.008 3.19c-1.51 1.877-3.076 3.732-4.583 5.515-.753.892-1.491 1.766-2.2 2.616-.404.486-.815.975-1.228 1.467l-.001.001c-1.756 2.093-3.557 4.239-5.149 6.398-8.069 10.258-15.776 20.506-23.387 30.944C95.248 65.47 87.68 75.866 80.365 86.73a7.208 7.208 0 0 1-4.741 3.295 153.68 153.68 0 0 0-15.797 5.315 29.176 29.176 0 0 0-3.678 1.892 39.199 39.199 0 0 1-3.7 2.466 2.062 2.062 0 0 0-1.254 2.7c.21.262.516.43.85.468.306.011.566.104.806.189.219.078.422.151.63.151-.607.989-.915 1.69-.787 1.988.127.297.701.489 1.573.489a2.923 2.923 0 0 1 1.584.202 7.89 7.89 0 0 0 1.712.489c.505.052.993.219 1.424.489.349.206.764.271 1.159.18a25.15 25.15 0 0 0 3.476-.308c.695-.13 1.39-.218 2.104-.308.632-.08 1.28-.162 1.957-.277-.317.4-.564.799-.844 1.251-.114.186-.235.381-.368.588a9.552 9.552 0 0 1-1.063 2.126c-.532.92-1.063 1.911-1.595 2.902a103.69 103.69 0 0 1-1.594 2.902 35.584 35.584 0 0 0-2.807 6.017 11.085 11.085 0 0 0-1.137 3.71 5.09 5.09 0 0 0 .457 3.337c.64-.065 1.274-.19 1.892-.372a1.33 1.33 0 0 0 .106 1.159c.079.273.212.439.336.592.079.098.153.19.207.301.106.22.211.271.384.355.053.026.112.054.179.091.287.16.585.022.882-.403.366-.194.674-.479.893-.83.191-.177.514-.59.959-1.162.249-.319.535-.687.86-1.091.105 1.02.233 1.605.52 1.754.396.203.848.27 1.286.191.48-.096.97-.128 1.457-.096.328.135.58.407.69.745.206-.316.41-.574.6-.814.232-.293.443-.561.613-.877.33-.66.505-1.387.51-2.126a6.932 6.932 0 0 1 1.456-4.422l1.411-2.234c-.116.21-.222.427-.316.651a65.26 65.26 0 0 0-.533 1.232c-.286.672-.579 1.361-.93 2.093a21.616 21.616 0 0 1 2.016-3.304 36.87 36.87 0 0 0 2.126-3.104v-.001.001-.032c.326-.457.569-.958.797-1.427.195-.403.38-.783.596-1.092.433-.987.952-1.933 1.552-2.828-.325.356-.623.739-.915 1.115-.131.169-.261.336-.392.498.383-.577.768-1.153 1.158-1.73.546-.807 1.093-1.623 1.64-2.444a6.3 6.3 0 0 0-.13.403 5.124 5.124 0 0 0-.776 1.563c.32-.493.675-.961 1.063-1.403.356-.55.758-1.069 1.2-1.552a.79.79 0 0 0-.499-.303c.36-.54.719-1.082 1.078-1.624v-.002h.001v-.001l.001-.001.001-.001v-.001l.001-.001.001-.001v-.001l.001-.001v-.001l.002-.001v-.002l.002-.001v-.002l.001-.001.001-.001v-.001c.701-1.058 1.402-2.115 2.102-3.164.143.327.4.327.656.327.237-.488.5-.964.787-1.424.083-.293.206-.588.329-.883l.085-.207a.765.765 0 0 0 .471-.337l.03-.051v-.297a7.785 7.785 0 0 1 2.933-1.34 13.415 13.415 0 0 1 2.924-.765c1.134-.287 2.209-.548 3.278-.807h.003v-.001h.004v-.001c1.263-.306 2.519-.61 3.859-.956 2.477-.638 4.805-1.137 7.282-1.626a35.106 35.106 0 0 1 4.507-.85c.582-.086 1.184-.151 1.798-.218h.001c1.069-.117 2.176-.237 3.282-.473-.008.239-.067.478-.123.707-.079.32-.153.622-.079.877.08.273-.011.542-.09.775-.047.14-.09.266-.09.373-.37 1.683-.779 3.327-1.184 4.952v.001l-.001.001v.003l-.001.001v.004l-.001.001v.003h-.001v.004h-.001c-.35 1.407-.697 2.8-1.012 4.192l-.327 1.438-.005.026-.003.009v.003l-.001.001c-.565 2.479-1.114 4.887-1.567 7.399a33.464 33.464 0 0 0-.467 5.315 34.67 34.67 0 0 1 0 5.315c.19.26.324.557.393.872.138.447.276.595.414.595.745-.404 1.18-.531 1.308-.095.08.461.321.879.68 1.18.076 0 .149.041.221.082a.448.448 0 0 0 .205.077 1.07 1.07 0 0 1 .574.159c.32-.492.676-.961 1.063-1.403.344-.283.648-.612.903-.978a41.85 41.85 0 0 1 2.722.521c.728.151 1.44.372 2.126.659a5.46 5.46 0 0 0 1.063-1.7c.01-.27.055-.539.1-.808.051-.305.102-.61.102-.915a33 33 0 0 0 .425-3.879 20.65 20.65 0 0 1 .436-4.178c.85-3.614 1.69-7.016 2.679-10.63a292.975 292.975 0 0 0 2.679-10.63 8.731 8.731 0 0 1 1.414-2.976c.297-.425 1.467-.67 3.061-.904a5.059 5.059 0 0 1 1.446-.095h1.446c.284-.111.506-.078.746-.04.128.02.261.04.413.04.484.037.971.005 1.445-.096zm-53.703 11.491c.155-.208.303-.42.444-.637-.061.203-.14.407-.224.611a.75.75 0 0 1-.095.016.698.698 0 0 0-.124.01zm-1.05 1.282l.59-.877c.126-.243.252-.371.46-.405-.196.263-.402.519-.62.766a6.472 6.472 0 0 1-.43.516zm0 0l-.086.096a7.112 7.112 0 0 0-.546.653.938.938 0 0 0 .045.13l.588-.879zm-3.779 5.687a.84.84 0 0 0-.212-.006 6.274 6.274 0 0 0-.647 1.298c.287-.429.573-.86.86-1.292zm-5.163 7.766c.138-.499.37-.973.688-1.394a8.5 8.5 0 0 0 .82-.906 289.73 289.73 0 0 0-1.508 2.3zm-.133 1.436c-.04-.487.006-.973.133-1.436a409.961 409.961 0 0 0-2.072 3.233 6.737 6.737 0 0 0-.422.665l.264-.415.158-.25a6.676 6.676 0 0 1 1.939-1.797zm0 0l.002.029v-.031l-.002.002zm-10.867-.626c-1.18 2.024-2.372 4.069-3.78 6.173.1-1.388.431-2.75.978-4.029a52.182 52.182 0 0 1 2.637-5.102 34.15 34.15 0 0 1 3.189-4.943 9.92 9.92 0 0 1 3.189-3.189c-1.393 2.838-3.083 5.814-4.773 8.642-.487.814-.962 1.629-1.44 2.448zm.993 6.056c.186-.396.37-.746.544-1.077.265-.504.508-.965.7-1.485.266-.73.582-1.44.946-2.126 0-.142-.126-.149-.52-.167l-.054-.003a18.362 18.362 0 0 1-1.063 2.275c-.242.451-.407.904-.571 1.358a11.12 11.12 0 0 1-.492 1.204l.51.021zm4.796-1.576c-.462.84-.927 1.684-1.362 2.554.07-.876.244-1.739.52-2.573.5-1.137.947-2.136 1.564-3.412a21.89 21.89 0 0 1 2.009-3.54 28.724 28.724 0 0 1 2.264-2.806 49.866 49.866 0 0 1-3.104 6.102c-.56 1.256-1.222 2.461-1.89 3.675zm7.717-13.115c.074-.069.111-.141.148-.212.038-.072.075-.144.15-.213a.915.915 0 0 0 .143-.185c.063-.098.139-.216.313-.378-.148 0-.287 0-.287-.149-.032.059-.057.113-.08.162-.086.178-.14.293-.366.401l-.457.415c.138.062.285.105.436.127v.032zM145.478 7.675a8.827 8.827 0 0 1 1.201-1.116 1.583 1.583 0 0 0 .34-1.574c-1.329.819-3.731 3.328-7.346 7.537-3.226 3.758-6.707 8.075-10.639 12.952l-.021.025-1.416 1.756c-4.529 5.613-9.227 11.81-14.234 18.56a690.095 690.095 0 0 0-13.82 18.57c-1.402 1.948-2.736 3.79-4.005 5.54l-.002.004-.001.002-.001.001c-2.578 3.558-4.883 6.738-6.92 9.665-3.04 4.369-4.879 7.047-5.315 8.047.585 0 1.01 0 1.17-.255.26-.362.563-.69.903-.978a29.005 29.005 0 0 0 2.424-3.38 28.464 28.464 0 0 1 2.424-3.19c5.19-6.927 10.171-13.662 15.125-20.36l.006-.008 2.941-3.974c1.094-1.486 2.187-2.975 3.283-4.468l.001-.002.002-.001c5.442-7.413 10.934-14.894 16.721-22.263a208.27 208.27 0 0 1 7.696-9.26l9.483-11.83zm-45.786 69.88a15.802 15.802 0 0 1 1.945-2.125 33.38 33.38 0 0 1-2.764 4.688 24.63 24.63 0 0 1-4.071 4.91 6.44 6.44 0 0 1 .786-1.849 21.9 21.9 0 0 1 1.829-2.817l.05-.065.001-.001c.748-.966 1.486-1.92 2.224-2.74zm29.733-23.82a4.816 4.816 0 0 1 1.542-2.828c.09-.523.108-1.056.053-1.584a1.89 1.89 0 0 1 .298-1.435 16.684 16.684 0 0 1 1.116-3.19 18.551 18.551 0 0 0 1.276-3.273 2.13 2.13 0 0 0 .191-1.435h-.574c-1.361 1.684-2.756 3.366-4.151 5.049l-.002.002a509.914 509.914 0 0 0-4.15 5.047 663.02 663.02 0 0 0-2.526 3.157c-1.89 2.372-3.8 4.77-5.776 7.09h-.723l.652-.818c1.93-2.42 3.931-4.928 5.726-7.335a94.868 94.868 0 0 0 6.07-8.015 432.91 432.91 0 0 0-16.264 19.942 1581.84 1581.84 0 0 1-4.534 5.86h-.001c-3.682 4.743-7.414 9.55-11.06 14.528 3.323-.473 6.571-.902 9.747-1.322 4.597-.607 9.042-1.194 13.342-1.867.219-.4.38-.83.479-1.275.064-.323.223-.62.457-.85.749-2.19 1.423-4.435 2.098-6.683.635-2.119 1.272-4.24 1.973-6.318 1.243-2.86 2.359-5.928 3.497-9.055l.001-.002a510.51 510.51 0 0 1 1.243-3.39zm-25.502 18.261c.484-.38.935-.8 1.35-1.254v.053a12.322 12.322 0 0 1-1.988 3.051 1.86 1.86 0 0 1 .638-1.85zm5.432-2.317c.08-.212.194-.39.308-.569.114-.178.229-.356.308-.568.169-.303.372-.585.606-.84h.139s0 .149.148 0c-.074.13-.179.258-.284.389h-.001c-.12.148-.241.298-.321.45-.234.364-.44.744-.616 1.138h-.287zm2.87-9.12a10.753 10.753 0 0 1 2.126-1.51l-.042.085a9.707 9.707 0 0 0-1.233 1.882c-.321.5-.637.926-1.01 1.43-.158.215-.327.442-.511.696a5.02 5.02 0 0 1 .67-2.583zm2.476-2.045c.251-.178.463-.327.575-.592.121-.284.351-.563.582-.844.115-.14.23-.28.332-.42-1.488.605-2.232 1.307-1.977 2.327V58.9c.169-.16.336-.278.488-.386zm-.35 4.575a1.89 1.89 0 0 0-.457.701v.01c.138.128.287.139.436 0 .075-.069.115-.177.155-.285.04-.107.08-.215.153-.288.279-.216.489-.508.606-.84h-.287c-.248.19-.455.428-.606.702zm3.455 37.651c.067-.062.161-.094.245-.123.105-.036.196-.066.202-.143a3.18 3.18 0 0 1 .489-1.86.809.809 0 0 1-.872.106l-.064 2.02zm2.047-5.431c-.031.01-.064.01-.123.01v.084c-.542-1.02-.372-1.743.957-2.646.072.168.005.374-.069.6-.057.174-.118.359-.122.548a3.492 3.492 0 0 1-.105.674 2.38 2.38 0 0 0-.076.474.536.536 0 0 0-.298.138c-.086.074-.122.105-.164.118zm5.193-19.581zm.004-.087c.017-.279.062-.525.104-.755.038-.208.073-.402.083-.593.009-.188.079-.405.154-.638.094-.295.197-.615.197-.936h.138c-.011.294-.091.548-.171.8-.08.25-.159.499-.169.784-.011.3-.104.56-.19.801-.067.188-.13.363-.146.537zm1.501-4.83l-.038.059-.011.085c.053-.05.07-.1.049-.144zm.962-4.698a9.28 9.28 0 0 0-.107-.112 15.92 15.92 0 0 0-.649 2.286c-.168.374-.256.79-.348 1.226-.084.392-.17.8-.322 1.208.273-.034.427.015.464.09.351-.524.743-1.02 1.174-1.483a6.172 6.172 0 0 0 1.211-1.541 18.857 18.857 0 0 0-1.298-1.543.873.873 0 0 1 .661.012h.861c.154-.362.362-.699.616-.999.133-.273.239-.558.319-.85a5.315 5.315 0 0 1 .436-4.167 16.783 16.783 0 0 1 2.296-3.816 2.826 2.826 0 0 0 1.063-2.126 9.262 9.262 0 0 0 .67-2.711 6.794 6.794 0 0 1 1.244-2.562c.629-.65.778-1.626.372-2.434a6.4 6.4 0 0 1 .053-1.595 1.68 1.68 0 0 1 1.063-1.063 6.928 6.928 0 0 0 1.68-2.391 4.779 4.779 0 0 0 .085-2.456c-.138-.149 0-.425.616-1.127.398-.452.601-.913.821-1.412.12-.274.246-.56.412-.862a6.73 6.73 0 0 0 1.372-2.573l.01-.085c.776-1.414 1.563-3.263 2.35-5.113a9.92 9.92 0 0 0-3.296 3.19 19.793 19.793 0 0 0-2.126 3.826c-.278.688-.495 1.4-.648 2.126a4.423 4.423 0 0 1-.936 1.85 5.32 5.32 0 0 0-1.244 2.55 10.97 10.97 0 0 1-.818 2.722 14.16 14.16 0 0 1-1.244 2.551 8.526 8.526 0 0 0-1.244 2.551c-.447 1.977-1.082 3.885-1.697 5.733-.321.965-.637 1.913-.918 2.846-.494 1.643-1.147 3.379-1.8 5.114-.396 1.054-.793 2.108-1.154 3.14zm0 0l-.086.25a.857.857 0 0 1 .211-.118l-.055-.058-.07-.074zm-5.859 40.686a9.81 9.81 0 0 1 .341-1.722.466.466 0 0 0-.287.127 13.361 13.361 0 0 1-.351 1.584l.297.011zm2.775-9.355c0-.312.098-.621.188-.909.076-.24.147-.465.152-.664a9.208 9.208 0 0 1 .489-1.573 10.97 10.97 0 0 0 .202-1.573c0-.075-.069-.149-.172-.26a2.99 2.99 0 0 1-.381-.484 18.41 18.41 0 0 0-.818 2.678c-.176.474-.306.948-.443 1.445v.001c-.112.406-.228.827-.376 1.276l1.159.064zm4.458-18.492c.161-.675.247-1.037.134-1.3l.575-.117a1.736 1.736 0 0 1-.192 1.435c-.138-.01-.297.01-.297.138 0 .127-.149.127-.287.127l.067-.283zm1.07-3.288l.021-.054-.006.025-.011.045-.004.016v-.032zm.021-.054c1.657-4.181 3.314-8.4 4.97-12.617 1.664-4.236 3.327-8.472 4.991-12.67a272.943 272.943 0 0 1 11.428-25.151 4.358 4.358 0 0 1 2.02.35 6.777 6.777 0 0 1-.532-1.605 4.128 4.128 0 0 1-.095-1.297c.152-.41.306-.851.46-1.293.17-.486.34-.972.507-1.417.223-.593.517-1.332.769-1.962l.001-.002.293-.736c.198-.503.455-.981.765-1.425a5.796 5.796 0 0 1 .925-1.552 4.772 4.772 0 0 0-2.54 2.51 25.555 25.555 0 0 1-2.626 4.676 23.114 23.114 0 0 0-2.626 4.954c-.296.697-.572 1.374-.842 2.039-.447 1.1-.879 2.163-1.369 3.223-.467 1.008-.929 2.02-1.393 3.034-.318.696-.636 1.393-.956 2.09-.213.45-.398.93-.578 1.402h-.001c-.216.564-.427 1.115-.676 1.584-.42.924-.775 1.876-1.063 2.85-.157.323-.313.638-.468.948-.453.91-.887 1.78-1.243 2.74-.461 1.237-1.02 2.328-1.648 3.554h-.001l-.074.145a10.45 10.45 0 0 1-1.243 2.551 9.29 9.29 0 0 0-1.063 2.275 6.268 6.268 0 0 1-.383 2.87 17.859 17.859 0 0 0-.957 2.562c-.299 1.037-.627 2.044-.958 3.062-.399 1.225-.802 2.465-1.168 3.794-.335 1.217-.699 2.36-1.063 3.503a90.48 90.48 0 0 0-1.063 3.502c-.021.177-.105.39-.205.647a7.517 7.517 0 0 0-.295.862zm-2.224 21.147c.117-.102.243-.21.375-.333a2.41 2.41 0 0 0-.192 1.435 7.34 7.34 0 0 1-.499 1.712 1.531 1.531 0 0 1-.511-1.744c.108-.447.415-.713.827-1.07zm.789-3.926v1.148h.723a1.141 1.141 0 0 1-.128-.585v-.574l-.595.011zm15.935-67.436c.332-.317.593-.701.766-1.127l.149-.287c.082 0 .148.067.148.149-.005.074-.008.112.01.13.017.019.054.019.129.019-.17.574-.617.988-.915 1.265a5.736 5.736 0 0 1-.235.202c-.261.216-.547.453-.668.776a.138.138 0 0 1-.138-.15 1.88 1.88 0 0 1 .285-.337c.176-.18.373-.383.469-.64zm-4.837 39.267l.002-.137c1.972-3.769 2.91-6.297 2.731-7.708a23.112 23.112 0 0 0-1.871 3.837 9.983 9.983 0 0 0-.86 3.871l-.055.105.053.032zm11.598-23.582c-.145.32-.305.67-.403 1.025l.297-.297c.315-.442.576-.92.776-1.425.368-.4.631-.887.766-1.414h-.574c-.1.357-.256.706-.399 1.024a8.847 8.847 0 0 0-.229.539c-.061.166-.145.351-.234.548zm3.332-5.83c-.061.113-.122.226-.185.339a1.264 1.264 0 0 1-.457.85h-.585c.054-.097.091-.194.128-.29.072-.19.143-.377.34-.56.298-.276.457-.712.457-.85h.585c-.097.167-.189.338-.283.511zm6.194-17.955a54.96 54.96 0 0 0 3.189-8.834 72.37 72.37 0 0 0-4.051 8.664c-.707 1.606-1.373 3.302-2.045 5.013-.52 1.323-1.043 2.655-1.59 3.958a72.383 72.383 0 0 0 4.497-8.801z" fill="#fff"/><path fill-rule="evenodd" clip-rule="evenodd" d="M238.974 57.646c.287 0 .585 0 .712.319a7.54 7.54 0 0 1-.328.886 8.404 8.404 0 0 0-.31.825c-.22.518-.529.993-.914 1.404a107.809 107.809 0 0 1-14.33 12.639 85.778 85.778 0 0 1-16.265 9.673c-2.509 1.212-5.145 2.275-7.643 3.189a61.819 61.819 0 0 1-7.899 2.466 8.256 8.256 0 0 0-2.636.914c-1.478.67-1.648 1.392-.819 2.424l-.041-.016c-.823-.308-1.247-.467-1.373-.75a2.565 2.565 0 0 0 .521 1.605c.277.298.861.32 1.744-.085.105.226.145.476.117.723 0 .287.127.436.414.596a28.978 28.978 0 0 1 3.785 3.454 14.944 14.944 0 0 0 4.093 3.189c.701.406 1.404.794 2.1 1.178 1.128.624 2.237 1.237 3.289 1.894 1.701 1.063 3.413 1.999 5.262 2.934a42.745 42.745 0 0 0 4.986 2.052c.787.223 1.543.475 2.309.731.911.304 1.837.613 2.847.884.838.4 1.645.862 2.413 1.382a4.05 4.05 0 0 1 1.223 2.36c-.543.347-.997.736-1.45 1.124h-.001v.001h-.001c-.434.372-.867.743-1.376 1.076a20.299 20.299 0 0 0-2.966 2.211c.169.473.297.96.383 1.456a2.021 2.021 0 0 0 .382 1.456c-.752.384-1.259.757-1.593 1.002a4.244 4.244 0 0 1-.331.231 10.04 10.04 0 0 1-2.615 0 1.893 1.893 0 0 1-.457.702c-.15.139-.227.282-.305.425-.077.141-.154.283-.301.425-.324 0-.641-.059-.934-.113-.236-.043-.456-.084-.65-.089a5.096 5.096 0 0 1-.702-.09 6.558 6.558 0 0 0-.882-.112 72.991 72.991 0 0 1-19.039-6.378 114.017 114.017 0 0 1-16.446-9.96 46.608 46.608 0 0 1-4.252-3.189c-.463-.348-.924-.71-1.386-1.073-.949-.746-1.901-1.494-2.866-2.116a10.035 10.035 0 0 0-1.701-.925 8.366 8.366 0 0 1-1.999-1.063 139.27 139.27 0 0 0-1.499 4.149c-.652 1.865-1.29 3.689-2.019 5.418-.676 1.601-1.269 3.28-1.869 4.975-.523 1.48-1.05 2.971-1.64 4.433a3.668 3.668 0 0 0-1.456.095c-.468.989-.34 1.425.245 1.308.344-.069.633.006.932.084.209.054.422.109.662.118a2.53 2.53 0 0 0-.361 1.998c.265.596-.192 1.297-1.063 2.126a.958.958 0 0 1-.543-.882c-.276-.298-.425-.446-.712-.457-.861 0-1.297-.191-1.275-.617.016-.332-.065-.678-.162-1.093a27.174 27.174 0 0 1-.083-.363c.073-.438.187-.869.34-1.286a.893.893 0 0 0-.255-1.159c-.276-.159-.266-.595-.096-1.307.219-.681.485-1.345.798-1.988-.755.382-1.467.842-2.126 1.371a9.83 9.83 0 0 1-.16 4.603 11.457 11.457 0 0 1-2.902 4.379c-.574-.17-.85-.605-.542-1.063.162-.365.272-.752.329-1.148a4.253 4.253 0 0 1 .798-1.987 2.13 2.13 0 0 0 .202-1.871 16.97 16.97 0 0 0-1.637 1.392c-.517.495-1.064.956-1.638 1.382a2.201 2.201 0 0 1-.659-1.903 8.349 8.349 0 0 1 .5-1.998c.174-.894.311-1.759.445-2.607.145-.916.287-1.814.469-2.708a38.283 38.283 0 0 1 1.34-5.315 379.034 379.034 0 0 1 3.742-11.852c1.286-3.848 2.593-7.845 3.89-11.842a8.58 8.58 0 0 0 .277-3.88 5.477 5.477 0 0 1 .383-2.594 5.31 5.31 0 0 1 2.126-2.519c.102-.142.22-.266.338-.39.236-.246.47-.492.576-.875.169-.515.433-.994.776-1.414l9.716-25.352c.325-1 .646-1.961.968-2.923.321-.962.643-1.924.967-2.923.649-1.999 1.297-3.86 2.126-5.847a2.55 2.55 0 0 0-2.774.627 9.973 9.973 0 0 1-2.796 1.34c.573-.427 1.12-.888 1.637-1.382.417-.39.865-.746 1.339-1.063v-.287c-.358.162-.676.273-1.027.396h-.001c-.222.078-.458.16-.726.263a4.86 4.86 0 0 1-.708.316 7.21 7.21 0 0 0-1.056.481 38.071 38.071 0 0 0-3.7 2.445c-.625.487-1.386.967-2.148 1.449-.535.337-1.071.675-1.562 1.017a20.546 20.546 0 0 0-5.549 5.58c-.117.312-.388.538-.642.75-.092.077-.182.152-.262.229-.106.103-.232.203-.364.308-.237.188-.494.393-.699.659a14.38 14.38 0 0 1-.786-2.339 2.64 2.64 0 0 0-.957-1.615 1.52 1.52 0 0 1-.681-1.318c.092-.451.253-.885.479-1.287a4.6 4.6 0 0 1-.894-.11 3.558 3.558 0 0 0-.552-.081l-1.424-.053a1.726 1.726 0 0 0-.415-.595l-.415-.447c-.471-.4-.905-.84-1.297-1.318-.213-.155-.423-.379-.651-.621a7.681 7.681 0 0 0-.752-.729 22.485 22.485 0 0 1 5.379-8.908 58.95 58.95 0 0 1 8.643-6.91 77.203 77.203 0 0 1 22.324-9.758 772.465 772.465 0 0 0 10.631-2.657c2.588-.665 5.206-1.241 7.761-1.804.876-.193 1.746-.384 2.604-.577a98.44 98.44 0 0 1 15.499-1.627 56.66 56.66 0 0 1 14.67 1.67 18.405 18.405 0 0 1 5.56 2.646 54.413 54.413 0 0 1 5.071 3.646 22.5 22.5 0 0 1 5.581 6.113 41.544 41.544 0 0 1 3.785 7.632 19.855 19.855 0 0 1 1.063 6.537 36.203 36.203 0 0 1-.521 6.76 14.618 14.618 0 0 1-1.924 5.124c-.257.427-.514.87-.777 1.322l-.002.003-.001.002c-.189.326-.381.656-.578.99a.453.453 0 0 1-.056-.052h-.053c-.11.252-.215.506-.316.761-.217.358-.44.718-.673 1.078-.403.623-.75 1.246-1.091 1.858-.4.717-.79 1.417-1.251 2.082-.101.04-.203.089-.305.152-.281.35-.548.712-.802 1.082-.27.283-.541.569-.814.885a8.287 8.287 0 0 0-2.041 1.796zm2.855-2.681c-.198.29-.388.584-.569.885a16.54 16.54 0 0 1-1.51 1.966 9.555 9.555 0 0 0 2.668-1.924c.416-.738.807-1.364 1.307-2.164l.235-.376c-.219.13-.436.194-.652.258a4.454 4.454 0 0 0-.372.121 6.81 6.81 0 0 1-.114.163c-.303.35-.603.664-.903.978l-.09.093zm4.122-6.252a25.389 25.389 0 0 0-.588 1.652 11.219 11.219 0 0 0-.946 2.274 7.13 7.13 0 0 1 1.233-2.264l1.244-2.264-.031-.001c-.23-.008-.368-.014-.487-.107-.139.236-.28.472-.425.71zm-100.739-13.39c.223.162.414.364.563.596.164.23.299.48.404.744a44.485 44.485 0 0 1 8.983-8.345c2.093-1.595 4.124-3.128 6.178-4.68h.002l.01-.008.002-.002.004-.003c1.144-.863 2.295-1.732 3.467-2.62a19.844 19.844 0 0 0-6.761 2.795c-1.031.57-2.003 1.174-2.955 1.764-1.089.676-2.153 1.336-3.253 1.914a26.202 26.202 0 0 0-5.22 4.465c-.374.465-.76.94-1.152 1.422a172.84 172.84 0 0 0-3.1 3.893l.851.468c.344-.002.687.06 1.01.18.079-.218.196-.43.313-.643.117-.212.234-.425.314-.643-.128-.16.032-.723.34-1.297zm-2.796 5.39a11.485 11.485 0 0 0-.808 2.572 5.59 5.59 0 0 1 1.016.367c.228.1.448.197.696.27l.221-.163h.001c.639-.472 1.128-.833 1.128-1.09a1.628 1.628 0 0 0-.532-1.319 2.038 2.038 0 0 0-.861-.319 2.158 2.158 0 0 0-.414-.15 2.031 2.031 0 0 1-.447-.168zm.829 5.23a2.4 2.4 0 0 1-1.275-.776 8.226 8.226 0 0 1 1.488-1.063c.057.061.114.147.181.246.095.142.21.313.372.487.276.298-.022.553-.766 1.105zm8.837-9.144c-.192.209-.385.417-.577.64l.011-.011a7.612 7.612 0 0 1-1.754 1.36 3.402 3.402 0 0 0-1.382 1.978c.149.149 0 .287-.447.414a1.54 1.54 0 0 0-.871.255c0-.09.014-.195.028-.303.032-.235.066-.492-.028-.696-.076-.162-.104-.365-.134-.587-.026-.186-.053-.384-.111-.582a2.944 2.944 0 0 0 2.647-1.201c.14-.196.272-.384.399-.567.426-.607.804-1.147 1.27-1.687a4.646 4.646 0 0 1 3.997-2.455c-.239.276-.476.505-.713.733-.364.351-.727.701-1.094 1.223-.414.588-.827 1.037-1.241 1.486zm-.045 6.284l5.315-4.581a85.74 85.74 0 0 1 1.777-1.452c1.241-.996 2.482-1.992 3.602-3.12a.424.424 0 0 0 .149-.286c.003-.2.062-.396.17-.564-.288.175-.559.335-.814.486-.537.318-1.004.594-1.408.875-.258.18-.57.357-.901.546-.433.247-.899.512-1.32.825a2.605 2.605 0 0 1-.474.322 3.7 3.7 0 0 0-.706.497 1.543 1.543 0 0 1-1.18.542 1.956 1.956 0 0 0-1.914.935 18.41 18.41 0 0 1-1.222 1.69 3.813 3.813 0 0 0-1.212 1.552 10.74 10.74 0 0 1-.936 1.84c.34.103.655 0 .865-.067a.7.7 0 0 1 .209-.05v.01zm3.746-10.288c-.221.122-.454.25-.653.434v-.01c0-.573.37-1.08.915-1.255a7.327 7.327 0 0 0 1.477-.818.523.523 0 0 1 .138.297 8.812 8.812 0 0 1-1.19.83c-.154.23-.412.371-.687.522zm-10.752 86.377c.261-.594.574-1.163.936-1.701a1.117 1.117 0 0 0-.372-1.743c-.715 0-1.382.36-1.776.957a7.365 7.365 0 0 1-.319.85c-.119.284-.239.569-.318.85.185.07.344.165.488.252.187.113.349.21.511.216l.029.001c.278.01.554.02.821.307v.011zm0-6.633v-1.456c.337.099.571.243.755.356.129.079.233.143.33.165.228.265.515.473.839.605a2.496 2.496 0 0 0-1.063.691c-.137.166-.299.283-.477.411-.223.161-.47.339-.724.652.173-.458.288-.937.34-1.424zm1.403-4.422c-.177.39-.383.767-.616 1.127a1.225 1.225 0 0 1-.744.701c.861 0 1.297-.106 1.605-.521.248-.333.11-.605-.091-1.003-.049-.097-.102-.201-.154-.315v.011zm9.771-65.671c-.026.056-.056.123-.097.201l.287.15c.149-.14.287-.267.436-.267.149 0 .298-.138.457-.425a.445.445 0 0 0-.287-.149.48.48 0 0 1-.287-.16.722.722 0 0 0-.143.233c-.047.103-.088.193-.165.193-.101 0-.134.073-.201.224zm-8.75 61.228a8.266 8.266 0 0 1-.51 2.296h.723c0-.191.061-.378.118-.552.073-.225.14-.429.062-.596-.085-.184 0-.412.08-.627.049-.134.097-.263.101-.373l-.574-.148zm3.253 6.611a19.723 19.723 0 0 1-.819 2.711l-.255.319c.147-.444.262-.861.372-1.261.138-.501.27-.977.447-1.45.188-.935.444-1.855.765-2.753a.149.149 0 0 0 .16-.138c0-.074 0-.112.018-.13.019-.019.056-.019.13-.019a20.28 20.28 0 0 1-.818 2.721zm12.816-77.143c.351.135.58.224.589-.051.035-.284.132-.556.284-.797.024.001.035-.016.035-.053l-.035.053c-.052-.002-.168-.092-.37-.25l-.158-.122c-.111.17-.17.37-.17.574-.094.093-.133.187-.186.316-.032.075-.068.162-.123.268v.011l.133.05h.001zm-10.998 83.117c-.011.149-.595.415-1.478.67v-.01a29.792 29.792 0 0 0 1.744-4.093c.228-.609.454-1.186.679-1.763.248-.632.495-1.264.745-1.936h.585a25.087 25.087 0 0 0-1.138 3.571c-.086.261-.182.54-.283.834-.286.832-.611 1.777-.854 2.727zm16.998-84.848c.071-.188.171-.347.261-.491.113-.18.212-.337.218-.497.026-.335.192-.643.457-.85h-.574c-.07.186-.167.344-.254.486-.112.183-.208.34-.214.502a1.959 1.959 0 0 1-.323.814 1.296 1.296 0 0 0-.145.185c.052-.059.101-.12.145-.185.202-.208.316-.086.429.036zm.564 13.128a21.018 21.018 0 0 0-.808 2.286 7.662 7.662 0 0 1 .659-2.286h.149zm-2.839 31.529c.17-.31.278-.649.319-1 .064-.346.175-.682.33-.999h-.149c-.086.15-.173.346-.257.538a6.99 6.99 0 0 1-.211.45 5.953 5.953 0 0 1-.468 1l.436.01zm2.507-5.985c-.043.149-.085.298-.168.447v.01a.924.924 0 0 1 .181-.86c.071-.139.111-.277.151-.415.042-.15.085-.298.168-.447h.138a1.064 1.064 0 0 0-.319.85c-.072.139-.111.277-.151.415zm-.987 7.335c.029-.076.061-.146.096-.214l-.074.214h-.022zm.096-.214a221.094 221.094 0 0 1 10.376-24.65v-.001c3.901-8.089 7.803-16.178 11.842-24.267h.585a571.883 571.883 0 0 0-2.232 5.064l-.957 2.186c-1.936 3.768-3.732 7.5-5.517 11.208-1.373 2.851-2.739 5.69-4.157 8.521-3.264 6.516-6.102 13.202-8.802 19.888a7.907 7.907 0 0 1-.617 1.138c-.08.213-.194.388-.308.563a4.327 4.327 0 0 0-.213.35zm10.593-62.036c-.414-.02-.536-.026-.536-.307h.021c.15-.077.29-.174.414-.287a.65.65 0 0 1 .447-.128c.415-.127.415.16.415.595l-.054-.002c-.245-.009-.254-.01-.393.13-.075.075-.112.112-.149.111-.035 0-.07-.038-.138-.111l-.027-.001zm-4.991 61.42a102.99 102.99 0 0 0 17.169-6.611c5.453-2.7 10.917-5.825 16.392-9.1a120.837 120.837 0 0 0 11.46-9.12 54.913 54.913 0 0 0 9.376-11.225 44.408 44.408 0 0 0 2.945-5.815 14.283 14.283 0 0 0 1.222-5.963 69.308 69.308 0 0 0-.34-2.466 2.221 2.221 0 0 0-1.541-1.637 31.854 31.854 0 0 0-2.278-.953l-.284-.11a5.85 5.85 0 0 0-2.732-.521c-5.316 0-11.003 0-16.807.276-4.09.15-8.147.786-12.087 1.892a7.69 7.69 0 0 0-2.924 1.117 7.05 7.05 0 0 0-1.69 2.678 36.849 36.849 0 0 1-2.977 6.538l-9.354 19.134c-3.115 6.378-5.943 12.639-8.505 19.187-.478 1.137-1.063 2.413-1.882 4.124h1.297a8.535 8.535 0 0 1 1.754-.52 4.479 4.479 0 0 1 1.786-.904zm-2.466-12.33c0-.138.16-.287.457-.563a2.835 2.835 0 0 0-.457 1.424v-.861zm2.009-3.678c.071-.127.112-.255.15-.37.046-.142.086-.265.169-.342.06-.056.072-.16.085-.273.018-.168.039-.357.224-.44h-.288a2.13 2.13 0 0 0-.133.346c-.05.153-.092.286-.185.367 0 .287 0 .574-.309.712h.287zm2.222-5.549c.154-.359.362-.692.617-.989l-.789 1.532a3.66 3.66 0 0 0 .172-.543zm-.478 1.138c.12-.19.222-.388.306-.595l-.306.595zm1.913-4.848a7.46 7.46 0 0 0-.372 2.445c0-.223.084-.443.167-.662.079-.209.157-.416.163-.624.005-.211.084-.388.163-.567.08-.18.161-.362.166-.581l-.287-.01zm15.989 22.285l-.117.038v.021l.117-.06zm0 0a71.48 71.48 0 0 0 24.397-13.78 63.804 63.804 0 0 0 4.358-4.465c.315-.57.486-1.21.5-1.86a4.652 4.652 0 0 1-1.18.541c-.122.053-.22.132-.323.216-.147.121-.307.252-.57.327l-6.431 5.835a61.337 61.337 0 0 1-6.081 4.412 54.001 54.001 0 0 1-6.07 3.678c-1.441.72-2.781 1.56-3.997 2.32l-.007.005-.429.269a35.652 35.652 0 0 1-4.167 2.502zm13.479 8.542l.003-.001-.003.075v-.074zm1.459-.995a6.84 6.84 0 0 1-1.456.994c.007-.262-.006-.362-.162-.499.209-.182.461-.24.694-.293.133-.03.26-.06.369-.11a.862.862 0 0 0 .555-.092zm0 0c.112-.1.221-.205.327-.312a.858.858 0 0 1-.327.312zm28.243-20.424c-.3.313-.601.627-.903.978a128.377 128.377 0 0 1-11.396 10.343 150.853 150.853 0 0 1-12.874 8.068c-.216.043-.452.106-.708.175-.437.118-.932.25-1.482.324.47-.323.918-.678 1.339-1.063a6.388 6.388 0 0 1 1.489-1.063 136.508 136.508 0 0 0 13.065-9.216c4.167-3.316 8.196-6.782 12.087-10.545.248-.189.454-.428.606-.701.305-.092.568-.287.744-.553a4.252 4.252 0 0 1-1.063 2.275c-.303.35-.604.664-.904.978zm-6.74-5.868a41.893 41.893 0 0 0-5.836 5.432 21.461 21.461 0 0 1-6.102 4.688 9.752 9.752 0 0 1-1.191.967c-.099.268-.255.51-.457.712a2.022 2.022 0 0 1-.457.702c.277.156.415.305.415.446 1.339-.956 2.668-1.924 3.869-2.891.601-.484 1.231-.967 1.861-1.451.63-.484 1.26-.967 1.86-1.451l.267-.25c1.518-1.419 2.786-2.604 3.922-3.79a14.68 14.68 0 0 0 1.849-3.093v-.021zm-6.229 12.49c2.679-1.966 5.209-4.007 7.888-6.218v.02a7.224 7.224 0 0 1-2.509 2.935 46.1 46.1 0 0 1-3.88 3.476c-.639.41-1.279.88-1.941 1.367-.879.646-1.798 1.322-2.811 1.928a26.304 26.304 0 0 1-4.773 2.562l1.056-.808c2.342-1.793 4.64-3.552 6.97-5.262zm8.483-15.01l-.011.022h-.013a.27.27 0 0 1-.018 0l.042-.021zm-.011.022c.048-.001.1-.01.148-.019.143-.026.255-.046.15.157-.052.1-.087.183-.117.254-.056.13-.095.22-.191.31-.089.082-.125.169-.174.287a2.58 2.58 0 0 1-.134.287l-.287-.16c.062-.112.1-.202.132-.278a.734.734 0 0 1 .176-.285c.095-.089.134-.181.188-.311.029-.069.061-.148.109-.242zm11.928.276c-.197.088-.264.256-.338.441a1.941 1.941 0 0 1-.119.261l-.138-.149a.466.466 0 0 0 .159-.276c.085 0 .234-.138.383-.277h.053z" fill="#fff"/><path fill-rule="evenodd" clip-rule="evenodd" d="M378.522 22.546a3.48 3.48 0 0 0 .914-1.424c-.119-.267-.421-.58-.694-.863l-.061-.062c-.076-.08-.151-.17-.229-.262-.211-.254-.437-.525-.749-.642a35.064 35.064 0 0 0-6.676-2.987 50.716 50.716 0 0 0-7.154-1.552 110.832 110.832 0 0 0-15.531-1.413l-16.148-.128c-1.055.077-2.11.052-3.198.027-.558-.014-1.124-.027-1.703-.027s-1.147-.01-1.705-.02c-1.091-.018-2.148-.036-3.196.02-1.209.148-2.267.164-3.298.179-.672.01-1.333.02-2.017.066-.941.063-1.838.067-2.739.07-.758.004-1.519.008-2.311.046-.25.28-.413.628-.467 1a3.447 3.447 0 0 1-.221.339c-.08.112-.158.222-.236.373a2.01 2.01 0 0 0-2.392-1.967c-1.56-.078-3.11-.085-4.633-.091-1.164-.005-2.312-.01-3.436-.047a49.983 49.983 0 0 0-8.079 0c-5.188.117-10.099.372-15.17.925l-.32.04c-2.65.327-5.34.659-8.089 1.119-1.457.243-2.887.451-4.321.66-1.381.2-2.765.402-4.183.636a47.183 47.183 0 0 0-5.709 2.265 14.991 14.991 0 0 0-4.922 4.613 7.437 7.437 0 0 0-1.446 3.21 3.19 3.19 0 0 0 1.063 2.796c.32.47.846.759 1.414.776.421.1.793.25 1.144.389.243.097.475.19.706.26-.17.988-.053 1.732.797 2.05.43.162.863.288 1.297.414.424.124.85.248 1.276.405.51.15 1.041.219 1.573.202 1.074-.086 2.273-.056 3.425-.027.559.014 1.107.027 1.625.027.512 0 1.055.01 1.614.018 1.167.02 2.402.04 3.573-.018 2.29-.046 4.571-.216 6.858-.387h.001l.944-.07c1.252-.092 2.504-.152 3.754-.212 1.352-.064 2.702-.13 4.049-.234.391.011.826-.008 1.278-.029h.001c.384-.017.782-.035 1.177-.035a4.9 4.9 0 0 0 2.466-.35 7.825 7.825 0 0 1 4.476 0c-.217.51-.38 1.04-.489 1.583-.101.498-.265.98-.489 1.435a203.687 203.687 0 0 0-8.505 19.57 149.897 149.897 0 0 0-6.027 19.942 839.791 839.791 0 0 0-2.228 10.002 820.992 820.992 0 0 1-2.227 10.003 160.117 160.117 0 0 0-2.998 19.761c-.201 1.701-.414 3.572-.467 5.315a30.528 30.528 0 0 0 .106 5.219 5.231 5.231 0 0 0 1.86 4.422 2.2 2.2 0 0 0 .883-.552 3.09 3.09 0 0 0 .893-.553c.336.775.741 1.519 1.212 2.222a3.083 3.083 0 0 0 2.126 1.063 3.192 3.192 0 0 0 2.126-2.392 4.103 4.103 0 0 1 1.828-2.838c.107 1.02.532 1.477 1.542 1.36a17.437 17.437 0 0 0 1.712-.308c.323-.07.625-.136.903-.181l.295-.376v-.001h.001v-.001c.357-.455.74-.943 1.213-1.599a10.01 10.01 0 0 0 .064 2.126c.064.292.091.585.117.877.027.292.053.585.117.877.247.028.497-.012.723-.117.37-1.067.889-2.076 1.541-2.998a4.493 4.493 0 0 0 .702-3.305 12.955 12.955 0 0 1 .255-3.328c.161-1.165.396-2.319.702-3.454.263-.784.408-1.582.547-2.339.141-.773.274-1.503.516-2.126.32-.826.579-1.742.858-2.733.138-.489.281-.996.439-1.519a689.82 689.82 0 0 0 2.44-8.804h.001v-.002c.509-1.867 1.017-3.732 1.524-5.555 1.329-5.028 2.647-9.769 4.114-14.5a193.606 193.606 0 0 1 8.59-23.045c3.295-7.43 6.442-15.01 9.301-22.737.006-.157.14-.267.335-.426.16-.132.362-.298.569-.552a3.326 3.326 0 0 1-.234 2.604c-1.116 3.147-2.254 6.293-3.508 9.44-1.254 3.146-2.519 6.25-3.933 9.439-3.923 8.993-7.389 17.869-10.301 26.756-2.913 8.886-5.677 17.783-7.867 26.84a4.796 4.796 0 0 0-.638 1.86 4.571 4.571 0 0 0-.361 1.871c-.258.134-.136.418-.012.706l.012.028c.104.259.24.506.404.733.167-.52.334-1.02.497-1.511v-.001c.468-1.408.91-2.739 1.289-4.228.369-1.454.805-2.758 1.263-4.128l.001-.001v-.002c.175-.522.353-1.055.532-1.609 1.648-6.166 3.455-12.055 5.39-18.071 1.935-6.017 4.156-11.884 6.676-17.89l.616-1.429.002-.004c1.821-4.217 3.648-8.448 5.08-12.44.882-2.457 1.855-4.953 2.845-7.494.8-2.054 1.612-4.136 2.396-6.25.093-.392.277-.871.477-1.392.163-.424.336-.876.48-1.33a12.4 12.4 0 0 1 .967-2.72 5.521 5.521 0 0 1 1.361-1.84c.595-.552 1.031-.541 1.307-.244.553.606 1.127.765 1.563.49a9.984 9.984 0 0 1 1.467-.522c.44-.056.877-.137 1.308-.244a2.633 2.633 0 0 1 1.158-.107 31.396 31.396 0 0 1 3.742 0 31.58 31.58 0 0 0 3.753 0c1.248.043 2.571-.042 3.869-.126h.001a78.6 78.6 0 0 1 1.913-.107l.188-.008c1.818-.072 3.761-.149 5.446-.375l7.952-.595c2.591-.24 5.2-.197 7.781.127a5.475 5.475 0 0 0 3.338-.606 4.753 4.753 0 0 1 3.753-.16 2.127 2.127 0 0 0 1.882.065 5.49 5.49 0 0 0 2.328-.787 2.278 2.278 0 0 0 1.297-1.254 5.46 5.46 0 0 0 .648-1.871c.199-.408.453-.787.755-1.127zm-101.995 82.981c-.019.018-.054.018-.123.018-.133-.144-.138-.248-.157-.675l-.002-.048c0-.149-.138-.298-.415-.457.311.017.619-.073.872-.256 0 .152-.017.302-.033.446-.03.27-.057.519.033.713a.138.138 0 0 0-.149.138c-.005.07-.008.104-.026.121zm23.817-71.065c0-.221.083-.44.165-.659.08-.212.16-.423.165-.638.011-.435 0-.722-.245-1.307a106.035 106.035 0 0 0-5.145 11.268l-.855 2.21-.003.009-.007.016-.001.002v.002c-1.135 2.929-2.243 5.787-3.269 8.646 1.563-3.285 3.115-6.57 4.529-9.854a81.89 81.89 0 0 1 4.666-9.695zm-16.7 73.517c-.12.293-.333.54-.606.701l-.128-.297c.298-.425.447-.553.596-.553l.138.149zm.754-6.942a31.447 31.447 0 0 0-.744 4.911 4.363 4.363 0 0 0 1.51-1.977 17.298 17.298 0 0 0-.766-2.934zm13.927-84.773c-.011.138-.16.276-.447.276l-.553-.606a.958.958 0 0 0 .883-.542c.149-.149.287.01.563.447l-.446.425zM287.694 89.27h-.053.053zm0 0c.251.002.367.019.138.138-.057.3-.165.587-.319.85a3.297 3.297 0 0 0-.468 1h-.287c.08-.138.157-.319.234-.5.077-.18.154-.361.234-.5.086-.149.173-.345.257-.537a6.98 6.98 0 0 1 .211-.45zm8.069-25.682c.946-2.423 1.754-4.72 2.562-7.154l-.011-.042c.248-.752.585-1.522 1.042-2.566h.001l.424-.974c.021-.489.468-1 1.212-1.552-.455.887-.803 1.708-1.181 2.6l-.001.001c-.17.401-.346.816-.54 1.258a68.145 68.145 0 0 0-1.574 3.858c-.169.494-.336.988-.503 1.482-.511 1.515-1.021 3.028-1.623 4.535l-.156.392c-.745 1.869-1.489 3.736-2.363 5.465.489-1.245.939-2.492 1.389-3.739.43-1.19.859-2.38 1.322-3.564zm17.353-22.378c.32-.739.639-1.473.963-2.358a90.63 90.63 0 0 0 1.123-3.281l.004-.014c-4.869 11.14-9.568 22.323-13.82 33.304a203.001 203.001 0 0 0-9.971 33.58 198.416 198.416 0 0 1 3.603-12.055c2.584-8.174 5.167-16.05 8.335-24.066 1.317-3.332 2.573-6.664 3.829-9.995 1.766-4.682 3.53-9.363 5.462-14.04h.011c.154-.37.308-.723.461-1.075zm-11.847 8.804a94.464 94.464 0 0 1 7.218-16.434l-7.409 17.869a2.307 2.307 0 0 1 .191-1.435zm151.518-27.511a56.326 56.326 0 0 1-4.252 10.886c-1.701 3.56-3.274 7.281-4.688 10.863h-.574c.653-1.856 1.439-3.713 2.224-5.566.365-.863.731-1.725 1.082-2.587.553-1.355 1.138-2.716 1.722-4.076.585-1.361 1.17-2.722 1.722-4.077h-.287l-.175.393c-1.663 3.728-3.327 7.455-5.267 11.172-1.839 3.522-3.544 7.167-5.254 10.824l-.476 1.018a3.116 3.116 0 0 1-.83-1.063c.135-.787.356-1.557.66-2.296a5.549 5.549 0 0 1 .924-1.86c.133-.297.238-.57.338-.828.14-.362.269-.697.449-1.032-.372.689-.769 1.4-1.169 2.118l-.003.005-.001.002c-.593 1.065-1.195 2.144-1.74 3.19-.548 1.051-1.203 2.118-1.868 3.202a87.54 87.54 0 0 0-1.321 2.198 4.265 4.265 0 0 0-.638 1.722 6.362 6.362 0 0 1-.34 1.584c-.159.286-.298.276-.723 0-.425-.277-.712 0-1.063.69-.11.217-.197.424-.273.606-.168.399-.285.677-.482.67-.129-.005-.358.047-.66.114a11.7 11.7 0 0 1-1.37.247 11.088 11.088 0 0 1-.245-1.169 7.794 7.794 0 0 0-.382-1.456 2.7 2.7 0 0 0 2.211-1.308 6.562 6.562 0 0 0 .797-2.126c0-.25.056-.5.106-.722a2.67 2.67 0 0 0 .075-.436c.011-.287.457-.712 1.063-1.127l.617-1.137c0-.321.099-.594.19-.845.075-.207.145-.398.15-.59l-.139-.16c-.22.283-.44.527-.643.753a8.38 8.38 0 0 0-.558.66c-.385.396-.74.819-1.063 1.266-.5.63-.955 1.294-1.361 1.988a16.155 16.155 0 0 1-1.36 1.966l-.468.85a9.73 9.73 0 0 1-1.658 4.88c-.457.781-.952 1.562-1.446 2.344a78.164 78.164 0 0 0-1.446 2.344c-.185.344-.423.684-.683 1.055a21.29 21.29 0 0 0-.539.794c-.247.384-.41.811-.554 1.19h-.001c-.123.324-.233.613-.37.809a5.094 5.094 0 0 1-2.669 2.955 1.84 1.84 0 0 1-.244 2.89 9.637 9.637 0 0 0-2.254 2.828 13.495 13.495 0 0 1-1.403 3.285c-.08.218-.197.468-.314.718-.117.25-.233.5-.313.717-.082.224-.204.482-.324.738-.114.241-.226.48-.303.687a9.274 9.274 0 0 1-1.404 3.189 22.84 22.84 0 0 1-.915 1.725c-.156.274-.311.547-.467.836-.457.85-.776 1.52-1.243 2.584-.336.763-.815 1.378-1.282 1.98h-.001l-.001.001c-.183.236-.364.469-.534.708a8.32 8.32 0 0 0-1.255 2.86 2.497 2.497 0 0 1-.914 1.573 12.78 12.78 0 0 0-1.212 1.69 17.474 17.474 0 0 0-2.126 3.848c-.616 1.286-1.063 2.434-1.563 3.72.196-.139.38-.245.538-.337.314-.182.525-.305.525-.503.46-.572.886-1.221 1.311-1.869v-.001h.001v-.001c.411-.627.822-1.253 1.261-1.807.452-.57.876-1.216 1.301-1.862.415-.632.83-1.264 1.272-1.826a64.005 64.005 0 0 0 4.592-7.824c.153-.268.355-.506.595-.701.145-.27.335-.51.564-.712.297-.426.585-.415 1.063-.118.287 0 .563.32.393.894l-1.063 1.987c.07.151.099.338.129.528.029.185.058.373.126.535.065.456.194.9.383 1.318-.585.266-.872.404-1.063.83a2.625 2.625 0 0 1-.33 1.063 10.36 10.36 0 0 1-1.658 2.412 5.999 5.999 0 0 0-1.669 2.403 8.115 8.115 0 0 1-.328.893 8.716 8.716 0 0 0-.31.829 5.167 5.167 0 0 1-.776 1.573c-.18.341-.418.682-.68 1.055v.001l-.001.001c-.17.244-.35.501-.531.782a8.783 8.783 0 0 1-1.36 1.839 18.106 18.106 0 0 1-1.212 1.85 6.495 6.495 0 0 0-.925 1.7.528.528 0 0 0 .138.298c.154-.22.348-.4.544-.582.182-.169.365-.34.519-.545.159-.212.346-.385.532-.558.186-.172.372-.345.531-.558a153.051 153.051 0 0 0 4.986-7.09c1.509-2.275 2.902-4.826 4.252-7.44.281-.519.562-1.006.842-1.492.334-.58.667-1.158.997-1.783a45.54 45.54 0 0 1 .92-1.637 46.23 46.23 0 0 0 .919-1.637 9.573 9.573 0 0 0 1.202-2.54c.425-.897.934-1.75 1.52-2.552a48.128 48.128 0 0 0 3.604-7.25 58.405 58.405 0 0 1 3.848-7.27c.06-.16.139-.3.216-.435.128-.227.249-.44.262-.713.095-.45.256-.884.479-1.286 2.189-5.315 4.677-10.428 7.303-15.711a17.79 17.79 0 0 1 1.669-2.552 3.86 3.86 0 0 1-.542 3.19c-.665 1.248-1.229 2.554-1.787 3.846a85.36 85.36 0 0 1-1.02 2.297 60.059 60.059 0 0 1-3.083 6.134 45.234 45.234 0 0 1-2.126 4.57 47.065 47.065 0 0 0-2.317 4.572c-.59 1.097-1.189 2.26-1.785 3.42h-.001c-.327.637-.654 1.273-.978 1.895l-.754 1.447a796.264 796.264 0 0 1-2.021 3.868c-1.099 2.18-2.268 4.319-3.439 6.462l-.001.001a270.774 270.774 0 0 0-2.874 5.357 104.846 104.846 0 0 1-7.017 11.512 92.636 92.636 0 0 1-10.832 13.819c-.3-.177-.541-.44-.691-.755a1.968 1.968 0 0 0-1.584-.053c-.298.425-.596.702-.744.702a.872.872 0 0 0 1.148.181c.584-.266.712.17.393 1.063a3.68 3.68 0 0 0-1.467.967c-.299.413-.709.405-1.257.394l-.051-.001c-.605.702-1.063.978-1.19.968-.128-.011-.564-.16-.968-.904a1.965 1.965 0 0 1-.457.712 2.046 2.046 0 0 1-.457.712c-.307.062-.61.088-.934.116-.294.025-.604.052-.947.108l-.085.013-.067.012-.123.02-.126.022-.005.001h-.002c-.54.093-1.002.172-1.463.155-.149 0-.149.138 0 .436a.639.639 0 0 1 0 .722c0 .287 0 .436-.17.575-.171.138-.426 0-.989-.468-.567.54-1.355.78-2.126.648a2.72 2.72 0 0 0-2.041.946 5.941 5.941 0 0 1-1.776 1.393 2.285 2.285 0 0 1-2.126-.075c-.116-.134-.337-.042-.783.141l-.28.115a3.575 3.575 0 0 1-1.764.946c-.314.069-.627.063-.94.056-.261-.005-.522-.01-.783.029a65.22 65.22 0 0 1-7.197.191 13.359 13.359 0 0 1-8.844-2.052 42.14 42.14 0 0 1-13.288-10.63 15.204 15.204 0 0 1-2.86-4.592 11.543 11.543 0 0 1-.532-5.538 4.862 4.862 0 0 1 .511-2.126 5.399 5.399 0 0 1 2.36-1.807c.263.453.443.95.531 1.467a9.72 9.72 0 0 1 .51 1.616c.485-.539.785-.969.978-1.244.107-.153.181-.259.234-.308.151-.271.353-.509.596-.702.187-.373.443-.709.754-.988.383.14.651.487.691.893.055.059.11.112.163.164.212.207.388.379.38.728a2.126 2.126 0 0 1 2.721.234 9.985 9.985 0 0 1 2.583 4.252 6.485 6.485 0 0 0 1.616 3.104c.829.893 1.531 1.648 2.36 2.403a12.339 12.339 0 0 0 1.956 1.658c.741.464 1.451.975 2.126 1.531a9.207 9.207 0 0 0 5.39 2.126 19.878 19.878 0 0 0 6.665-1.361 26.78 26.78 0 0 0 8.728-5.049 38.404 38.404 0 0 0 7.016-7.441c.606-.851 1.247-1.698 1.887-2.546.641-.848 1.281-1.696 1.887-2.546a56.782 56.782 0 0 1 3.774-5.092l1.722.053c-.51-1.754 0-3.624 1.35-5.612.154-.282.308-.603.463-.925.154-.322.308-.643.462-.925a8.248 8.248 0 0 1 .936-1.998c.163-.43.421-.82.754-1.138.097-.256.247-.513.416-.802h.001c.111-.19.231-.394.349-.622a2.554 2.554 0 0 1-.322-.478 3.664 3.664 0 0 0-.497-.713c-.201-.217-.333-.474-.463-.73-.138-.27-.275-.54-.494-.758a2.918 2.918 0 0 1-1.467 1.063c-.728.272-1.25.92-1.36 1.69.302-.066.601-.092.899-.118.279-.024.556-.048.834-.105.275-.056.553-.083.831-.11h.001c.301-.028.602-.057.9-.124a16.678 16.678 0 0 1-3.125 3.19 6.43 6.43 0 0 0-2.126 3.698c-.39.021-.763-.16-.989-.478a21.573 21.573 0 0 1-3.274 3.083c-.253.164-.513.316-.778.457.109-.182.227-.36.353-.532a1.19 1.19 0 0 1 .744-.701l-.415-.298a5.604 5.604 0 0 0-1.063.68c-.131.34-.131.712-.006 1.047-1.008.483-2.09.802-3.204.941a1.99 1.99 0 0 1-.355.104c-.232.053-.49.112-.708.29a4.834 4.834 0 0 1-1.319.68v.011h-.574a7.236 7.236 0 0 1-3.646 1.466c-.592.049-1.156.126-1.73.205h-.001c-.683.094-1.38.19-2.16.242-1.19.196-2.4.253-3.603.17a4.061 4.061 0 0 1-3.105-1.563 3.854 3.854 0 0 1-.839-.754 2.881 2.881 0 0 1-.978-.766 9.072 9.072 0 0 1-2.616-3.571 12.298 12.298 0 0 1-.988-4.529 39.457 39.457 0 0 1-.319-7.27c.094-2.52.325-5.032.691-7.526a109.679 109.679 0 0 1 2.434-15.244 107.375 107.375 0 0 1 4.136-15.53 67.082 67.082 0 0 1 2.71-7.441c.473-1.217.984-2.469 1.494-3.72.51-1.252 1.021-2.504 1.494-3.721.233-.5.465-.927.696-1.355.231-.428.462-.856.696-1.356a7.854 7.854 0 0 0 1.255-2.997 8.28 8.28 0 0 1 1.69-3.136 39.68 39.68 0 0 0 2.126-3.125 8.383 8.383 0 0 1 1.499-1.68 4.823 4.823 0 0 1 1.318-.68 2.361 2.361 0 0 1 1.159-.404.668.668 0 0 1 .691.903c-.089.237-.135.477-.186.742a8.31 8.31 0 0 1-.154.693 19.763 19.763 0 0 0-.511 2.307c.134.144.267.149.535.159h.029c.14-.256.31-.485.468-.697.188-.254.359-.485.446-.716.274-.366.53-.746.765-1.137a4.823 4.823 0 0 1 1.191-1.404c.178-.082.451-.005.855.108.272.077.603.17 1.005.243 0 .305-.051.613-.102.921-.045.272-.09.543-.1.812a8.157 8.157 0 0 1-.648 2.126 18.778 18.778 0 0 1 1.637-1.829c.407-.553.859-1.072 1.35-1.552.315.149.6.354.84.606.317.155.605.364.85.617.248.093.441.283.617.455.125.123.242.237.361.3.38.187.675.51.83.903.498.62.581 1.475.212 2.18a38.699 38.699 0 0 1-2.211 5.59c-.252.598-.504 1.18-.755 1.76l-.001.002c-.53 1.228-1.059 2.452-1.593 3.809a6.917 6.917 0 0 0 1.828-3.125 12.344 12.344 0 0 1 1.414-3.19l.133-.277c.572-1.193 1.145-2.387 1.727-3.72.287 0 .574 0 .713.32-.422 1.063-.844 2.116-1.265 3.17h-.001a567.231 567.231 0 0 0-2.529 6.396c-.463 1.198-.925 2.363-1.386 3.527v.001c-.799 2.018-1.597 4.033-2.399 6.21a1.913 1.913 0 0 1-.861-.17c-.212 0-.343-.087-.508-.197a3.104 3.104 0 0 0-.194-.122 2.053 2.053 0 0 1-.457.712c-.079.143-.119.25-.159.356a2.41 2.41 0 0 1-.16.356 66.074 66.074 0 0 0-2.392 7.972l-.148.626c-.628 2.653-1.23 5.197-1.595 7.878-.292 2.147-.889 4.2-1.499 6.298-.211.728-.425 1.462-.627 2.206-.203.923-.449 1.845-.686 2.735-.172.648-.34 1.278-.483 1.879a27.19 27.19 0 0 0-.745 4.762c-.187.356-.3.747-.329 1.148a2.619 2.619 0 0 1-.617 1.286v.574a6.26 6.26 0 0 1 .16 3.636 6.37 6.37 0 0 0 .436 3.933 4.6 4.6 0 0 0 1.467-.819c.128-.176.303-.325.498-.49.274-.233.584-.497.852-.913 3.72-3.646 7.303-7.58 10.63-11.385 2.636-3.014 5.152-6.303 7.659-9.58.658-.859 1.314-1.717 1.973-2.57 4.518-5.931 8.897-11.884 12.99-17.975 1.995-2.97 4.026-5.941 6.057-8.914 2.136-3.126 4.273-6.253 6.37-9.38a31.98 31.98 0 0 1 2.732-3.965 1951.5 1951.5 0 0 1 1.726-2.064l.001-.001.005-.006.003-.003.007-.01.002-.002 1.563-1.868a6.009 6.009 0 0 1 1.339-1.542 7.445 7.445 0 0 1 1.637-1.403 1.573 1.573 0 0 1 1.871-.223c.425.16.542.893.383 1.467a7.87 7.87 0 0 1-.489 1.722 5.62 5.62 0 0 0-.34 1.584c.223-.282.446-.526.669-.77.224-.245.447-.49.67-.771a4.645 4.645 0 0 0 1.138-1.584c.153-.22.343-.36.536-.502.182-.134.367-.27.527-.476.27-.349.59-.397 1.095-.474.111-.017.231-.035.361-.058a.808.808 0 0 1 .829.755c.091.195.063.45.032.722-.015.143-.032.29-.032.437 0 .425.138.446.277.446a.976.976 0 0 1 .882-.542 4.828 4.828 0 0 1 1.318-.68 9.966 9.966 0 0 0 1.807 1.658 21.721 21.721 0 0 1 1.818 1.658 4.249 4.249 0 0 1-.351 1.871l.893.33zm-68.036 77.525v.138h-.148l.148-.138zm5.586-2.026c.035.094.079.185.134.272a6.8 6.8 0 0 1 .253-.468c-.128.068-.257.134-.387.196zM378.756 34.43a10.31 10.31 0 0 0-1.063 2.126 1.733 1.733 0 0 0 .212 2.041 3.783 3.783 0 0 0 .936-2.126c.038-.681.01-1.365-.085-2.04zm-.34 5.507l-.872.255a6.175 6.175 0 0 0-.075-.12c-.223-.354-.298-.474.096-.454 0-.095.061-.186.146-.313.048-.073.105-.157.162-.261.012.372.218.71.543.893zm2.158-4.135c-.079-.085-.113-.121-.127-.165-.011-.032-.011-.069-.011-.133l-.893.84c0 .144.129.148.408.158l.027.001.596-.701zm2.997 4.751a7.57 7.57 0 0 0-.627 1.425 3.969 3.969 0 0 1 .319-1.531c.232-.494.549-.944.936-1.329-.1.336-.243.62-.377.887-.094.188-.184.367-.251.548zm3.955 1.882l.298-.139c0-.286 0-.435-.128-.435-.127 0-.138-.298-.127-.585-.087.08-.123.114-.166.126a.356.356 0 0 1-.121.002.535.535 0 0 1-.298.138c.06.064.092.155.121.238.038.108.071.202.155.208.085.006.115.102.148.212a.66.66 0 0 0 .107.235h.011zm-1.85 20.111a1.332 1.332 0 0 0-.17.713v-.011c.16-.495.37-.972.627-1.424h-.287c-.122.22-.181.47-.17.723zm-1.233 38.417a.425.425 0 0 1 .022.018c-.119.21-.278.396-.468.545a1.331 1.331 0 0 0-.734.415c.494-.094.981-.222 1.457-.383a.713.713 0 0 0-.255-.577l.01-.018h-.032zm2.328-11.973l-.013.002-.019.002h.032v-.004zm1.297-.964a1.637 1.637 0 0 1-1.297.964c-.127-.583.033-1.103.447-1.474.167-.15.366-.26.573-.376.306-.17.632-.35.904-.687-.108.365-.267.73-.41 1.057-.082.187-.159.361-.217.516zm12.056-13.191h.001c1.536-1.866 3.104-3.772 4.559-5.677 1.628-2.132 3.322-4.193 5.039-6.282a586.3 586.3 0 0 0 2.02-2.466 513.105 513.105 0 0 1 3.161-4.382h.001c1.728-2.378 3.471-4.777 5.161-7.237l8.218-13.064c.069-.185.165-.344.252-.488.112-.187.21-.349.216-.511.03-.379.196-.734.467-1a1.594 1.594 0 0 0-1.743.522 5.803 5.803 0 0 1-.627 1.286 18.291 18.291 0 0 1-2.764 4.975 48.898 48.898 0 0 0-3.328 4.677c-.434.613-.87 1.26-1.307 1.907l-.001.001c-.472.7-.944 1.4-1.413 2.057-.444.622-.891 1.285-1.34 1.95a87.394 87.394 0 0 1-1.392 2.025c-.457.638-.946 1.31-1.435 1.983h-.001l-.001.002c-.488.672-.977 1.343-1.433 1.98-.44.613-.909 1.224-1.377 1.834h-.001v.001h-.001v.001a64.973 64.973 0 0 0-1.481 1.98c-.468.66-.975 1.318-1.483 1.975a65.292 65.292 0 0 0-1.387 1.842c-.438.61-.906 1.222-1.373 1.834h-.001v.001h-.001l-.001.001c-.507.664-1.014 1.327-1.484 1.99-.867 1.081-1.731 2.13-2.595 3.18h-.001c-.937 1.138-1.875 2.275-2.815 3.453-1.235 1.547-2.529 3.015-3.848 4.511a260.44 260.44 0 0 0-1.85 2.112c-.182.253-.351.494-.514.727-.38.541-.728 1.04-1.144 1.537-.496.593-.904 1.18-1.37 1.85l-.289.414c.222-.14.443-.242.666-.345.216-.1.433-.2.653-.335.415-.243.81-.52 1.18-.83 1.051-1.5 2.259-2.882 3.49-4.29v-.001h.001v-.001a89.08 89.08 0 0 0 2.238-2.627h-.031a327.36 327.36 0 0 1 2.509-3.072zm16.749-1.998c-.123.108-.258.226-.4.36h.032a17.578 17.578 0 0 1-1.573 1.659 2.432 2.432 0 0 0-.51 2.126c.265.446.106.871-.479 1.435-.103.35-.258.695-.4 1.01-.09.203-.175.393-.238.563-.059.163-.14.345-.226.538-.143.322-.301.676-.401 1.035-.391.75-.85 1.461-1.371 2.126-.076.14-.151.245-.228.352a3.199 3.199 0 0 0-.229.35.809.809 0 0 0-.309.723 7.666 7.666 0 0 0-1.063 2.126 5.876 5.876 0 0 1-1.36 2.126c-.713.414-.883 1.127-1.063 1.998a4.254 4.254 0 0 1-.649 2.296 5.144 5.144 0 0 1-.914 1.425 3.982 3.982 0 0 0-1.063 1.265 65.28 65.28 0 0 1-5.475 8.504l-.202.257c-2.037 2.603-4.071 5.201-5.985 7.949-.58.903-1.297 1.71-2.126 2.392-.596.473-1.134 1.01-1.65 1.525-.247.248-.49.49-.731.717a2.42 2.42 0 0 0-.883.84 2.298 2.298 0 0 0-.754.84c-1.032.797-1.765 1.106-2.329.797a26.217 26.217 0 0 0 1.797-2.126l1.807-2.126v-.223l.23-.301c1.109-1.453 2.111-2.767 3.225-3.951a16.546 16.546 0 0 0 2.892-4.55 42.725 42.725 0 0 1 2.455-4.251c.238-.375.487-.759.738-1.147.705-1.086 1.43-2.205 1.994-3.254l4.146-7.26 4.136-7.26a2.94 2.94 0 0 0 .744-.99 6.894 6.894 0 0 1 1.722-3.858c.893-.935 1.945-2.062 2.849-3.189a26.514 26.514 0 0 0 1.871-2.254c.437-.515.8-1.036 1.202-1.613.145-.209.295-.425.456-.65.1-.193.397-.376.761-.601.178-.11.372-.23.568-.367-.011.363-.114.717-.205 1.032-.077.267-.146.506-.146.7 0 .324-.271.562-.663.905zm-20.215 17.081l.127.298c-.079.317-.236.61-.457.85a.44.44 0 0 0-.077-.297.23.23 0 0 1-.05-.138c0-.075-.035-.112-.069-.15-.035-.036-.07-.073-.07-.148.16-.276.309-.415.596-.415zm6.431-7.026a5.816 5.816 0 0 0 2.35-1.371c.356-.61.48-1.326.35-2.02l-1.35 1.69a7.844 7.844 0 0 1-1.35 1.701zm8.037-16.264c.298-.287.872-.265 1.584.053-.645.537-1.347 1-2.094 1.382l-.553-.457c.229-.44.605-.786 1.063-.978zm-6.336 49.844c.287 0 .425 0 .564.17a5.312 5.312 0 0 1-.893.989 7.521 7.521 0 0 0-1.063 1.063l-.426-.298 1.818-1.924zm11.12-54.893a8.257 8.257 0 0 0-1.18.68v-.01c-.058 0-.092 0-.121-.011-.042-.015-.075-.051-.156-.138h-.287a13.44 13.44 0 0 0 1.648-1.839c.553.606.532 1.042.096 1.318zm-1.18 10.407c-.1-.107-.205-.143-.414-.214a8.691 8.691 0 0 1-.298-.105 1.765 1.765 0 0 0-.5 2.02c.269-.404.508-.743.702-1.018h.001c.219-.311.382-.541.466-.694l.043.01zm4.465 11.48a3.268 3.268 0 0 0-1.063-2.073c.451.196.948.262 1.435.192l-.043-.011c.872-.255 1.318-.68 1.467-1.127V79.29a.645.645 0 0 0-.255-.883c-.127-.436-.414-.446-.712-.308a2.35 2.35 0 0 1-1.063.106 30.32 30.32 0 0 0-.428 1.632c-.12.499-.244 1.009-.401 1.557l-.064-.042h-1.148a.659.659 0 0 0 0 .723c.218.234.35.297.536.386a4.9 4.9 0 0 1 .165.081c.157.082.27.163.384.246.096.069.193.14.318.211-.254.133-.524.25-.788.364-.498.216-.972.421-1.264.7a5.277 5.277 0 0 1-.495.401c-.309.23-.592.442-.695.725-.43.855-.888 1.709-1.351 2.573-.696 1.297-1.403 2.614-2.041 3.986.235.006.466.057.675.104.179.04.341.077.474.077.414.308.712.17.861-.117a4.02 4.02 0 0 0 2.126-1.67 5.318 5.318 0 0 0 1.063-1.987 6.205 6.205 0 0 1 1.063-2.126 4.107 4.107 0 0 0 1.244-2.562zm-3.827-13.351c.194-.229.388-.443.582-.657.402-.443.806-.889 1.214-1.469.309-.438.614-.794.92-1.15.295-.343.59-.686.887-1.104V65.3a.511.511 0 0 0-.127-.436c0-.158-.075-.274-.166-.415-.08-.125-.173-.269-.238-.478a6.787 6.787 0 0 0-2.126 2.976 30.817 30.817 0 0 1-.989 3.157l.043.011zm5.834-7.678c-.116.132-.254.287-.413.47l-.042-.01c-.117-.584.032-.871.223-.999a.84.84 0 0 0-.117-.585c.232.127.415.206.551.263.193.083.289.124.289.205 0 .102-.162.285-.491.656zm8.357.333v-1.063a8.401 8.401 0 0 0-4.114 3.965 15.512 15.512 0 0 0-2.126 4.422.969.969 0 0 0 .542.893c.277.148.415.297.415.595.03.32-.088.637-.319.86-.307.16-.601.341-.882.543a3.861 3.861 0 0 0-2.222 1.669c-.4.776-.717 1.592-.946 2.434a18.751 18.751 0 0 0 2.658-1.945 7.453 7.453 0 0 0 1.807-2.402c.239-.367.437-.7.637-1.034.183-.306.367-.614.585-.954a8.992 8.992 0 0 1 1.499-1.829c.482-.422.848-.96 1.063-1.562a7.42 7.42 0 0 0 .489-1.722v-1.457c.021-.435.319-.86.914-1.413z" fill="#fff"/></svg>