<svg width="386" height="74" fill="none" xmlns="http://www.w3.org/2000/svg"><path fill-rule="evenodd" clip-rule="evenodd" d="M103.136 28.143v4.15c0 2.529-.707 4.462-2.117 5.802-1.41 1.34-3.492 2.009-6.246 2.009-2.752 0-4.836-.676-6.244-2.03-1.412-1.354-2.117-3.295-2.117-5.825V16.002c0-2.528.704-4.468 2.117-5.822 1.408-1.354 3.492-2.032 6.244-2.032 2.754 0 4.836.678 6.246 2.032 1.41 1.354 2.117 3.294 2.117 5.822v3.037h-5.303v-3.347c0-1.131-.264-1.927-.79-2.388-.529-.461-1.235-.694-2.116-.694-.885 0-1.59.233-2.115.696-.529.463-.79 1.259-.79 2.392v16.904c0 1.131.261 1.921.79 2.369.526.447 1.23.67 2.115.67.881 0 1.587-.223 2.117-.67.525-.446.788-1.234.788-2.365v-4.463h5.304z" fill="#FEFEFE"/><mask id="a" maskUnits="userSpaceOnUse" x="0" y="0" width="386" height="74"><path fill-rule="evenodd" clip-rule="evenodd" d="M0 74h385.251V.362H0V74z" fill="#fff"/></mask><g mask="url(#a)" fill-rule="evenodd" clip-rule="evenodd" fill="#FEFEFE"><path d="M106.808 39.749h5.609V8.507h-5.609V39.75zm8.873-31.242h17.337v4.463h-5.867v26.778h-5.607V12.97h-5.863V8.506zm26.768 20.886L135.36 8.507h5.865l4.283 14.237 4.282-14.237h5.359l-7.091 20.886v10.355h-5.609V29.393zm30.592-3.705v9.597h3.212c.95 0 1.672-.224 2.166-.67.495-.447.741-1.25.741-2.411V29.48c0-1.454-.283-2.454-.845-2.988-.558-.535-1.485-.804-2.776-.804h-2.498zm0-12.718v8.255h2.192c1.052 0 1.876-.238 2.472-.715.597-.472.893-1.338.893-2.588v-1.74c0-1.13-.229-1.95-.689-2.455-.458-.505-1.179-.757-2.164-.757h-2.704zm2.856-4.463c2.921 0 5.037.595 6.346 1.784 1.308 1.191 1.964 2.99 1.964 5.4v1.118c0 1.605-.29 2.93-.864 3.97-.581 1.043-1.499 1.815-2.757 2.321 1.532.508 2.609 1.333 3.238 2.477.628 1.147.945 2.551.945 4.217v2.543c0 2.412-.716 4.248-2.143 5.513-1.43 1.265-3.553 1.898-6.373 1.898h-8.821V8.507h8.465zm18.154 13.165h7.697v4.463h-7.697v9.15h9.689v4.463h-15.298V8.506h15.298v4.463h-9.689v8.703zm19.681 8.168h5.407l-2.706-15.8-2.701 15.8zm12.796 9.907h-5.659l-.966-5.667h-6.887l-.968 5.667h-5.149l5.711-31.241h8.21l5.708 31.241zm18.918-11.604v4.15c0 2.529-.707 4.462-2.117 5.802-1.411 1.34-3.491 2.009-6.244 2.009-2.752 0-4.838-.676-6.246-2.03-1.413-1.354-2.115-3.295-2.115-5.825V16.002c0-2.528.702-4.468 2.115-5.822 1.408-1.354 3.494-2.032 6.246-2.032 2.753 0 4.833.678 6.244 2.032 1.41 1.354 2.117 3.294 2.117 5.822v3.037h-5.304v-3.347c0-1.131-.263-1.927-.789-2.388-.529-.461-1.235-.694-2.116-.694-.885 0-1.59.233-2.115.696-.527.463-.789 1.259-.789 2.392v16.904c0 1.131.262 1.921.789 2.369.525.447 1.23.67 2.115.67.881 0 1.587-.223 2.116-.67.526-.446.789-1.234.789-2.365v-4.463h5.304zm9.281 11.605h-5.61V8.507h5.61v13.388h6.375V8.507h5.707v31.24h-5.707v-13.39h-6.375v13.39zm41.812-11.605v4.15c0 2.529-.706 4.462-2.117 5.802-1.41 1.34-3.492 2.009-6.246 2.009-2.751 0-4.835-.676-6.244-2.03-1.412-1.354-2.116-3.295-2.116-5.825V16.002c0-2.528.704-4.468 2.116-5.822 1.409-1.354 3.493-2.032 6.244-2.032 2.754 0 4.836.678 6.246 2.032 1.411 1.354 2.117 3.294 2.117 5.822v3.037h-5.303v-3.347c0-1.131-.264-1.927-.789-2.388-.529-.461-1.235-.694-2.117-.694-.887 0-1.589.233-2.114.696-.53.463-.791 1.259-.791 2.392v16.904c0 1.131.261 1.921.791 2.369.525.447 1.227.67 2.114.67.882 0 1.588-.223 2.117-.67.525-.446.789-1.234.789-2.365v-4.463h5.303zm3.672-19.636h5.609v26.778h9.229v4.463h-14.838V8.507zm23.196 0v24.138c0 1.133.263 1.924.791 2.371.527.448 1.233.67 2.116.67.885 0 1.59-.222 2.115-.67.527-.447.791-1.238.791-2.37V8.505h5.301v23.789c0 2.53-.702 4.47-2.115 5.822-1.408 1.354-3.494 2.032-6.246 2.032-2.753 0-4.837-.678-6.244-2.032-1.414-1.352-2.118-3.293-2.118-5.822V8.507h5.609zm20.552 17.181v9.597h3.211c.949 0 1.672-.224 2.167-.67.494-.447.739-1.25.739-2.411V29.48c0-1.454-.281-2.454-.843-2.988-.558-.535-1.486-.804-2.777-.804h-2.497zm0-12.718v8.255h2.191c1.053 0 1.876-.238 2.471-.715.597-.472.893-1.338.893-2.588v-1.74c0-1.13-.227-1.95-.687-2.455-.458-.505-1.18-.757-2.167-.757h-2.701zm2.855-4.463c2.921 0 5.038.595 6.346 1.784 1.309 1.191 1.963 2.99 1.963 5.4v1.118c0 1.605-.289 2.93-.864 3.97-.579 1.043-1.497 1.815-2.756 2.321 1.532.508 2.61 1.333 3.239 2.477.627 1.147.943 2.551.943 4.217v2.543c0 2.412-.714 4.248-2.142 5.513-1.43 1.265-3.552 1.898-6.373 1.898h-8.821V8.507h8.465zM170.987 65.82V51.124h9.816v2.99h-6.412v2.78h6.059v2.844h-6.059v3.05h6.781v3.03h-10.185zm20.742-10.876a3.2 3.2 0 0 0-1.185-.924c-.489-.229-.959-.343-1.413-.343-.235 0-.471.021-.712.064-.24.04-.458.12-.65.238-.193.118-.352.27-.485.455-.129.186-.194.427-.194.717 0 .25.05.457.153.622.104.168.256.312.455.436.2.125.436.24.71.344.277.103.585.21.929.32.495.169 1.01.35 1.547.55a5.728 5.728 0 0 1 1.463.8c.442.331.804.744 1.092 1.236.289.49.433 1.102.433 1.836 0 .845-.155 1.573-.463 2.19a4.364 4.364 0 0 1-1.245 1.525c-.526.401-1.122.7-1.796.893a7.51 7.51 0 0 1-2.084.29 8.572 8.572 0 0 1-3.03-.55c-.976-.367-1.788-.889-2.432-1.568l2.309-2.365c.358.443.827.813 1.414 1.11.581.298 1.164.447 1.739.447.262 0 .518-.027.762-.083a1.9 1.9 0 0 0 .653-.27 1.34 1.34 0 0 0 .442-.5c.108-.207.166-.455.166-.745 0-.277-.067-.511-.208-.707a2.082 2.082 0 0 0-.585-.529 4.786 4.786 0 0 0-.95-.436c-.38-.131-.807-.273-1.288-.424a12.23 12.23 0 0 1-1.372-.54 4.523 4.523 0 0 1-1.195-.8 3.66 3.66 0 0 1-.846-1.182c-.212-.463-.32-1.028-.32-1.693 0-.817.164-1.514.495-2.095a4.322 4.322 0 0 1 1.299-1.432 5.546 5.546 0 0 1 1.814-.82 8.138 8.138 0 0 1 2.042-.26c.823 0 1.666.154 2.524.456a6.533 6.533 0 0 1 2.259 1.35l-2.247 2.387zm10.97-.789v11.664h-3.525V54.155h-4.125v-3.03h11.774v3.03h-4.124zm8.31 9.838c0 .58-.204 1.065-.608 1.453a2.03 2.03 0 0 1-1.455.58 2.158 2.158 0 0 1-1.484-.58 1.954 1.954 0 0 1-.452-2.22c.11-.25.258-.467.452-.655a2.25 2.25 0 0 1 .67-.445c.256-.11.525-.167.814-.167.566 0 1.05.194 1.455.581.404.388.608.872.608 1.453zm7.977 1.827v-2.902l5.692-5.178c.357-.347.644-.7.865-1.06.22-.358.329-.759.329-1.198 0-.525-.163-.951-.494-1.277-.329-.323-.77-.486-1.32-.486-.577 0-1.047.205-1.412.612-.364.409-.58.945-.649 1.61l-3.319-.457c.083-.748.285-1.412.606-1.997a5.148 5.148 0 0 1 1.228-1.492 5.321 5.321 0 0 1 1.701-.941 6.33 6.33 0 0 1 2.03-.324c.675 0 1.329.09 1.96.272a5.057 5.057 0 0 1 1.692.828c.494.374.889.843 1.183 1.41.297.568.445 1.232.445 1.996 0 .525-.071.997-.206 1.421-.137.42-.327.812-.568 1.172-.24.36-.516.694-.823 1.008-.31.31-.632.617-.961.921l-3.38 3.032h5.959v3.03h-10.558zm21.258-7.39c0-.456-.029-.962-.083-1.514a7.571 7.571 0 0 0-.307-1.547 3.393 3.393 0 0 0-.651-1.203c-.281-.326-.65-.488-1.102-.488-.455 0-.826.162-1.113.488-.29.325-.513.726-.671 1.203a7.126 7.126 0 0 0-.32 1.547 15.691 15.691 0 0 0-.082 1.515c0 .47.028.986.082 1.546.054.56.162 1.079.32 1.557.158.476.381.88.671 1.203.287.325.658.488 1.113.488.452 0 .821-.163 1.102-.488.281-.324.499-.727.651-1.203.15-.478.254-.998.307-1.557.054-.56.083-1.075.083-1.546zm3.546 0a13.84 13.84 0 0 1-.309 2.968c-.206.942-.537 1.769-.989 2.482a5.144 5.144 0 0 1-1.763 1.7c-.722.422-1.599.634-2.628.634-1.03 0-1.911-.212-2.639-.634a5.228 5.228 0 0 1-1.785-1.7c-.46-.713-.793-1.54-1.001-2.482a13.841 13.841 0 0 1-.308-2.967 13.7 13.7 0 0 1 .308-2.958c.208-.934.541-1.749 1.001-2.448a5.199 5.199 0 0 1 1.785-1.672c.728-.414 1.609-.623 2.639-.623 1.029 0 1.906.209 2.628.623.722.417 1.31.973 1.763 1.672.452.699.783 1.514.989 2.448.206.934.309 1.92.309 2.958zm7.3 7.39V55.026l-2.722 2.117-1.794-2.47 4.801-3.549h3.158V65.82h-3.443zm20.021-4.27c0 .802-.162 1.497-.485 2.084a4.396 4.396 0 0 1-1.268 1.45 5.57 5.57 0 0 1-1.763.85 7.15 7.15 0 0 1-1.988.28c-.66 0-1.302-.075-1.928-.228a6.068 6.068 0 0 1-1.712-.696 4.933 4.933 0 0 1-1.351-1.203 4.976 4.976 0 0 1-.866-1.776l3.217-.85c.135.484.418.91.843 1.276.429.366.97.55 1.63.55.25 0 .498-.035.752-.104.254-.068.481-.176.681-.322a1.73 1.73 0 0 0 .495-.57c.131-.235.196-.526.196-.87 0-.377-.086-.687-.258-.936a1.833 1.833 0 0 0-.679-.591 3.415 3.415 0 0 0-.96-.312 6.265 6.265 0 0 0-1.074-.093h-.925v-2.532h1.008c.331 0 .648-.025.949-.073.304-.049.575-.138.816-.271.24-.134.432-.31.577-.533.142-.223.217-.515.217-.877 0-.53-.184-.932-.558-1.211a2.067 2.067 0 0 0-1.277-.418c-.497 0-.924.149-1.29.447-.363.298-.6.693-.71 1.193l-3.217-.748a4.784 4.784 0 0 1 .802-1.629 5.03 5.03 0 0 1 1.27-1.162 5.841 5.841 0 0 1 1.599-.707 6.709 6.709 0 0 1 1.771-.238c.646 0 1.275.083 1.889.25a5 5 0 0 1 1.636.769c.483.347.872.78 1.166 1.3.294.519.444 1.133.444 1.84 0 .817-.23 1.507-.69 2.066-.46.562-1.049.94-1.765 1.134v.062a3.718 3.718 0 0 1 2.022 1.233c.249.297.439.63.578.996.136.364.206.755.206 1.17zM36.577 20.155c-9.342 0-16.916 7.624-16.916 17.026 0 9.404 7.574 17.028 16.916 17.028 9.34 0 16.914-7.624 16.914-17.028 0-9.402-7.574-17.026-16.914-17.026zm0 4.345c6.947 0 12.598 5.688 12.598 12.68 0 6.993-5.651 12.682-12.598 12.682-6.946 0-12.6-5.689-12.6-12.681 0-6.993 5.654-12.681 12.6-12.681zm-3.111-7.075h6.221V.362h-6.22v17.063zm0 56.575h6.221V56.937h-6.22V74zm22.737-33.688h16.95V34.05h-16.95v6.262zM0 40.312h16.95V34.05H0v6.262zM54.95 44.8l-3.241 5.346 14.468 8.889 3.242-5.346L54.95 44.8zM6.975 15.328l-3.242 5.346 14.47 8.888 3.242-5.346-14.47-8.888zM18.203 44.8l-14.47 8.89 3.242 5.346 14.47-8.889-3.242-5.346zm47.974-29.472L51.71 24.216l3.24 5.346 14.47-8.888-3.242-5.346zM48.929 52.85l-5.42 3.076 8.329 14.863 5.419-3.078-8.328-14.86zM21.315 3.574L15.898 6.65l8.326 14.863 5.419-3.078-8.328-14.86zm2.909 49.276l-8.326 14.861 5.416 3.078 8.328-14.863-5.418-3.075zM51.837 3.574l-8.328 14.86 5.419 3.079L57.256 6.65l-5.419-3.076z"/></g></svg>