<svg width="300" height="98" fill="none" xmlns="http://www.w3.org/2000/svg"><path fill-rule="evenodd" clip-rule="evenodd" d="M267.228 57.72a.786.786 0 0 0-1.105.006c-3.337 3.292-6.287 4.632-10.188 4.632-6.956 0-12.402-5.825-12.402-13.262 0-7.56 5.311-13.262 12.361-13.262 4.806 0 7.738 2.21 9.971 4.374a.788.788 0 0 0 1.116-.018l1.516-1.563a.797.797 0 0 0 .223-.577.781.781 0 0 0-.259-.558c-3.595-3.292-6.938-5.338-12.526-5.338-9.189 0-16.392 7.437-16.392 16.936 0 9.653 7.009 16.936 16.304 16.936 6.345 0 10.106-2.862 12.943-5.667a.79.79 0 0 0-.005-1.129l-1.557-1.51zm-61.632-22.091v-2.14a.783.783 0 0 0-.782-.788h-24.071a.788.788 0 0 0-.787.788v2.14c0 .434.353.787.787.787h9.765v32.808c0 1.058-.57 2.04-1.486 2.57l-35.987 20.791c-.916.53-2.05.53-2.967 0l-35.992-20.792a2.26 2.26 0 0 0-2.256 3.915l35.986 20.793a7.52 7.52 0 0 0 3.743.999 7.482 7.482 0 0 0 3.737-1l35.986-20.792a7.489 7.489 0 0 0 3.742-6.478V36.416h9.795a.788.788 0 0 0 .787-.787zm9.365 26.147h19.312c.435 0 .787.353.787.794v2.14a.787.787 0 0 1-.787.787h-22.42a.787.787 0 0 1-.787-.787V33.489c0-.435.352-.788.787-.788h22.197c.435 0 .787.353.787.788v2.14a.787.787 0 0 1-.787.787h-19.089V47.11h17.085c.435 0 .788.353.788.788v2.14a.788.788 0 0 1-.788.788h-17.085v10.951zm81.931-29.08h2.321c.44 0 .793.358.787.793v31.22a.788.788 0 0 1-.787.788h-2.321a.787.787 0 0 1-.787-.787V50.872h-18.39V64.71a.788.788 0 0 1-.787.787h-2.321a.787.787 0 0 1-.787-.787V33.489c0-.435.352-.788.787-.788h2.321c.434 0 .787.353.787.788v13.656h18.39V33.483c0-.435.352-.788.787-.788z" fill="#018BBD"/><path fill-rule="evenodd" clip-rule="evenodd" d="M111 24.847a2.255 2.255 0 0 0 1.957 1.127c.382 0 .769-.1 1.122-.305L150.07 4.904a2.973 2.973 0 0 1 2.966 0l35.991 20.77a2.256 2.256 0 1 0 2.256-3.91L155.292 1a7.495 7.495 0 0 0-7.479 0l-35.984 20.765a2.256 2.256 0 0 0-.829 3.082zM29.76 33.5h8.607c.17 0 .335.083.44.218a.538.538 0 0 1 .1.487l-8.377 31.18a.571.571 0 0 1-.547.417h-7.579a.563.563 0 0 1-.51-.323l-7.768-16.55-4.412 16.462a.571.571 0 0 1-.546.417H.567a.557.557 0 0 1-.447-.224.538.538 0 0 1-.1-.487l8.378-31.186a.571.571 0 0 1 .547-.416h8.072a.57.57 0 0 1 .511.328l7.408 15.928 4.277-15.834a.571.571 0 0 1 .547-.417zm44.486.218c.106.14.14.323.1.487l-4.947 18.44c-1.146 4.215-2.785 7.345-5.006 9.564-2.773 2.77-6.774 4.174-11.897 4.174-8.254 0-13.177-4.292-13.177-11.477 0-1.539.252-3.312.734-5.132l4.277-15.857a.56.56 0 0 1 .546-.417h8.737c.176 0 .34.083.446.224a.58.58 0 0 1 .1.487l-4.412 16.48c-.294 1.08-.429 1.937-.429 2.794 0 2.565 1.528 3.98 4.295 3.98 1.51 0 2.82-.51 3.79-1.48 1.104-1.062 1.844-2.53 2.484-4.913l4.636-17.149a.56.56 0 0 1 .546-.417h8.736a.543.543 0 0 1 .44.212zM94.644 42.2h8.93a.575.575 0 0 0 .552-.429l2.004-7.573a.578.578 0 0 0-.1-.487.557.557 0 0 0-.447-.223H78.259a.56.56 0 0 0-.547.417l-2.05 7.573a.57.57 0 0 0 .094.493c.106.141.27.223.446.223h8.625l-6.18 22.896a.591.591 0 0 0 .1.494c.105.14.27.223.446.223h8.689a.56.56 0 0 0 .546-.417l6.216-23.19zm41.231 1.485c0-2.747-.887-5.084-2.573-6.769-2.297-2.295-5.945-3.417-11.139-3.417h-11.768a.57.57 0 0 0-.546.417l-8.378 31.18a.537.537 0 0 0 .1.488c.106.14.27.223.446.223h8.69c.252 0 .475-.17.546-.417l2.426-9.03h3.032l3.995 9.106a.56.56 0 0 0 .517.335h9.541c.194 0 .37-.1.476-.259a.554.554 0 0 0 .035-.54l-4.541-9.916c5.898-1.814 9.141-5.847 9.141-11.4zm-14.117-1.573h-4.248l-1.745 6.358h4.207c3.613 0 5.857-1.438 5.857-3.757 0-.699-.2-1.227-.652-1.715-.576-.575-1.763-.886-3.419-.886zm42.993-8.36a.558.558 0 0 0-.558-.476h-8.466a.572.572 0 0 0-.464.247l-21.708 31.403a.56.56 0 0 0 .464.88h9.406a.565.565 0 0 0 .47-.252l3.578-5.319h11.239l.693 5.078a.558.558 0 0 0 .558.488h9.095c.164 0 .323-.07.429-.2a.573.573 0 0 0 .129-.452l-4.865-31.397zm-12.179 18.634h5.276l-.846-6.793-4.43 6.793z" fill="url(#paint0_linear)"/><defs><linearGradient id="paint0_linear" x1=".003" y1="66.383" x2="192.408" y2="66.383" gradientUnits="userSpaceOnUse"><stop offset="0" stop-color="#FDCF0D"/><stop offset="1" stop-color="#F37221"/></linearGradient></defs></svg>