<svg width="451" height="135" viewBox="0 0 451 135" fill="none" xmlns="http://www.w3.org/2000/svg">
<path d="M26.893 73.5697C25.6052 73.8019 24.3059 73.9652 23.0007 74.0587C21.8004 74.1528 20.6068 74.3196 19.4266 74.5583C18.1541 74.8238 16.8547 74.938 15.5555 74.8984C14.4949 75.0154 13.2223 75.1217 11.6738 75.228L10.0299 75.1642C9.42993 75.116 8.87859 74.8146 8.51333 74.3351C7.84622 73.8011 7.06034 73.4364 6.22249 73.2721C5.28669 73.156 4.36124 72.9676 3.4544 72.7087C1.71506 72.5386 1.12114 71.5713 1.48174 70.2106C1.61714 69.9756 1.67989 69.7055 1.66204 69.4347C1.51356 69.2752 1.36508 69.1158 1.2166 69.1051C0.156024 68.7543 -0.151542 68.276 0.156024 67.1917C0.325715 66.7347 0.813578 66.1288 0.983269 65.661C1.31205 65.0445 1.64082 64.598 2.04384 64.598C4.17012 63.0021 6.57183 61.813 9.12846 61.0902C11.492 60.3385 13.9265 59.8327 16.3934 59.5807C18.716 59.5063 21.0387 59.4319 23.6795 59.2087C25.2735 59.0492 26.8793 59.0492 28.4733 59.2087C30.1808 59.113 31.8777 59.2087 33.7761 58.9217C34.2746 57.8587 34.7625 57.0827 35.2715 56.0091C35.7806 54.9354 36.417 54.0106 36.926 52.937C38.8987 49.4079 41.0304 46.0488 42.8546 42.3071C44.9758 38.778 47.0969 35.4189 49.2181 31.741C49.7433 30.8284 50.3427 29.9609 51.0104 29.1473C51.674 28.2563 52.6265 27.6248 53.7043 27.3614C53.9611 27.0451 54.3604 26.881 54.7648 26.9256C55.1144 26.8503 55.4759 26.8503 55.8254 26.9256C56.133 27.0957 56.2815 27.2551 56.1118 27.7122C55.9421 28.1693 55.9315 28.4882 55.9103 28.9559C55.698 29.832 55.3394 30.6658 54.8497 31.4221C55.6909 30.6001 56.5991 29.8498 57.5648 29.1791C57.8829 28.8709 58.2011 28.7327 58.4981 28.8921C58.7843 28.8978 59.0631 28.7997 59.2829 28.6158C59.4101 29.3917 59.548 29.8701 59.6859 30.4973C59.5268 30.6567 59.5162 30.965 59.1874 31.4221C59.4312 31.1561 59.7712 30.9991 60.1313 30.9862C60.4737 30.815 60.8282 30.6693 61.1919 30.5504C61.8877 31.8699 62.3132 33.3156 62.4434 34.8024C62.3877 36.4669 61.8456 38.0785 60.8843 39.437C59.2511 42.0413 57.7663 44.4862 56.2921 47.0906C54.8179 49.6949 53.174 52.1398 51.6892 54.7547C51.5337 55.2722 51.2532 55.7432 50.8725 56.126C50.1938 57.8268 50.4695 58.7728 51.8483 58.9748C53.3162 59.11 54.7622 59.4241 56.1542 59.9102C57.4919 60.3338 58.7657 60.9382 59.9404 61.7067C61.1287 62.33 62.1562 63.2216 62.9419 64.311C63.5977 65.5418 64.0254 66.8816 64.2039 68.2654C63.8097 69.1086 63.0444 69.7183 62.1358 69.913C61.2085 70.1375 60.2705 70.3149 59.3253 70.4445C56.9967 70.4132 54.6686 70.5411 52.3573 70.8272C50.0241 71.0504 47.553 71.1248 45.2197 71.3587C43.2454 71.4383 41.5053 72.6817 40.7865 74.5264C38.6654 79.1398 36.4594 83.4449 34.2958 87.8988C32.1323 92.3528 30.1172 96.828 27.9324 101.441C27.7173 101.982 27.4397 102.496 27.1051 102.972C26.9248 103.599 26.7552 104.035 27.0521 104.535C27.2219 105.527 26.9593 106.545 26.3309 107.33C25.5835 108.152 24.727 108.868 23.7856 109.456C23.1139 108.692 22.2903 108.076 21.3675 107.649C20.3557 107.145 19.1752 107.106 18.1327 107.543C17.8145 107.543 17.6661 107.543 17.5176 107.362C17.3691 107.182 17.21 107.192 16.9131 107.033C16.3766 105.915 15.9503 104.747 15.6404 103.546C15.3476 102.128 15.4503 100.657 15.9373 99.2941C16.6373 97.1681 17.3267 95.1166 18.1751 92.7992C19.0236 90.4819 19.7236 88.4728 20.572 86.1662C21.2508 84.4654 22.078 82.7752 22.7674 80.9256C23.4568 79.076 24.4325 77.3858 25.1113 75.6851C26.2143 75.2705 26.3946 74.4626 26.893 73.5697Z" fill="white"/>
<path fill-rule="evenodd" clip-rule="evenodd" d="M199.395 28.4776C199.727 27.478 199.595 26.3819 199.034 25.4906C200.036 25.0336 200.593 23.9472 200.381 22.865C200.59 22.1955 200.561 21.4738 200.296 20.824C200.036 19.6098 199.611 18.4368 199.034 17.3374C198.527 16.1731 197.771 15.135 196.818 14.2973C196.213 13.9571 195.747 13.787 195.428 14.2441C195.188 14.5043 194.797 14.5577 194.495 14.3717C194.602 13.6428 194.573 12.9003 194.41 12.1819C194.418 11.9602 194.051 11.8054 193.471 11.5601C193.216 11.4526 192.92 11.3276 192.597 11.1721C192.411 11.0597 192.198 11.0008 191.982 11.002C191.764 10.9988 191.551 10.9364 191.366 10.8213C190.762 10.3323 190.316 10.0028 189.404 9.34372C188.789 8.84083 188.061 8.4944 187.283 8.33388L187.229 8.33135C186.815 8.31235 186.679 8.30607 186.679 8.15317C186.143 7.89805 185.69 7.64825 185.236 7.39844C184.783 7.14864 184.33 6.89884 183.794 6.64372C183.248 6.38346 182.781 6.12874 182.315 5.8739L182.315 5.87384C181.866 5.62909 181.418 5.38423 180.899 5.13427C180.661 4.88935 180.326 4.76445 179.987 4.79411C179.339 4.59009 178.67 4.46169 177.993 4.41144C177.274 4.28206 176.565 4.10088 175.871 3.86931C175.602 4.13201 175.383 4.44182 175.225 4.78348C175.138 5.01732 174.97 5.20943 174.784 5.42385C174.605 5.62857 174.409 5.85362 174.249 6.15474C174.198 5.85707 174.203 5.59532 174.207 5.36836C174.212 5.11712 174.215 4.9085 174.143 4.74096V3.67797C171.358 2.80313 168.449 2.38671 165.531 2.4449C164.547 2.4449 163.565 2.43898 162.583 2.43307C160.622 2.42127 158.665 2.40948 156.707 2.4449L156.061 2.45645C153.316 2.50517 150.447 2.5561 147.724 2.75317C146.204 2.86313 144.642 2.93044 143.08 2.99774C141.622 3.06056 140.164 3.12338 138.741 3.22088C138.482 3.12636 138.33 2.93989 138.165 2.7363C138.033 2.57359 137.892 2.39994 137.68 2.25356C137.433 2.08275 137.277 1.87196 137.122 1.66264C136.977 1.46813 136.834 1.27488 136.62 1.11616C136.262 1.53337 135.952 1.98981 135.697 2.47679C135.596 2.73959 135.404 2.89835 135.199 3.06811C135.039 3.20047 134.871 3.33952 134.732 3.53978C134.388 4.08267 133.793 4.41457 133.152 4.42206C132.537 4.24136 132.43 3.93309 132.43 2.98703C132.227 2.11253 132.256 1.19976 132.515 0.340175C131.496 0.0716869 130.411 0.395598 129.705 1.17994C129.264 1.69403 128.897 2.13906 128.507 2.61248C128.324 2.83408 128.137 3.0619 127.934 3.30592C126.801 5.08402 124.949 6.27637 122.864 6.56931L122.22 6.72195C117.854 7.75693 113.393 8.81424 109.077 10.1516C104.509 11.5325 100.052 13.2595 95.7453 15.3177C94.1199 15.9552 92.5758 16.6801 90.9927 17.4234L90.9926 17.4234L90.9925 17.4235C90.4374 17.6841 89.8775 17.9469 89.3077 18.2091C87.0972 19.3612 85.0231 20.759 83.1245 22.376C81.8137 23.6821 80.6244 25.1053 79.5716 26.628C78.5473 28.0418 78.234 29.8513 78.7232 31.5284C78.831 33.3114 79.3541 35.0443 80.2504 36.5882C81.1198 38.1976 82.4104 39.539 83.9836 40.4681C86.2576 41.9576 88.7136 43.1473 91.2909 44.0079C92.1571 44.2985 93.0056 44.589 93.854 44.8796C95.5509 45.4607 97.2478 46.0418 99.0861 46.6229C100.487 47.0449 101.932 47.3052 103.392 47.3988L107.857 48.026C108.424 48.1762 108.945 48.4647 109.374 48.8658C109.519 49.4963 109.441 50.1581 109.151 50.7366C108.643 51.8992 108.17 53.1401 107.697 54.3817C107.232 55.6036 106.766 56.8262 106.266 57.9756C105.804 59.0385 105.384 60.1663 104.963 61.2983C104.466 62.6344 103.966 63.9765 103.392 65.2252C100.444 73.102 97.7392 80.8193 95.1408 88.7067C92.5636 96.2752 90.1243 104.173 87.8229 112.22C87.6901 112.807 87.5688 113.204 87.4421 113.619C87.3967 113.767 87.3507 113.918 87.3032 114.08C87.213 114.389 87.0858 114.697 86.9585 115.005C86.8312 115.313 86.704 115.622 86.6138 115.93C85.6787 115.847 84.7364 115.919 83.8245 116.143C82.9542 116.332 82.0718 116.46 81.1837 116.525C80.352 116.598 79.5141 116.515 78.7126 116.281C77.8666 115.944 77.1726 115.309 76.7611 114.495C76.1197 114.75 75.493 115.041 74.8839 115.367C74.6175 115.444 74.2056 115.614 73.7572 115.799C73.4024 115.945 73.0246 116.101 72.6779 116.228C73.6561 114.892 74.7189 113.621 75.8596 112.422C75.3464 112.523 74.8226 112.558 74.3006 112.528C73.9666 112.347 73.5493 112.471 73.3673 112.805C73.1115 112.993 72.8575 113.127 72.6245 113.251C72.2777 113.435 71.9773 113.594 71.787 113.868C71.3544 114.346 70.812 114.711 70.2068 114.931C70.0406 114.925 69.8774 114.96 69.7155 114.995L69.7154 114.995C69.5673 115.027 69.4204 115.058 69.2735 115.058C68.8042 115.029 68.3331 115.065 67.8735 115.165C68.3893 114.75 68.8716 114.295 69.3159 113.804C69.3914 113.733 69.4758 113.663 69.563 113.59L69.5632 113.59C69.8433 113.355 70.1516 113.098 70.281 112.741C70.874 112.041 71.5155 111.384 72.2006 110.774C70.2899 110.854 68.4452 111.498 66.8978 112.624C65.3374 113.437 64.0556 114.699 63.2176 116.249C62.9006 116.82 62.7191 117.456 62.6873 118.109C63.1506 119.223 63.4748 120.391 63.6524 121.585C63.7875 122.84 64.568 123.933 65.7099 124.466C66.9317 125.098 68.1992 125.73 69.4634 126.361L69.4638 126.361C70.5589 126.907 71.6514 127.452 72.7097 127.995C75.3302 129.106 78.1759 129.579 81.014 129.377C81.8537 129.444 82.6791 129.634 83.4639 129.94C84.2632 130.235 84.793 131 84.7896 131.854C85.1202 131.746 85.437 131.6 85.7335 131.418C85.9952 131.549 86.3116 131.498 86.5184 131.29C86.7923 131.882 86.9266 132.53 86.9108 133.182C86.7411 133.799 87.3456 134.171 88.2683 134.171L90.9834 131.758C91.8306 132.074 92.7035 132.316 93.5924 132.481C94.5263 132.661 95.4474 132.903 96.3499 133.204C96.6444 132.87 96.9138 132.514 97.1559 132.141C97.3189 131.909 97.5183 131.76 97.7168 131.613C97.9187 131.463 98.1196 131.313 98.2801 131.078C98.4419 130.84 98.6831 130.687 98.9244 130.535C99.1578 130.387 99.3912 130.239 99.5528 130.015C99.9918 129.668 100.469 129.372 100.974 129.132C103.058 128.406 105.183 127.803 107.337 127.325C108.353 127.116 109.391 126.854 110.42 126.594C111.538 126.311 112.645 126.031 113.701 125.826C114.76 125.492 115.837 125.176 116.913 124.861L116.913 124.861L116.913 124.861L116.913 124.861L116.914 124.861L116.914 124.861L116.914 124.861L116.914 124.861L116.914 124.861L116.914 124.861L116.914 124.861L116.914 124.861L116.915 124.861L116.915 124.861L116.915 124.861L116.915 124.861L116.915 124.861L116.915 124.861L116.915 124.861L116.916 124.861L116.916 124.86L116.916 124.86L116.916 124.86L116.916 124.86L116.916 124.86C119.017 124.245 121.117 123.63 123.087 122.871C126.233 121.778 129.28 120.42 132.197 118.811C132.475 118.728 132.648 118.586 132.809 118.452L132.809 118.452C132.919 118.362 133.023 118.276 133.152 118.215C133.532 118.154 133.871 117.944 134.096 117.631C134.295 117.44 134.521 117.279 134.741 117.123C135.048 116.905 135.342 116.696 135.527 116.43C135.967 116.08 136.443 115.781 136.949 115.537C138.812 114.581 140.617 113.513 142.439 112.435L142.439 112.435C143.696 111.691 144.961 110.942 146.26 110.222C149.42 108.464 152.482 106.538 155.434 104.45C158.139 102.504 160.674 100.591 163.378 98.465C166.147 96.4324 168.643 94.0493 170.802 91.3748C172.948 88.8695 174.665 86.0246 175.882 82.9559C176.961 80.2224 177.121 77.2106 176.338 74.3776C175.655 71.7123 174.427 69.2183 172.732 67.0536C171.095 64.9097 169.121 63.0464 166.888 61.5366C166.229 61.2787 165.614 60.9201 165.064 60.4736C164.47 59.8358 163.664 59.9634 162.604 60.2398C162.356 60.3473 162.211 60.1782 161.95 59.8727C161.875 59.7854 161.791 59.687 161.692 59.5807C161.278 59.1797 160.702 58.9949 160.133 59.0811C159.513 59.0418 158.924 58.7989 158.457 58.3902C158.089 57.8854 158.051 57.2107 158.361 56.6681C158.717 56.4278 159.082 56.1498 159.455 55.8653C160.072 55.3947 160.713 54.9065 161.373 54.5421C162.267 53.8305 163.28 53.2835 164.364 52.9264C165.934 52.3524 167.345 51.7784 168.766 51.0449C169.71 50.5577 170.649 50.1409 171.633 49.704C172.131 49.4832 172.64 49.2573 173.167 49.0146C175.681 47.8559 178.046 46.5272 180.411 45.1984C182.825 43.866 185.152 42.382 187.379 40.7551C187.714 40.52 188.049 40.2405 188.408 39.9417C188.73 39.6733 189.07 39.3892 189.447 39.1075C190.232 38.4267 190.943 37.6641 191.568 36.8327C190.22 37.7785 188.803 38.6448 187.418 39.4915C186.842 39.8438 186.271 40.1927 185.714 40.5425C183.794 41.7564 181.736 42.7343 179.584 43.4551C181.632 42.0698 183.534 40.4925 185.398 38.9466C185.937 38.4997 186.472 38.0555 187.007 37.6193C189.461 35.519 192.119 33.6707 194.941 32.1024C194.779 32.7125 194.704 33.3423 194.718 33.9732C195.387 33.7927 195.991 33.4238 196.457 32.9103C196.764 32.3536 197.146 31.842 197.592 31.3902C198.356 30.5306 198.966 29.5453 199.395 28.4776ZM87.9395 26.2984C87.4417 26.5516 86.9662 26.8467 86.5183 27.1807C86.3911 27.3402 86.0411 27.4784 85.7441 26.9681C85.5065 26.7232 85.1716 26.5983 84.832 26.628C85.7345 25.0946 86.9981 23.8063 88.5122 22.8756C90.0545 21.9837 91.7098 21.3043 93.4333 20.8559C93.0071 21.5125 92.5168 22.1249 91.9697 22.6843C91.3061 23.382 90.5975 24.0354 89.8485 24.6402C89.5422 24.9268 89.2358 25.1814 88.9294 25.4359C88.5994 25.7101 88.2695 25.9843 87.9395 26.2984ZM113.287 40.1599C114.454 37.7043 115.472 35.2382 116.32 32.9209C116.618 32.0747 116.913 31.2112 117.215 30.3303C117.797 28.6328 118.401 26.8707 119.078 25.0441C115.568 25.6786 112.152 26.7499 108.907 28.2331L108.329 28.4954L108.329 28.4954C105.331 29.8559 102.278 31.2417 99.4679 32.8996C99.186 33.1941 98.8648 33.4481 98.5134 33.6544C98.2708 34.0306 97.9393 34.3409 97.5483 34.5579C99.4108 35.1234 101.064 35.7456 102.668 36.3491L102.668 36.3491L102.668 36.3491C103.566 36.6872 104.449 37.0193 105.344 37.3323C105.802 37.4927 106.268 37.655 106.74 37.8193L106.741 37.8195L106.743 37.8205C108.835 38.5488 111.047 39.319 113.287 40.1599ZM153.801 67.3299C155.625 68.074 157.46 68.765 159.454 69.4559C161.437 69.998 162.487 70.9654 162.105 72.1984C162.381 73.304 162.169 74.8559 161.469 77.1732C160.441 79.7169 158.882 82.0111 156.898 83.902C153.691 87.082 150.174 89.931 146.398 92.4059C142.75 94.9465 138.964 97.1575 135.018 99.3579C125.904 104.205 116.396 108.266 106.595 111.497C106.105 111.731 105.577 111.872 105.036 111.912C104.723 111.981 104.413 112.01 104.103 112.039L104.102 112.039C103.792 112.069 103.482 112.098 103.169 112.167C103.348 111.504 103.516 110.869 103.678 110.254L103.678 110.254C104.161 108.424 104.594 106.785 105.11 105.194C105.773 102.984 106.574 100.819 107.507 98.7095C107.92 97.5449 108.318 96.3794 108.715 95.2178L108.716 95.217C109.634 92.5302 110.545 89.8648 111.611 87.2823C112.394 85.387 113.135 83.4499 113.875 81.5138C114.58 79.671 115.284 77.8292 116.023 76.0252C116.261 75.1072 116.617 74.2245 117.084 73.3996C117.736 72.5659 118.617 71.9414 119.619 71.6032L121.337 71.0398C121.886 70.981 122.357 70.8794 122.827 70.7779L122.827 70.7779L122.827 70.7779C123.293 70.6774 123.758 70.5771 124.296 70.5189C124.837 70.4604 125.306 70.3595 125.775 70.2585L125.776 70.2584C126.245 70.1575 126.714 70.0565 127.255 69.998C127.929 69.9252 128.55 69.7863 129.109 69.661L129.109 69.661L129.109 69.661C129.447 69.5853 129.763 69.5146 130.055 69.4666C130.92 69.2543 131.805 69.1297 132.696 69.0945C133.422 68.9708 134.113 68.8816 134.786 68.7948C135.558 68.6952 136.306 68.5987 137.055 68.4567C138.657 68.1624 140.195 67.5828 141.594 66.7453C142.542 65.997 143.689 65.5459 144.892 65.4484C145.963 65.1805 147.088 65.221 148.138 65.5654C150.072 65.9893 151.967 66.5797 153.801 67.3299ZM132.452 36.1949C131.285 38.661 130.108 41.4355 129.09 43.9016C128.769 44.6781 128.433 45.4999 128.086 46.3481C127.33 48.1938 126.524 50.1645 125.717 52.0654C126.104 52.0016 126.494 51.898 126.884 51.7943L126.884 51.7943L126.884 51.7943L126.884 51.7943L126.884 51.7943L126.884 51.7943L126.884 51.7942L126.884 51.7942L126.884 51.7942L126.884 51.7942L126.884 51.7942L126.884 51.7942L126.885 51.7942L126.885 51.7942L126.885 51.7942L126.885 51.7941L126.885 51.7941L126.885 51.7941L126.885 51.7941L126.885 51.7941L126.885 51.7941L126.885 51.7941C127.274 51.6905 127.664 51.5869 128.05 51.5232C128.743 51.4091 129.045 51.278 129.579 51.0462L129.675 51.0049L129.779 50.9599C136.673 48.3874 143.566 45.815 150.312 43.2319C157.057 40.6488 163.813 37.6087 170.579 34.2496C173.11 33.0839 175.537 31.7041 177.834 30.1252C180.123 28.6511 182.256 26.9449 184.197 25.0335C185.002 24.1938 185.757 23.3064 186.456 22.376C187.044 21.5689 187.35 20.59 187.326 19.591C187.13 17.8183 187.636 16.0395 188.736 14.6374C187.315 15.3709 186.689 15.8173 186.679 15.9768C186.032 16.891 185.554 17.1886 185.088 17.1673C184.624 17.0804 184.23 16.7761 184.027 16.3488C184.132 15.9688 184.301 15.6094 184.526 15.2858C184.6 15.1512 184.674 14.986 184.761 14.7914C184.874 14.5405 185.009 14.2405 185.194 13.8933C183.147 15.0733 181.885 15.8173 181.715 16.0193C181.546 16.2213 181.121 15.3709 181.196 13.1811C180.782 13.2383 180.364 13.3255 179.931 13.4157C179.398 13.5267 178.844 13.6423 178.247 13.7126C177.213 13.7941 176.205 14.0757 175.278 14.5418C172.81 15.6509 169.979 15.608 167.546 14.4248C167.443 14.7084 167.227 14.9295 167.035 15.1259C166.911 15.2535 166.796 15.3706 166.729 15.4878C166.448 15.9695 166.064 16.3832 165.605 16.6996C165.386 16.5379 165.204 16.3402 165.02 16.1419C164.83 15.9363 164.639 15.73 164.407 15.5622C163.581 15.7383 162.806 15.9144 162.073 16.0812C160.592 16.4179 159.277 16.7168 158.043 16.9016C156.051 17.4097 154.023 17.765 151.977 17.9646C151.027 18.0944 150.122 18.1416 149.215 18.1889C148.34 18.2346 147.464 18.2803 146.547 18.4004C144.523 18.5953 142.607 19.4036 141.053 20.7177C140.883 21.026 140.724 21.1748 140.565 21.1642C139.962 22.5167 139.316 23.8692 138.67 25.2218C138.119 26.3748 137.568 27.5279 137.044 28.6809V28.637C137.022 28.6966 137.003 28.7536 136.986 28.8081L136.895 29.0091C135.001 30.7058 133.856 33.172 132.781 35.4878L132.78 35.4909L132.777 35.4971L132.771 35.5096C132.664 35.7399 132.558 35.9686 132.452 36.1949ZM136.986 28.8081C136.95 28.9244 136.922 29.0294 136.897 29.1242L136.897 29.1243C136.842 29.3339 136.8 29.4936 136.705 29.615C136.621 29.8392 136.5 30.0633 136.378 30.2888L136.377 30.2892L136.377 30.2893L136.377 30.2894L136.377 30.2894L136.377 30.2895L136.377 30.2895L136.377 30.2896L136.377 30.2897C136.25 30.5236 136.123 30.7588 136.036 30.9969C136.523 30.2483 137.066 29.5377 137.659 28.8709L137.63 28.8699C137.341 28.8601 137.188 28.8549 137.044 28.6902V28.6809L136.986 28.8081ZM135.508 32.9236C135.417 33.1609 135.326 33.3995 135.326 33.6437L135.644 33.4949C135.655 33.2426 135.71 32.9935 135.76 32.7674L135.76 32.7673C135.802 32.5743 135.841 32.3981 135.846 32.2512C135.85 32.1134 135.886 31.9497 135.926 31.7705L135.926 31.7704C135.978 31.5351 136.036 31.273 136.036 31.0075C135.866 31.4011 135.748 31.8158 135.686 32.2406C135.681 32.4695 135.595 32.696 135.508 32.9236ZM158.663 87.8553C158.477 88.0499 158.271 88.2652 158.171 88.5366V88.4835C156.242 90.6498 154.154 92.668 151.924 94.5213C149.487 96.2976 146.952 97.9337 144.33 99.4217C141.541 101.037 138.359 102.643 135.347 104.109C132.367 105.449 129.217 107.022 126.216 108.638C126.087 108.75 125.917 108.8 125.749 108.776H125.134C124.975 108.765 124.837 108.606 124.837 108.298C130.829 105.353 136.652 102.122 142.495 98.7307C148.366 95.3505 153.765 91.208 158.552 86.4107C158.756 86.4875 158.917 86.6464 158.998 86.8485C159.079 87.0507 159.071 87.2775 158.977 87.4736C158.908 87.5988 158.79 87.7222 158.663 87.8553ZM143.736 49.8331C143.638 49.8331 143.525 49.8137 143.407 49.7935C143.154 49.7501 142.878 49.7026 142.676 49.8331C142.622 49.8677 142.567 49.8992 142.511 49.9313L142.511 49.9314C142.259 50.0762 141.988 50.2318 141.71 50.7366C141.93 50.5513 142.208 50.4497 142.495 50.4496C142.961 50.3728 143.393 50.1581 143.736 49.8331ZM145.497 48.1748C146.171 48.0205 146.877 48.0991 147.501 48.398C147.134 48.5584 146.786 48.6724 146.495 48.7676C146.266 48.8428 146.072 48.9064 145.932 48.9721C145.415 49.2445 145.051 49.4006 144.698 49.5521L144.698 49.5521L144.698 49.5522C144.486 49.643 144.278 49.7322 144.044 49.8437C144.367 49.165 144.87 48.5879 145.497 48.1748ZM166.488 41.0003L166.492 40.9986L166.492 40.9985C169.316 39.7109 172.189 38.4014 174.97 36.8433C178.163 35.1186 181.176 33.0782 183.964 30.7524C184.464 30.4401 184.924 30.0429 185.385 29.6453C185.802 29.2851 186.219 28.9245 186.668 28.6264C187.615 27.9946 188.353 27.0957 188.789 26.0433C188.365 25.0866 187.591 24.9059 186.668 25.65C185.647 26.3116 184.688 27.0659 183.805 27.9036C183.478 28.1584 183.168 28.4144 182.858 28.6708C182.263 29.1633 181.666 29.6572 180.941 30.1465C179.817 30.8556 178.753 31.6555 177.759 32.5382C177.406 32.7862 177.059 33.0343 176.713 33.2823C176.02 33.7783 175.327 34.2744 174.578 34.7705C173.554 35.3605 172.568 35.9132 171.581 36.466C170.595 37.0188 169.609 37.5715 168.585 38.1614C166.598 39.2542 164.548 40.2268 162.445 41.074C161.338 41.649 160.233 42.1089 159.18 42.5479L159.179 42.548L159.179 42.5482C158.285 42.9207 157.426 43.2783 156.633 43.6784C156.435 43.7631 156.24 43.8465 156.047 43.9288C154.257 44.6934 152.669 45.3721 150.821 46.2933C150.213 46.5079 149.669 46.8736 149.241 47.3563C148.793 47.7953 148.311 48.1971 147.798 48.5575C147.867 48.5575 147.906 48.5575 147.94 48.5704C147.985 48.5873 148.022 48.6265 148.106 48.717C148.167 48.7824 148.203 48.821 148.246 48.8327C148.308 48.8495 148.385 48.8109 148.572 48.717C149.813 48.1574 151.127 47.7815 152.475 47.6008C153.927 47.3497 155.257 46.6292 156.262 45.5492C156.421 45.241 156.58 45.0815 156.898 45.0922C157.144 44.9932 157.408 44.9496 157.672 44.9646C158.277 44.6872 158.884 44.4446 159.491 44.2019L159.491 44.2019C160.141 43.9424 160.79 43.6829 161.437 43.3807C162.667 42.5968 163.988 41.9684 165.372 41.5099C165.743 41.3401 166.115 41.1704 166.488 41.0003ZM152.507 55.4457C152.35 55.5928 152.224 55.2828 152.221 54.9779C152.539 54.6697 152.656 54.6591 152.815 54.6697L152.843 54.6715C152.992 54.6809 153.132 54.6897 153.122 54.8398C153.115 54.95 153.189 54.984 153.333 55.0506C153.397 55.0804 153.476 55.1168 153.568 55.1693L152.507 55.4457ZM152.221 54.9779L152.221 54.9673V54.978L152.221 54.9779ZM163.324 94.8716L163.324 94.8717C162.949 95.2267 162.554 95.6009 162.084 95.9776C161.76 96.22 161.461 96.4889 161.156 96.7626C160.712 97.1611 160.257 97.57 159.698 97.9229L154.618 101.495C154.162 101.782 153.741 102.069 153.32 102.357C152.869 102.665 152.418 102.972 151.924 103.28C151.025 103.841 150.277 104.401 149.529 104.961L149.529 104.961L149.389 105.066C148.627 105.649 147.764 106.085 146.844 106.352C145.8 106.684 144.871 107.303 144.16 108.138C145.81 107.667 147.393 106.984 148.869 106.108C150.835 105.036 152.736 103.85 154.565 102.557L154.565 102.557L154.565 102.557C156.463 101.218 158.362 99.8786 160.271 98.3799C161.79 97.1074 163.235 95.7481 164.598 94.3087L164.481 93.8516C164.077 94.1593 163.711 94.5053 163.324 94.8716ZM154.851 54.8929C154.79 54.6342 154.747 54.3713 154.724 54.1063L154.883 53.9575C155.042 53.9681 155.201 53.8193 155.36 53.6599C155.657 53.8299 155.795 53.9894 155.795 54.3083C155.718 54.3802 155.644 54.4149 155.569 54.4495C155.49 54.4866 155.41 54.5235 155.328 54.6059C155.169 54.5953 155.01 54.7441 154.851 54.8929ZM146.844 110.923C146.923 110.849 147.043 110.774 147.162 110.7C147.281 110.626 147.4 110.551 147.48 110.477C147.658 110.284 147.875 110.132 148.116 110.03L148.265 110.19C148.138 110.434 147.901 110.601 147.628 110.636C147.466 110.8 147.279 110.938 147.074 111.043C147.072 110.996 146.965 110.923 146.844 110.923ZM146.992 111.083C147.051 111.083 147.075 111.066 147.074 111.043C147.047 111.057 147.02 111.07 146.992 111.083ZM157.216 59.8901C157.28 59.9194 157.357 59.955 157.449 60.0059C157.208 60.2344 156.941 60.4342 156.654 60.6012C156.654 60.5201 156.618 60.4362 156.583 60.3538C156.549 60.2742 156.516 60.196 156.516 60.1228C156.516 60.0624 156.493 60.0003 156.466 59.9264C156.427 59.8183 156.378 59.6852 156.378 59.4957C156.466 59.4139 156.577 59.3619 156.696 59.3469L156.993 59.6764C156.993 59.7881 157.066 59.8216 157.216 59.8901ZM161.002 91.2473C160.752 91.5586 160.465 91.7857 160.2 91.9949L160.2 91.995C159.95 92.193 159.72 92.375 159.56 92.5973C159.377 92.8517 159.053 93.0534 158.719 93.2612C158.453 93.4266 158.181 93.5958 157.969 93.7984C157.799 93.9614 157.609 94.1216 157.419 94.281C157.077 94.5689 156.738 94.8543 156.527 95.1484C156.345 95.4006 156.041 95.6011 155.691 95.8318L155.691 95.8319L155.691 95.8319L155.691 95.832L155.69 95.8322L155.69 95.8323L155.69 95.8324L155.69 95.8326L155.689 95.8329C155.405 96.0202 155.091 96.2274 154.787 96.4984C154.321 97.012 153.717 97.3809 153.048 97.5614C152.263 97.689 151.934 98.3055 152.359 99.4217C156.885 96.5178 161.057 93.0929 164.789 89.2169C163.896 89.2672 163.054 89.6457 162.423 90.2799C161.819 90.1736 161.331 90.7902 161.013 91.2473H161.002ZM168.564 7.38782L168.108 7.05829H168.119C168.299 6.43112 168.617 6.13349 169.116 6.15475L170.452 6.51616C169.852 6.8676 169.22 7.15954 168.564 7.38782ZM158.245 103.652C158.509 103.241 158.9 102.927 159.358 102.759L159.666 102.93C159.49 103.164 159.275 103.365 159.03 103.525C158.776 103.682 158.556 103.888 158.383 104.131L158.245 103.652ZM164.301 98.7095C164.131 99.0177 163.972 99.1559 163.813 99.1559V99.4748C164.015 99.3719 164.185 99.2133 164.301 99.0177V98.7095ZM172.435 47.2394L172.446 47.2388L172.446 47.2394H172.435ZM172.446 47.2388C172.836 46.2921 173.577 45.5339 174.514 45.124C175.332 45.1846 176.149 44.9957 176.858 44.5819C176.292 45.2588 175.648 45.8655 174.938 46.389C174.201 46.8958 173.339 47.1898 172.446 47.2388ZM180.305 9.20553C180.464 9.20553 180.623 9.05671 180.782 8.90789L181.227 9.38624C181.227 9.54569 181.068 9.69451 180.909 9.84332L180.421 10.3004C180.383 10.2111 180.355 10.1344 180.332 10.0701C180.272 9.90474 180.242 9.82206 180.135 9.82206C180.135 9.74367 180.097 9.70382 180.059 9.66461C180.02 9.62407 179.981 9.58422 179.987 9.50317C179.997 9.34372 180.146 9.20553 180.305 9.20553ZM188.45 32.9421C189.37 32.3197 190.226 31.6075 191.006 30.8162C191.805 29.9834 192.311 28.9124 192.448 27.7654C191.536 28.3258 190.683 28.9776 189.903 29.7106C189.621 29.9219 189.338 30.1533 189.049 30.3904C188.523 30.8215 187.973 31.2719 187.357 31.6559C186.847 31.9744 186.336 32.3811 185.827 32.7864L185.827 32.7865L185.827 32.7865C185.385 33.1389 184.943 33.4903 184.505 33.7819C184.169 34.005 183.85 34.2402 183.53 34.477L183.53 34.4771L183.53 34.4771L183.53 34.4772L183.53 34.4773C182.949 34.906 182.362 35.34 181.652 35.7165C180.934 36.1021 180.288 36.6092 179.743 37.2154C179.569 37.457 179.315 37.6095 179.089 37.7452C178.888 37.8661 178.709 37.9736 178.629 38.1189C178.459 38.4272 178.141 38.7248 177.834 38.8736C177.575 39.2606 177.352 39.6696 177.165 40.0961C179.223 38.7567 181.121 37.5732 182.861 36.5457C184.856 35.5881 186.721 34.377 188.407 32.9421H188.45ZM189.829 23.4496C189.953 23.0229 190.12 22.6098 190.327 22.2165C190.828 22.9175 191.218 23.692 191.483 24.5126C191.09 24.3472 190.646 24.3472 190.253 24.5126H189.32C189.586 24.2135 189.762 23.845 189.829 23.4496ZM192.925 27.6272C193.204 27.3413 193.588 27.1835 193.986 27.1913C194.371 26.9427 194.656 26.5665 194.792 26.1284C194.028 25.7882 193.562 25.9264 193.551 26.3941C193.478 26.6418 193.355 26.8417 193.229 27.0445C193.118 27.2247 193.005 27.4071 192.925 27.6272ZM197.433 30.1358V31.3795L194.93 31.1351C195.267 30.6974 195.643 30.2917 196.054 29.9233C196.514 29.5012 196.943 29.0464 197.337 28.5626C197.382 28.8523 197.376 29.1079 197.371 29.3463C197.364 29.6241 197.359 29.8784 197.433 30.1358Z" fill="white"/>
<path fill-rule="evenodd" clip-rule="evenodd" d="M240.481 81.7646C240.487 81.7437 240.507 81.7164 240.545 81.6803L240.519 81.7157C240.506 81.7321 240.494 81.7484 240.481 81.7646ZM238.647 83.0516C239.372 82.8128 240.01 82.3647 240.481 81.7646C240.464 81.8244 240.562 81.831 240.666 81.8379L240.694 81.8398C240.581 82.2263 240.409 82.6127 240.255 82.9599C240.164 83.1666 240.078 83.3594 240.015 83.5299C239.934 83.7466 239.818 83.9967 239.7 84.2508L239.7 84.2508C239.569 84.5328 239.436 84.8197 239.347 85.0713C239.119 85.4206 238.958 85.7722 238.805 86.1067C238.622 86.5051 238.45 86.8795 238.191 87.1973C237.919 87.9391 237.513 88.6239 236.992 89.2169C236.419 90.0844 235.769 90.8991 235.051 91.6512L234.774 91.8968L234.774 91.8968C232.151 94.2178 229.524 96.543 226.758 98.7095C223.855 100.918 220.788 102.901 217.584 104.641C216.917 105.149 216.172 105.544 215.378 105.81C214.671 106.229 213.852 106.418 213.034 106.352C211.998 106.478 210.906 106.643 209.822 106.807L209.821 106.807C208.796 106.962 207.777 107.116 206.819 107.235C204.771 107.58 202.683 107.612 200.625 107.33C197.381 107.064 194.295 105.81 191.78 103.737C189.502 101.604 187.832 98.8992 186.944 95.9032C186.281 93.8734 185.924 91.7561 185.883 89.6209C185.862 87.4285 185.99 85.2373 186.265 83.0622C187.355 77.902 189.013 72.8787 191.207 68.0847C193.523 63.0682 196.333 58.2965 199.596 53.8406C203.556 48.6214 208.821 44.5436 214.858 42.0201C218.623 40.5851 222.038 40.2343 224.944 41.1166C229.421 42.0519 233.599 44.0781 237.109 47.0162C237.488 47.2595 237.798 47.5962 238.01 47.9941C238.283 48.1892 238.44 48.4441 238.589 48.6855C238.684 48.8387 238.775 48.9865 238.891 49.1103C241.012 51.5339 240.874 54.3402 238.594 57.7099C237.499 59.4065 236.323 61.109 235.191 62.7478L235.191 62.748L235.19 62.7487L235.19 62.749L235.19 62.7491L235.19 62.7492L235.19 62.7492L235.189 62.7499C234.797 63.3179 234.41 63.8782 234.033 64.428C232.318 66.6952 230.431 68.8274 228.391 70.8059C227.603 71.4841 226.892 72.2469 226.27 73.0807C225.65 73.9345 224.981 74.7509 224.265 75.5256C224.265 76.5886 223.735 77.2264 222.812 77.1945C222.135 77.8156 221.491 78.472 220.882 79.161C220.285 79.8401 219.643 80.4792 218.963 81.0744C218.024 81.9587 217.043 82.8066 216.065 83.6522L216.064 83.6523L216.064 83.6524C215.208 84.3925 214.354 85.1307 213.532 85.8898C212.792 86.5733 212 87.2099 211.199 87.8532C210.095 88.7406 208.974 89.6407 207.954 90.6945C207.557 90.981 207.134 91.23 206.692 91.4386C206.234 91.7094 205.759 91.9509 205.271 92.1614C204.609 92.3039 203.928 92.3362 203.255 92.2571C203.028 92.9122 202.85 93.5839 202.725 94.2662C202.502 96.2858 203.065 97.8697 204.284 98.3906C204.854 98.7188 205.549 98.7427 206.14 98.4544C206.789 98.0387 207.474 97.6829 208.187 97.3914C214.903 94.2823 221.054 90.0717 226.387 84.9331C226.965 84.3649 227.503 83.7575 227.999 83.1154C228.167 82.7995 228.416 82.5283 228.685 82.2359C228.94 81.9576 229.214 81.6603 229.452 81.287C229.844 80.8467 230.273 80.4413 230.735 80.0752C230.946 79.7717 231.293 79.6135 231.642 79.4543C231.818 79.3738 231.996 79.293 232.156 79.1929C231.771 80.2819 231.321 81.3468 230.809 82.3819C230.136 83.356 229.674 84.4603 229.452 85.624C229.974 85.1384 230.45 84.6046 230.873 84.0295C231.308 83.4324 231.794 82.8741 232.326 82.3606C232.44 82.2515 232.55 82.1524 232.653 82.0587L232.653 82.0586C233.124 81.632 233.472 81.3173 233.62 80.6811C233.8 80.0646 234.426 79.6181 235.37 79.1823C235.765 79.774 235.675 80.5654 235.157 81.0532C234.695 81.6128 234.498 82.3456 234.617 83.0622C234.86 82.7593 235.102 82.4935 235.343 82.2278L235.343 82.2277C235.584 81.962 235.826 81.6963 236.07 81.3933C236.461 80.8537 236.893 80.3455 237.363 79.8733C237.842 80.2218 238.246 80.6627 238.551 81.1701C238.7 81.489 238.35 82.5732 237.671 84.4229C237.9 83.9041 238.232 83.4375 238.647 83.0516ZM199.65 61.0158C201.017 59.5035 202.388 58.0115 203.726 56.5554C206.008 54.071 208.194 51.6911 210.107 49.4929L209.661 49.1634C207.648 50.0565 205.895 51.4506 204.571 53.2134C202.707 55.6656 201.06 58.2763 199.65 61.0158ZM207.466 58.7835C206.649 60.0059 205.674 61.3772 204.698 62.5996C204.625 62.5166 204.515 62.4715 204.403 62.4261C204.287 62.3786 204.169 62.3307 204.093 62.2382C205.532 59.4416 207.453 56.9224 209.767 54.7973C209.767 54.8657 209.767 54.9066 209.787 54.9311C209.817 54.9674 209.891 54.9674 210.075 54.9674C209.27 56.283 208.4 57.5566 207.466 58.7835ZM218.581 55.1055C217.011 56.0714 215.61 57.2887 214.434 58.7091C212.863 60.5238 211.444 62.465 210.192 64.513C208.934 66.6337 207.825 68.8394 206.872 71.1142C206.012 73.0449 205.371 75.0668 204.963 77.1414C206.52 73.2196 208.364 69.418 210.478 65.7674C212.856 61.9784 215.568 58.4102 218.581 55.1055ZM205.005 85.1244C204.679 85.2239 204.398 85.4345 204.21 85.7197C204.231 85.0926 204.242 84.6248 203.796 84.3166C204.218 84.1491 204.56 83.8256 204.751 83.413C207.01 80.8406 209.089 78.5551 211.337 76.291C213.585 74.0268 215.834 71.6032 218.082 69.1796C218.404 68.7323 218.721 68.3589 219.036 67.9871C219.365 67.5988 219.693 67.2123 220.023 66.7453C221.184 65.4359 222.186 64.0382 223.203 62.6198L223.203 62.6197L223.203 62.6196L223.203 62.6195L223.203 62.6194L223.203 62.6192L223.203 62.6191C223.597 62.0688 223.994 61.5153 224.403 60.9626C224.81 60.5697 225.141 60.1048 225.379 59.5914C225.737 59.0294 226.314 58.6438 226.97 58.5284C227.262 59.0677 227.238 59.7238 226.906 60.2398C226.638 60.7382 226.31 61.2022 225.93 61.6217C225.078 62.8161 224.095 64.0059 223.11 65.1972L223.11 65.1972L223.11 65.1973L223.11 65.1973L223.11 65.1973L223.11 65.1973L223.11 65.1975C222.587 65.8297 222.065 66.4622 221.561 67.0961C220.322 68.6547 218.968 70.2056 217.695 71.6631L217.695 71.6632L217.695 71.6637L217.694 71.6649C217.474 71.9165 217.257 72.1654 217.043 72.4111C215.293 74.5427 213.416 76.5661 211.422 78.4701C210.269 79.6371 209.181 80.707 208.081 81.7887C207.187 82.6678 206.285 83.5547 205.334 84.5079C205.328 84.6035 205.268 84.6953 205.187 84.8199C205.133 84.9031 205.069 85.001 205.005 85.1244ZM205.864 78.1193C205.681 78.3967 205.564 78.7135 205.525 79.0441C205.656 79.3462 205.539 79.7724 205.346 80.4762L205.313 80.5961C205.842 80.0956 206.279 79.5918 206.673 79.139C206.989 78.7744 207.278 78.4427 207.561 78.1725C208.198 77.5666 208.845 76.8118 209.492 76.0465C211.113 74.4209 212.676 72.7275 214.254 71.0171C215.174 70.0207 216.098 69.0186 217.043 68.0209C219.508 65.3649 221.683 62.4536 223.534 59.3362C224.845 57.523 225.951 55.5693 226.832 53.511C227.373 51.3851 226.45 50.9918 224.255 51.8528C224.01 52.0088 223.806 52.1239 223.599 52.241C223.411 52.3473 223.22 52.4553 222.993 52.5969C220.005 54.5395 217.443 57.0712 215.463 60.0378C213.357 62.8587 211.447 65.8207 209.746 68.9032C208.282 71.9003 206.986 74.9771 205.864 78.1193ZM211.316 59.2299C212.542 57.6156 213.943 56.1431 215.494 54.8398C214.537 56.4914 213.391 58.0254 212.079 59.4107C211.803 59.7858 211.518 60.1679 211.229 60.5533C210.334 61.7516 209.413 62.9828 208.675 64.141C209.433 62.4406 210.315 60.7991 211.316 59.2299ZM231.891 59.3256C231.298 59.9931 230.756 60.7037 230.268 61.4516C230.024 61.829 229.78 62.1718 229.536 62.5146C229.293 62.8574 229.049 63.2002 228.805 63.5776C229.112 63.5776 229.261 63.5776 229.409 63.7477C229.952 63.0764 230.445 62.3658 230.883 61.6217C231.37 60.8761 231.909 60.1657 232.495 59.4957H232.188L232.188 59.4957C232.1 59.3956 232.065 59.3544 232.019 59.3375C231.988 59.3256 231.952 59.3256 231.891 59.3256ZM229.568 68.1591C229.104 68.5186 228.674 68.9207 228.285 69.3603C228.836 68.434 229.547 67.6134 230.385 66.9366C230.37 67.4676 230.052 67.9428 229.568 68.1591ZM235.709 60.2398L233.28 63.4288L230.852 66.6177C232.184 65.9941 233.259 64.9274 233.895 63.5988C234.564 62.4195 235.327 61.2961 236.176 60.2398H235.709ZM234.574 66.1607H235.2H235.21C235.635 65.6279 236.03 65.0335 236.423 64.4443C236.922 63.6933 237.417 62.9508 237.957 62.3551C238.241 61.8965 238.541 61.4153 238.848 60.9254C239.435 59.9848 240.044 59.0118 240.588 58.1032C240.468 58.0926 240.358 58.0353 240.28 57.9437C239.66 58.6753 239.129 59.5147 238.617 60.3234C238.192 60.9952 237.78 61.6458 237.342 62.1957C236.867 62.7926 236.425 63.4695 235.982 64.1476C235.526 64.8461 235.069 65.5458 234.574 66.1607Z" fill="white"/>
<path fill-rule="evenodd" clip-rule="evenodd" d="M306.216 110.402C306.569 109.689 307.007 109.022 307.52 108.415L305.399 108.755C305.305 108.378 305.246 108.056 305.196 107.79L305.196 107.79C305.101 107.275 305.043 106.964 304.848 106.852C304.105 106.56 303.285 106.534 302.525 106.778C302.672 106.547 302.736 106.273 302.705 106.002L302.706 105.969C302.716 105.672 302.721 105.528 302.578 105.374C301.507 104.864 301.093 104.375 301.093 103.599L301.167 101.409C301.402 99.9128 301.558 98.4048 301.634 96.8918C301.676 95.4205 301.882 93.9586 302.249 92.5335C302.354 92.1535 302.523 91.794 302.748 91.4705C303.114 91.1007 303.378 90.6433 303.516 90.1433C303.417 90.6675 303.556 91.0536 303.829 91.2048C304.208 90.2156 304.574 89.238 304.937 88.2657L304.94 88.2582L304.941 88.2558L304.941 88.2554C305.882 85.7415 306.809 83.2631 307.902 80.713H307.594C307.101 81.4451 306.661 82.2125 306.279 83.0091C306.106 83.4045 305.895 83.7998 305.663 84.2331L305.663 84.2333C305.44 84.6504 305.198 85.1027 304.954 85.624C305.163 84.4501 305.52 83.3072 306.014 82.2225C306.496 81.2174 306.958 80.3643 307.572 79.232L307.572 79.2318L307.679 79.0335C308.266 77.9933 308.854 76.9734 309.433 75.9661C310.477 74.153 311.497 72.3807 312.452 70.604C314.096 67.8508 315.591 65.087 317.076 62.3233C317.695 61.561 318.242 60.7425 318.709 59.8784C318.879 59.4951 319.086 59.1066 319.313 58.6806L319.314 58.6805L319.314 58.6804C319.54 58.2558 319.786 57.794 320.035 57.2634C320.219 56.986 320.335 56.6693 320.374 56.3386L320.375 56.3106C320.385 56.0207 320.391 55.8709 320.236 55.8709C319.78 55.6902 319.483 55.5307 319.346 55.0524C319.388 54.6473 319.225 54.248 318.911 53.9894C318.508 52.4055 317.596 51.9059 315.867 52.6288C315.764 52.1365 315.508 51.6898 315.135 51.3532C315.138 50.9491 314.912 50.5783 314.552 50.3965C314.064 50.8064 313.535 51.1627 312.972 51.4595C312.769 51.7545 312.453 51.9201 312.094 52.1084C311.871 52.2255 311.631 52.3513 311.391 52.5225C311.497 52.1401 311.74 51.8804 311.976 51.6293C312.121 51.4754 312.262 51.3248 312.367 51.1512C312.643 50.6941 312.812 50.2264 312.367 49.7481C311.905 49.2461 311.4 48.7412 310.917 48.2588L310.917 48.2586L310.916 48.2581L310.916 48.2578L310.916 48.2576L310.916 48.2575L310.915 48.2574L310.915 48.2566C310.468 47.8102 310.04 47.3829 309.684 46.9949C308.728 46.0199 307.362 45.565 306.014 45.7725C305.932 45.6837 305.8 45.6411 305.646 45.5914C305.523 45.5518 305.387 45.5077 305.251 45.4323C305.109 45.4273 304.932 45.3837 304.752 45.3394C304.553 45.2906 304.351 45.241 304.19 45.241C303.862 45.2298 303.583 45.128 303.325 45.0338C303.091 44.9483 302.874 44.8689 302.652 44.8689C302.192 44.7894 301.723 44.7894 301.263 44.8689C298.431 45.11 295.646 45.7469 292.99 46.7611C290.349 47.8755 287.775 49.1426 285.28 50.5559C280.277 53.2041 275.511 56.2805 271.037 59.7508C266.614 63.1949 262.287 66.7985 258.129 70.7209C255.573 73.1658 253.166 75.5788 250.907 78.1618C248.613 80.8162 246.548 83.6611 244.734 86.6658C243.95 87.9258 243.304 89.3356 242.706 90.642C242.431 91.2423 242.166 91.8207 241.903 92.3528C241.052 94.2222 240.463 96.2003 240.153 98.2311C239.888 101.356 240.269 103.865 241.913 105.491C243.799 107.377 246.453 108.277 249.093 107.926L251.214 108.011C253.566 108.362 255.968 108.121 258.204 107.309C261.178 106.248 264.068 104.962 266.847 103.461L267.107 103.318C269.704 101.889 272.3 100.459 274.897 98.7307C275.094 98.6001 275.29 98.4705 275.484 98.3417L275.486 98.3405C277.488 97.0142 279.35 95.7808 281.08 94.415C281.943 93.7944 282.775 93.1997 283.603 92.6085L283.606 92.6065L283.607 92.6058L283.609 92.6047L283.609 92.6046L283.611 92.603L283.613 92.6015L283.616 92.5999L283.618 92.5984C284.77 91.7753 285.914 90.9588 287.115 90.0886H287.73V91.5024C287.125 95.7672 287.233 100.103 288.048 104.333C288.431 107.202 289.822 109.841 291.972 111.774C292.506 112.142 293.062 112.475 293.637 112.773C294.278 113.153 295.051 113.238 295.758 113.007C296.735 112.868 297.72 112.797 298.707 112.794C299.646 112.775 300.582 112.915 301.475 113.209C301.98 113.414 302.551 113.375 303.023 113.102C303.262 112.954 303.498 112.845 303.734 112.736C303.97 112.627 304.206 112.518 304.445 112.369C305.548 111.784 306.216 111.019 306.216 110.402ZM259.529 73.8992C255.2 78.2408 251.211 82.9105 247.598 87.867C248.423 85.7652 249.533 83.7872 250.896 81.9886C252.878 79.2741 255.089 76.7349 257.504 74.3989C259.921 71.7893 262.538 69.3725 265.331 67.1705C267.722 65.1965 270.269 63.4191 272.946 61.8555C268.225 65.5825 263.744 69.6051 259.529 73.8992ZM252.37 87.5578L252.37 87.5578L252.37 87.5577L252.37 87.5577C252.752 87.0307 253.116 86.5277 253.389 86.028C254.147 85.1378 254.801 84.1642 255.34 83.126L255.022 82.9666C254.727 83.4435 254.402 83.8906 254.088 84.322L254.088 84.3221L254.088 84.3221C253.703 84.8522 253.335 85.3587 253.06 85.8685C252.297 86.7551 251.642 87.7293 251.108 88.7705L251.427 88.9299C251.725 88.4481 252.053 87.9947 252.37 87.5578ZM304.285 54.6591C304.026 54.8665 303.81 55.1229 303.649 55.4138V55.4244C299.566 60.1147 295.361 64.665 291.254 69.1103L291.254 69.1106L291.253 69.1107L290.424 70.0087C286.083 74.5512 281.437 79.0796 276.488 83.5937C271.383 88.3457 265.852 92.6158 259.964 96.3496C258.89 96.9941 257.782 97.5796 256.645 98.1036C256.486 98.1893 256.327 98.2749 256.167 98.3607C255.221 98.8704 254.257 99.3891 253.177 100.017C253.127 99.7233 253.133 99.4646 253.138 99.2398C253.144 98.9845 253.149 98.7728 253.07 98.6032C253.075 98.4711 253.113 98.3098 253.154 98.1317C253.21 97.8941 253.272 97.6268 253.272 97.3595C253.753 94.1306 255.207 91.1262 257.44 88.7492C258.93 86.9611 260.419 85.2857 261.815 83.7168L261.815 83.7167L261.815 83.7162L261.815 83.716L261.815 83.7159C262.079 83.4198 262.339 83.1275 262.594 82.839C263.646 81.6646 264.751 80.6065 265.843 79.5599L265.843 79.5598C266.59 78.8445 267.331 78.1345 268.046 77.3965C268.63 76.4488 269.394 75.6254 270.294 74.9729C270.694 74.7059 271.073 74.3923 271.456 74.0751C271.951 73.6662 272.453 73.2513 273.015 72.922C273.014 73.005 272.974 73.1182 272.928 73.2494L272.928 73.2495C272.864 73.4343 272.787 73.6549 272.787 73.878C273.357 73.4195 273.893 72.9185 274.388 72.3792C274.568 72.1149 274.849 71.9083 275.175 71.6693L275.175 71.6692C275.419 71.4902 275.687 71.293 275.956 71.0398H276.308C277.897 69.9786 279.388 68.7761 280.762 67.4469C281.57 66.8899 282.397 66.3342 283.224 65.7785L283.224 65.7784C284.827 64.7007 286.43 63.6229 287.9 62.5358C290.098 60.7462 292.497 59.2194 295.048 57.9862C296.476 57.0933 298.053 56.2075 299.778 55.3288C301.416 54.5981 303.153 54.1145 304.932 53.8937C304.675 54.11 304.456 54.3689 304.285 54.6591ZM275.956 71.0398L275.979 71.0185H275.152C275.029 71.1328 274.885 71.2236 274.736 71.318C274.495 71.4693 274.24 71.6299 274.038 71.9114C273.655 72.1756 273.299 72.4784 272.977 72.815C273.005 72.8405 273.016 72.8768 273.015 72.922C273.059 72.8964 273.103 72.8714 273.147 72.8469C273.275 72.7273 273.423 72.6333 273.576 72.5364C273.817 72.3834 274.07 72.2231 274.271 71.9433C274.672 71.68 275.045 71.3773 275.385 71.0398H275.956ZM261.226 81.6059C259.909 82.8396 258.673 84.1569 257.525 85.5496C256.422 86.9079 255.488 88.3966 254.746 89.9823C255.711 88.7599 256.867 87.2398 257.832 85.7303C258.568 84.9755 259.198 84.1723 259.803 83.4006L259.803 83.4006C260.297 82.7704 260.774 82.1613 261.279 81.6166L261.226 81.6059ZM264.423 81.8147C264.597 81.6307 264.772 81.4477 264.949 81.2658L265.002 81.2764C264.807 81.4544 264.614 81.6339 264.423 81.8147ZM264.423 81.8147C262.461 83.8861 260.641 86.0893 258.978 88.4091C257.162 90.8941 255.517 93.501 254.057 96.2114C255.113 93.3839 256.617 90.7457 258.511 88.3984C260.297 86.0432 262.274 83.8411 264.423 81.8147ZM266.847 75.7063C266.766 75.7063 266.726 75.7063 266.705 75.7262C266.685 75.7452 266.683 75.7824 266.678 75.8551C266.678 75.8965 266.661 75.9361 266.63 75.9643C266.6 75.9926 266.56 76.0069 266.519 76.004C266.425 76.0976 266.386 76.1363 266.34 76.1501C266.308 76.1597 266.272 76.1572 266.211 76.1528H266.211H266.211H266.211H266.211H266.211H266.211H266.211C266.211 76.3028 266.342 76.3117 266.482 76.3211L266.508 76.3229L266.847 75.7063ZM294.549 70.7315C294.791 70.3542 295.122 70.0435 295.515 69.828C295.826 69.44 296.116 69.0354 296.384 68.6162L296.236 68.4567C296.087 68.4567 295.928 68.4567 295.939 68.2866C294.615 69.6805 293.221 71.0694 291.828 72.4582L291.828 72.4583C290.342 73.9396 288.855 75.4207 287.454 76.9075C285.815 78.6465 284.056 80.3196 282.32 81.9714L282.32 81.9716L282.32 81.9717C281.18 83.056 280.05 84.1311 278.97 85.2095L278.811 85.5177C279.118 85.5177 279.277 85.3796 279.277 85.2201L279.765 84.763C280.64 83.9368 281.515 83.1293 282.384 82.3277L282.384 82.3277L282.384 82.3276L282.384 82.3276L282.384 82.3275L282.384 82.3275C284.053 80.788 285.698 79.2702 287.274 77.6835C288.233 76.7451 289.259 75.7967 290.322 74.8129L290.322 74.8128L290.323 74.8126L290.323 74.8121C291.705 73.5337 293.152 72.1956 294.602 70.7421L294.549 70.7315ZM309.492 54.1939C309.46 54.2006 309.429 54.2069 309.397 54.2126L309.408 54.2658C309.436 54.2417 309.464 54.2177 309.492 54.1939ZM309.492 54.1939C310.448 53.9882 311.247 53.3252 311.625 52.4162C311.459 52.6538 311.251 52.8052 311.066 52.9392C310.896 53.0629 310.747 53.1717 310.67 53.3197C310.258 53.5847 309.865 53.8768 309.492 54.1939ZM312.812 71.837C312.972 71.5394 313.438 71.3906 314.064 71.4118C312.925 73.0346 311.884 74.7242 310.946 76.4717H310.787C310.956 76.1634 310.956 76.004 310.787 75.8445C310.617 75.6851 310.787 75.3768 310.967 75.228C311.031 75.0507 311.119 74.855 311.212 74.6457L311.212 74.6457C311.365 74.3028 311.534 73.9232 311.646 73.5272C312.194 73.0953 312.604 72.5112 312.823 71.8477L312.812 71.837ZM312.812 67.2981H312.505L312.526 66.6766C312.526 66.7469 312.559 66.7841 312.593 66.8218C312.628 66.861 312.664 66.9009 312.664 66.9792C312.664 67.0589 312.701 67.0987 312.738 67.1386C312.775 67.1785 312.812 67.2183 312.812 67.2981ZM312.526 66.6766L312.526 66.6705L312.526 66.6603L312.526 66.6766ZM316.567 66.2351C316.583 67.1839 316.276 68.1099 315.697 68.8607C315.148 69.587 314.655 70.3546 314.223 71.1567C314.142 70.2215 314.394 69.2876 314.934 68.5205C315.21 68.1952 315.463 67.7952 315.726 67.3812L315.726 67.3811C315.978 66.9835 316.239 66.5729 316.535 66.2032L316.567 66.2351ZM318.502 63.1749C318.468 63.2593 318.427 63.3588 318.359 63.4819L318.508 63.6307C318.569 63.5194 318.628 63.4288 318.678 63.3511C318.767 63.2136 318.83 63.116 318.837 63.0142C318.843 62.9186 318.903 62.8268 318.984 62.7022C319.038 62.619 319.102 62.5211 319.165 62.3977H318.858C318.877 62.5715 318.814 62.7443 318.688 62.8654C318.592 62.9547 318.554 63.0479 318.502 63.1749Z" fill="white"/>
<path fill-rule="evenodd" clip-rule="evenodd" d="M367.602 97.8378C367.934 97.5592 368.259 97.2712 368.575 96.9741C368.575 97.0033 368.576 97.0326 368.577 97.0618L368.677 96.8779C368.965 96.603 369.247 96.3205 369.521 96.0307C369.765 95.6921 369.984 95.3369 370.179 94.9677C370.389 94.7715 370.465 94.566 370.541 94.3605L370.541 94.3604C370.58 94.2542 370.619 94.1479 370.677 94.0429C370.5 94.0819 370.329 94.1397 370.166 94.2146C370.235 94.0956 370.296 93.9913 370.348 93.9009C370.448 93.7294 370.519 93.6081 370.561 93.5327C370.604 92.9965 370.313 92.489 369.829 92.2571L366.965 94.3831C366.827 93.9154 367.315 93.3095 367.952 92.7036C368.747 92.1083 368.768 91.4811 367.867 90.8221C367.4 91.1165 367.006 91.4499 366.611 91.7837L366.611 91.7838C366.208 92.1249 365.804 92.4665 365.321 92.7673C364.54 93.5279 363.551 94.0385 362.479 94.2343C362.891 93.3006 363.499 92.4667 364.261 91.7894C364.996 91.1482 365.462 90.252 365.565 89.2807C365.12 89.4074 364.697 89.6048 364.314 89.8654C363.917 89.9683 363.552 90.1693 363.253 90.45L363.054 90.5745L363.054 90.5745C362.166 91.1277 361.277 91.6819 360.241 92.374C359.204 93.0786 358.095 93.6701 356.932 94.1386C355.739 94.5697 354.586 95.0827 353.433 95.596C352.311 96.0952 351.189 96.5947 350.028 97.0193C348.851 97.4498 347.673 97.9175 346.496 98.3852L346.496 98.3853C345.319 98.853 344.142 99.3207 342.964 99.7512C341.998 100.286 340.934 100.618 339.836 100.729C338.756 100.954 337.666 101.124 336.569 101.239C336.46 101.371 336.209 101.326 335.962 101.282L335.962 101.282L335.962 101.282C335.852 101.262 335.742 101.243 335.647 101.239C335.339 101.229 335.042 101.218 335.042 100.91L335.137 98.0929C335.054 97.0893 335.196 96.0798 335.551 95.1378C335.841 94.3258 336.233 93.5542 336.718 92.8417C336.88 92.5866 337.025 92.3481 337.17 92.1095C337.46 91.6323 337.75 91.1551 338.181 90.5457C341.224 85.2212 344.931 80.3062 349.211 75.9189C353.598 71.4666 358.4 67.4444 363.55 63.9071C364.132 63.3205 364.834 62.8672 365.608 62.5784C364.913 63.9898 363.922 65.2337 362.702 66.2244C362.378 66.6071 362.097 66.91 361.816 67.2129L361.816 67.213L361.816 67.213L361.816 67.2131L361.816 67.2131C361.535 67.516 361.254 67.819 360.931 68.2016C360.36 68.8904 360.155 69.8119 360.379 70.6784C360.576 70.5466 360.763 70.4245 360.938 70.3102L360.938 70.31L360.939 70.3098C361.752 69.7787 362.308 69.4155 362.447 69.0307C362.945 68.5644 363.401 68.0952 363.857 67.6261L363.857 67.626C364.284 67.1863 364.711 66.7466 365.173 66.3095C365.65 65.8577 366.053 65.4033 366.456 64.9488L366.456 64.9488C366.859 64.4944 367.262 64.04 367.739 63.5882C368.055 63.4969 368.222 63.3174 368.397 63.1295C368.487 63.033 368.579 62.9343 368.694 62.8441C369.033 62.5784 369.479 62.5784 370.094 62.5784C369.787 62.9423 369.515 63.2716 369.242 63.6009L369.242 63.6011L369.242 63.602C368.949 63.9553 368.657 64.3085 368.323 64.7043C367.818 65.4324 367.223 66.0932 366.552 66.6709C366.015 67.0212 365.571 67.4642 365.142 67.8926C364.816 68.2181 364.498 68.5352 364.155 68.7969C363.838 69.0383 363.521 69.327 363.184 69.6341L363.184 69.6341L363.184 69.6341C362.675 70.0976 362.12 70.6028 361.45 71.0504C360.803 71.8689 360.793 72.2835 361.694 72.9319C362.328 72.4596 363.015 72.0636 363.741 71.752C363.73 72.2303 364.049 72.5492 364.335 72.5599C364.47 72.5649 364.644 72.6075 364.824 72.6513C365.025 72.7005 365.233 72.7512 365.396 72.7512C365.735 72.8786 366.094 72.9434 366.456 72.9425C366.764 72.9532 366.891 73.2721 366.891 73.7398C367.82 73.4545 368.717 73.0696 369.564 72.5917C370.011 72.3372 370.462 72.0344 370.944 71.7107C371.286 71.4807 371.644 71.2401 372.028 70.9989C372.026 71.0225 372.043 71.0587 372.098 71.1142V70.9547V70.7953C372.098 70.8833 372.027 70.9547 371.939 70.9547C372.104 70.7262 372.303 70.5747 372.501 70.4232C372.7 70.2718 372.899 70.1203 373.064 69.8917C373.467 69.7793 373.81 69.5119 374.018 69.1476C375.069 67.799 376.252 66.5597 377.55 65.4484C378.223 64.6341 378.949 63.9303 379.664 63.2365C380.144 62.7711 380.619 62.3102 381.071 61.8236C382.534 60.0272 383.351 58.6559 383.701 57.5717C384.051 56.4874 383.627 55.2225 382.747 53.7874C382.245 52.9211 381.651 52.112 380.975 51.3744C380.323 50.5565 379.501 49.8893 378.568 49.4185C377.36 48.6168 376.095 47.9062 374.782 47.2925C373.345 46.5899 371.707 46.4204 370.158 46.8142C369.806 46.8761 369.518 46.9679 369.224 47.0619C368.861 47.1776 368.488 47.2965 367.973 47.3669C367.459 47.4372 367.035 47.5557 366.629 47.6694C366.297 47.7622 365.977 47.8517 365.629 47.9091C362.787 48.8269 360.05 50.0418 357.463 51.5339C355.171 53.004 352.88 54.6131 350.581 56.2276L350.581 56.2277L349.848 56.7425C344.93 60.2802 340.341 64.2541 336.134 68.6162C332.012 72.8871 328.419 77.6412 325.433 82.7752C324.008 85.1263 322.831 87.6202 321.923 90.2162C321.125 92.6123 320.766 95.133 320.862 97.6571C321.023 100.438 321.829 103.142 323.217 105.555C324.532 107.823 326.801 109.311 330.026 110.02C331.702 110.634 333.461 110.992 335.244 111.083C337.495 111.424 339.783 111.452 342.042 111.168C342.525 111.231 343.015 111.137 343.442 110.902C343.761 110.76 344.027 110.654 344.285 110.551L344.286 110.551C344.569 110.438 344.844 110.329 345.17 110.179C346.32 109.812 347.469 109.401 348.617 108.99L348.617 108.99L348.617 108.99L348.617 108.99L348.618 108.99L348.618 108.99L348.618 108.99L348.618 108.99L348.618 108.99L348.618 108.99L348.618 108.99L348.618 108.99L348.618 108.99L348.618 108.99L348.618 108.99L348.618 108.99L348.619 108.99L348.619 108.99L348.619 108.99C349.663 108.616 350.706 108.244 351.746 107.904C354.008 106.969 356.214 105.904 358.353 104.715L360.241 103.844C360.94 103.569 361.584 103.169 362.14 102.664C362.722 102.2 363.268 101.692 363.773 101.144C364.217 100.684 364.889 100.526 365.491 100.74C365.659 100.759 365.827 100.703 365.95 100.586C366.073 100.469 366.138 100.303 366.127 100.134C366.399 99.2471 366.909 98.4526 367.602 97.8378ZM372.098 70.9547C372.098 70.9547 372.031 70.9547 372.028 70.9989L372.098 70.9547ZM357.176 55.1055C355.4 55.7879 353.709 56.6762 352.138 57.7524C350.015 59.1493 347.994 60.6983 346.093 62.387C345.642 62.812 345.191 63.2282 344.744 63.6404C343.292 64.9808 341.885 66.2792 340.652 67.702C339.322 69.1431 338.082 70.6661 336.94 72.2622C340.032 69.1849 343.282 66.2719 346.676 63.535C350.028 60.6437 353.528 57.7949 357.176 55.1055ZM343.633 71.0504C342.39 72.0911 341.259 73.2597 340.26 74.537L339.846 74.25C340.205 73.8399 340.557 73.4116 340.909 72.9832L340.909 72.9831L340.909 72.9831L340.909 72.9831L340.909 72.9831L340.909 72.9831L340.909 72.9831L340.909 72.9831L340.909 72.9831C341.596 72.1454 342.284 71.3072 343.028 70.604C344.236 69.4652 345.511 68.4003 346.846 67.415C346.846 67.4966 346.846 67.5364 346.866 67.5559C346.885 67.5744 346.922 67.5744 346.995 67.5744C346.002 68.8506 344.874 70.0159 343.633 71.0504ZM360.411 63.6626C356.224 66.2225 352.33 69.2346 348.798 72.6449C345.302 75.9842 342.315 79.82 339.931 84.0295C342.855 80.1862 346.082 76.5852 349.582 73.2614C353.023 69.8638 356.649 66.6593 360.443 63.6626H360.411ZM342.954 77.1307C343.101 77.0037 343.249 76.8754 343.396 76.7463C343.227 76.8452 343.077 76.9751 342.954 77.1307ZM343.937 76.2681C343.913 76.3619 343.899 76.4588 343.898 76.5567C343.72 76.5912 343.55 76.6558 343.396 76.7463C343.576 76.588 343.757 76.4284 343.937 76.2681ZM353.671 66.569L353.609 66.6294C353.341 66.8877 353.199 67.0246 353.199 67.1705C353.001 67.3415 352.836 67.5467 352.711 67.7764C351.248 69.424 349.657 71.1036 348.066 72.613C347.163 73.3617 346.21 74.2218 345.237 75.1002C344.807 75.4886 344.373 75.8806 343.937 76.2681C343.967 76.1529 344.015 76.0423 344.078 75.9402C345.361 74.5583 346.804 73.0382 348.246 71.6882L352.563 67.6169C352.571 67.3715 352.761 67.2269 352.921 67.1054L352.921 67.1054C352.969 67.069 353.014 67.0347 353.051 67.0004C353.126 66.9295 353.238 66.861 353.352 66.7914L353.352 66.7914C353.469 66.7197 353.588 66.6468 353.671 66.569ZM353.671 66.569L353.687 66.554L353.681 66.5602L353.671 66.569ZM355.267 65.5228C355.18 65.4227 355.144 65.3816 355.099 65.3646C355.067 65.3528 355.031 65.3528 354.97 65.3528C354.851 65.3344 354.742 65.2742 354.663 65.1827C354.538 65.4334 354.386 65.6683 354.21 65.8834C354.01 66.029 353.834 66.2049 353.687 66.4051C353.879 66.2488 354.054 66.0739 354.21 65.8834C354.25 65.8541 354.292 65.826 354.334 65.7992C354.666 65.803 354.991 65.7067 355.267 65.5228ZM373.424 69.4347C373.945 69.0301 374.428 68.5781 374.866 68.0847C373.881 68.8289 372.822 69.47 371.706 69.998C372.291 69.8499 372.865 69.6617 373.424 69.4347ZM373.212 66.7665C373.159 66.8619 373.123 66.943 373.093 67.0096C373.027 67.1582 372.993 67.2343 372.883 67.2343C372.785 67.2343 372.747 67.2911 372.695 67.3697C372.663 67.4182 372.626 67.4751 372.565 67.5319C372.562 67.5732 372.576 67.6138 372.605 67.6441C372.633 67.6743 372.672 67.6915 372.714 67.6913C372.891 67.3276 373.26 67.0969 373.664 67.0961H373.509C373.329 66.7772 373.18 66.6177 373.17 66.7665H373.212ZM377.698 62.2387L377.698 62.2382H377.656C377.67 62.2382 377.684 62.2383 377.698 62.2387ZM377.698 62.2387C377.126 62.7534 376.591 63.3073 376.097 63.8965C375.931 64.1317 375.688 64.3616 375.406 64.628C375.128 64.8913 374.812 65.1903 374.495 65.5654C374.495 65.8736 374.633 65.8843 374.633 65.8843C375.88 64.8595 377.056 63.7514 378.154 62.5677C377.98 62.277 377.841 62.2425 377.698 62.2387ZM377.094 66.4902C376.935 66.4902 376.786 66.4902 376.786 66.3201L377.582 65.7248H377.741C377.741 65.7248 377.741 65.8621 377.872 65.7411L377.094 66.4902ZM377.889 65.7248L377.872 65.7411C377.878 65.7361 377.883 65.7307 377.889 65.7248ZM381.071 62.2488C380.739 62.4186 380.463 62.6807 380.275 63.0036L380.572 63.3225C380.731 63.3225 381.198 62.876 381.368 62.5677C381.437 62.4421 381.557 62.3183 381.687 62.1847C381.875 61.9905 382.084 61.7756 382.184 61.5047H381.877C381.504 61.6079 381.204 61.885 381.071 62.2488Z" fill="white"/>
<path fill-rule="evenodd" clip-rule="evenodd" d="M428.966 117.046C428.616 116.716 428.316 116.336 428.075 115.919C427.905 115.336 427.77 114.744 427.672 114.144C427.72 113.722 427.68 113.295 427.556 112.89C427.466 112.114 427.442 111.331 427.481 110.551C427.596 109.606 427.784 108.671 428.044 107.756C428.155 106.795 428.398 105.854 428.765 104.96C429.9 102.238 430.873 99.4519 431.681 96.6154C431.836 96.1973 431.991 95.7827 432.145 95.3699L432.146 95.3683L432.146 95.3682L432.146 95.3682C433.014 93.0416 433.861 90.7727 434.608 88.2815C435.101 86.9678 435.689 85.6923 436.369 84.4654C437.027 83.2429 437.684 82.0099 438.352 80.628C438.055 81.3795 437.821 82.1546 437.652 82.9453C437.492 83.7416 437.258 84.521 436.952 85.2733C438.617 81.8548 440.456 78.511 442.264 75.223L442.264 75.2228C442.818 74.2167 443.368 73.2159 443.91 72.2197C446.278 67.9906 448.403 63.6287 450.273 59.1555C449.741 59.7215 449.255 60.3294 448.82 60.9733C448.471 61.6058 448.088 62.2197 447.675 62.8122C447.937 62.0306 448.225 61.3462 448.518 60.6517L448.518 60.6515L448.518 60.6514L448.518 60.6514L448.518 60.6513C448.747 60.1086 448.979 59.5597 449.202 58.9536C449.552 58.0035 449.897 57.1941 450.244 56.3803L450.244 56.3802L450.244 56.3801C450.402 56.0103 450.56 55.6396 450.719 55.2544C451.216 54.3197 450.922 53.1589 450.04 52.5756C449.937 52.4654 449.833 52.373 449.736 52.2861C449.551 52.1214 449.388 51.9765 449.297 51.7677C449.022 50.6622 448.735 50.1839 448.428 50.0138C448.283 49.7135 447.535 49.9679 446.34 50.3743L446.243 50.4071C446.137 49.9185 445.886 49.4736 445.522 49.1315C445.407 49.0085 445.316 48.8617 445.222 48.7088C445.071 48.4656 444.911 48.2071 444.631 48.0047C444.02 48.6468 443.325 49.2012 442.563 49.6524C441.905 50.2407 441.215 50.7908 440.495 51.3C440.506 50.9653 440.607 50.6423 440.702 50.3433C440.787 50.0726 440.866 49.8215 440.866 49.5992C440.875 49.1144 440.995 48.6382 441.216 48.2067C440.473 47.5051 439.392 47.5051 438.267 48.5681C437.371 49.0859 436.522 49.6836 435.733 50.354L435.555 50.4868C434.818 51.0391 434.072 51.5986 433.198 52.1398C430.424 54.2049 427.638 56.3456 424.883 58.4616L424.882 58.4624L424.882 58.4625L424.882 58.4625L424.882 58.4625L424.882 58.4625C423.256 59.7118 421.641 60.9525 420.047 62.1638C415.752 65.4272 411.456 69.0307 407.458 72.7937C406.922 73.2561 406.335 73.6556 405.708 73.9843C405.155 74.3753 404.577 74.7304 403.979 75.0473C403.979 74.8772 403.979 74.8772 403.82 74.8772C410.851 56.9472 419.592 39.7391 429.921 23.4921C429.274 23.8133 428.59 24.0526 427.884 24.2044C427.292 24.3243 426.715 24.5133 426.166 24.7677C426.508 24.0996 426.944 23.4839 427.46 22.9394C427.802 22.827 428.163 22.7872 428.521 22.8225C428.938 22.8507 429.357 22.8112 429.762 22.7055C430.406 22.0507 430.908 21.2689 431.236 20.4095C431.077 20.5689 430.918 20.7071 430.759 20.7071H430.61C430.448 20.256 430.33 19.9071 430.208 19.5466L430.208 19.5465C430.115 19.2699 430.019 18.9864 429.9 18.6449C429.795 18.3474 429.711 18.0711 429.63 17.8087C429.498 17.3773 429.378 16.9833 429.2 16.5933C428.655 17.1367 428.07 17.6378 427.45 18.0921C427.233 18.2896 426.984 18.4937 426.717 18.7132L426.716 18.7133C426.393 18.9781 426.043 19.2655 425.689 19.591C426.113 18.9279 426.452 18.2135 426.697 17.465C427.018 16.8125 427.302 16.1416 427.545 15.4559C427.01 15.3533 426.457 15.4477 425.986 15.7217C425.574 16.0347 425.198 16.3911 424.862 16.7847C424.7 17.017 424.497 17.2081 424.294 17.3999C424.097 17.5855 423.899 17.7717 423.738 17.9965C423.297 18.3875 422.751 18.639 422.168 18.7193C422.844 17.7478 423.353 16.67 423.674 15.5303C423.785 14.9572 423.752 14.3656 423.579 13.8083C422.665 13.7495 421.765 14.0552 421.076 14.6587C420.397 15.2179 419.755 15.8216 419.156 16.4658C418.426 17.1527 417.775 17.9193 417.215 18.7512C416.731 19.3157 416.336 19.8862 415.897 20.5205L415.897 20.5209L415.897 20.521C415.749 20.7345 415.596 20.9553 415.433 21.1855C413.63 23.9386 411.668 27 409.865 29.902C408.101 32.6087 406.483 35.4084 405.019 38.289C404.505 39.2995 403.973 40.2897 403.441 41.2802L403.441 41.2802L403.44 41.2802L403.44 41.2803L403.44 41.2803L403.44 41.2804L403.44 41.2804L403.44 41.2805L403.44 41.2805C402.433 43.1553 401.424 45.0311 400.543 47.0481C399.869 48.5894 399.122 50.0882 398.374 51.587C397.626 53.0858 396.879 54.5847 396.205 56.126C394.042 60.4205 391.878 64.8851 390.181 69.2008C389.625 70.6588 389.053 72.1156 388.481 73.5724C387.297 76.5873 386.113 79.602 385.069 82.6264C384.42 84.5341 383.727 86.4971 383.038 88.451C382.444 90.1334 381.853 91.8091 381.294 93.437C380.664 95.2696 380.077 97.1109 379.489 98.9577C378.948 100.657 378.405 102.361 377.825 104.067C377.468 104.675 377.284 105.37 377.295 106.076C376.945 107.043 376.924 107.639 377.062 108.106C377.184 108.52 377.813 108.718 378.691 108.993L378.691 108.993L378.691 108.994L378.691 108.994C378.805 109.029 378.923 109.066 379.045 109.106C378.83 109.67 378.864 110.301 379.141 110.838C379.278 111.306 379.724 111.667 380.498 111.667C381.142 111.548 381.772 111.359 382.375 111.104C382.979 110.662 383.676 110.364 384.412 110.232C384.257 110.646 384.3 111.108 384.528 111.487C386.734 110.317 387.954 110.828 388.665 112.73C389.206 112.184 389.791 111.683 390.414 111.232C390.674 110.993 390.949 110.842 391.218 110.693C391.49 110.544 391.755 110.398 391.995 110.169C392.111 110.753 392.578 110.774 393.055 110.169C393.138 110.024 393.294 109.841 393.451 109.656L393.451 109.656C393.617 109.461 393.785 109.264 393.872 109.106C394.231 108.764 394.51 108.346 394.689 107.883C394.524 108.117 394.288 108.266 394.052 108.415C393.816 108.563 393.58 108.712 393.416 108.946C393.249 109.183 393.048 109.335 392.846 109.487C392.65 109.635 392.454 109.783 392.292 110.009C392.63 109.535 392.908 109.021 393.119 108.478C393.222 108.195 393.437 107.978 393.7 107.714L393.7 107.714C393.871 107.542 394.061 107.35 394.254 107.107C401.825 97.8624 410.037 89.1633 418.827 81.0744L421.86 78.215C422.147 78.8421 421.829 79.2992 421.5 79.767C421.095 80.0992 420.763 80.5117 420.524 80.9788C421.097 81.1595 421.436 81.6378 421.097 82.5626C420.842 83.6561 420.487 84.7236 420.036 85.7516C419.828 86.3781 419.62 87.0649 419.415 87.7383L419.415 87.7385C419.266 88.2304 419.119 88.7151 418.976 89.1638C416.972 95.5974 415.5 102.185 414.574 108.861C414.336 110.575 414.336 112.313 414.574 114.027C414.796 115.699 415.539 117.257 416.695 118.481C417.541 119.421 418.827 119.827 420.057 119.544L422.38 119.629C423.031 119.82 423.699 119.948 424.374 120.012C424.748 120.085 425.072 120.16 425.345 120.224C425.745 120.316 426.037 120.384 426.219 120.384C426.368 120.395 426.845 120.097 427.492 119.183C427.786 118.79 428.059 118.382 428.309 117.96C428.396 117.802 428.523 117.643 428.648 117.486C428.767 117.337 428.884 117.191 428.966 117.046ZM403.359 94.9571C402.799 95.5258 402.24 96.0945 401.678 96.7004C400.498 98.212 399.208 99.6332 397.817 100.952C397.28 101.511 396.766 102.07 396.258 102.623L396.258 102.623L396.257 102.624L396.257 102.624C395.393 103.565 394.547 104.485 393.639 105.343C393.893 104.79 394.221 104.275 394.614 103.812C395.685 102.438 396.806 101.179 397.917 99.9318C398.654 99.1043 399.387 98.2818 400.097 97.4339C401.879 95.3079 403.809 93.1819 405.74 91.0559C406.072 90.6627 406.445 90.3063 406.853 89.9929C407.259 89.5979 407.812 89.3928 408.375 89.4262C408.38 89.4425 408.384 89.4588 408.389 89.4751C407.386 90.8185 406.265 92.0697 405.04 93.2138C404.478 93.8196 403.918 94.3882 403.359 94.9568L403.359 94.9571ZM408.389 89.4751C408.399 89.5095 408.41 89.5439 408.423 89.5784C408.524 89.3069 408.729 89.0917 408.915 88.897C409.042 88.764 409.16 88.6405 409.229 88.5154C409.293 88.3986 409.402 88.262 409.521 88.1119C409.716 87.8658 409.94 87.5835 410.046 87.2929C408.577 87.979 408.186 88.693 408.375 89.4262L408.398 89.4276L408.423 89.4296L408.389 89.4751ZM399.26 103.163C398.819 103.677 398.452 104.122 398.062 104.596L398.062 104.596L398.06 104.599L398.057 104.602L398.055 104.604L398.054 104.605C397.874 104.824 397.689 105.049 397.488 105.289C396.985 106.019 396.39 106.68 395.717 107.256C396.6 105.659 397.807 104.265 399.26 103.163ZM429.221 60.2717C428.421 60.6701 427.676 61.1703 427.004 61.7599L427.025 61.7811C426.39 62.3526 425.795 62.967 425.244 63.6201C424.468 64.1762 423.724 64.776 423.016 65.4166C422.289 65.9162 421.598 66.4668 420.948 67.0642C420.145 67.4768 419.426 68.0355 418.827 68.7118C418.448 68.9992 418.102 69.2891 417.755 69.579L417.755 69.5791L417.755 69.5791L417.754 69.5792L417.754 69.5793L417.754 69.5793L417.754 69.5794C417.383 69.8899 417.011 70.2005 416.6 70.5083C415.839 71.1985 415.043 71.8479 414.214 72.4536C413.884 72.8432 413.561 73.1501 413.237 73.4572C412.924 73.7533 412.612 74.0496 412.294 74.4201C411.694 75.1168 411.049 75.7737 410.364 76.3866C408.905 77.6136 407.516 78.9233 406.206 80.3091C405.577 81.0409 404.865 81.6972 404.085 82.265C403.634 82.6085 403.231 83.0512 402.79 83.5348L402.79 83.5348C402.454 83.9042 402.096 84.2974 401.678 84.6886C401.69 83.2061 402.432 81.8255 403.661 81C404.627 79.6973 405.761 78.5284 407.034 77.524C407.596 76.9181 408.195 76.3521 408.794 75.786C409.393 75.22 409.993 74.654 410.555 74.0481C411.306 73.4081 412.029 72.7489 412.747 72.0942L412.747 72.0941L412.747 72.0941L412.747 72.094L412.747 72.094C413.71 71.2153 414.664 70.345 415.667 69.541C416.144 69.1583 416.621 68.7804 417.098 68.4025C418.371 67.3946 419.644 66.3868 420.917 65.289C422.497 64.2898 423.929 63.2268 425.36 62.1638C425.943 61.6824 426.558 61.2031 427.192 60.7099L427.192 60.7097C427.943 60.1248 428.72 59.5201 429.497 58.8685C429.737 58.688 430.001 58.5413 430.281 58.4327C430.648 58.3229 431.004 58.1769 431.342 57.9969C430.933 58.9873 430.179 59.7954 429.221 60.2717ZM418.318 31.7622L418.021 31.5921L418.872 30.4246C418.824 30.5537 418.804 30.6944 418.817 30.8374L418.318 31.7622ZM418.872 30.4246L419.168 30.0182C419.033 30.1248 418.931 30.266 418.872 30.4246ZM419.168 30.0182L419.315 29.8169V29.9232C419.263 29.9506 419.214 29.9825 419.168 30.0182ZM414.542 82.6158C415.837 82.1906 416.855 81.1779 417.289 79.8839C417.048 80.0533 416.808 80.1784 416.585 80.2945C416.221 80.4843 415.902 80.6501 415.699 80.9469C415.119 81.3349 414.707 81.9267 414.542 82.6051V82.6158ZM419.143 78.2633C418.988 78.3754 418.808 78.5061 418.7 78.7146C418.891 77.6516 419.41 77.1414 419.973 77.5134C419.866 77.7201 419.688 77.8455 419.534 77.9538C419.458 78.007 419.389 78.0561 419.336 78.1087C419.285 78.1603 419.217 78.2097 419.143 78.2633ZM421.585 75.8445C420.81 75.8445 420.524 75.9614 420.524 76.2803V77.3433L421.585 75.8445ZM422.995 75.1004C422.554 75.3115 422.132 75.5605 421.733 75.8445V75.8232C422.127 75.4837 422.457 75.077 422.709 74.6221C423.049 74.3287 423.324 73.9664 423.515 73.5591C423.642 74.3457 423.472 74.8134 422.995 75.1004Z" fill="white"/>
</svg>
