<svg width="386" height="74" viewBox="0 0 386 74" fill="none" xmlns="http://www.w3.org/2000/svg">
<path fill-rule="evenodd" clip-rule="evenodd" d="M103.136 28.1429V32.2939C103.136 34.8216 102.429 36.7547 101.019 38.0951C99.6086 39.4355 97.5266 40.1037 94.773 40.1037C92.0214 40.1037 89.9374 39.4277 88.5289 38.0738C87.1165 36.7198 86.4123 34.779 86.4123 32.2493V16.002C86.4123 13.4743 87.1165 11.5335 88.5289 10.1795C89.9374 8.82558 92.0214 8.14764 94.773 8.14764C97.5266 8.14764 99.6086 8.82558 101.019 10.1795C102.429 11.5335 103.136 13.4743 103.136 16.002V19.0392H97.8325V15.6921C97.8325 14.5609 97.5689 13.7648 97.0436 13.3038C96.5144 12.8428 95.8082 12.6104 94.927 12.6104C94.0418 12.6104 93.3375 12.8428 92.8122 13.3058C92.2831 13.7687 92.0214 14.5648 92.0214 15.6979V32.6018C92.0214 33.733 92.2831 34.5233 92.8122 34.9707C93.3375 35.4182 94.0418 35.6409 94.927 35.6409C95.8082 35.6409 96.5144 35.4182 97.0436 34.9707C97.5689 34.5252 97.8325 33.7369 97.8325 32.6057V28.1429H103.136Z" fill="#FEFEFE"/>
<mask id="mask0" mask-type="alpha" maskUnits="userSpaceOnUse" x="0" y="0" width="386" height="74">
<path fill-rule="evenodd" clip-rule="evenodd" d="M0 74H385.251V0.362366H0V74Z" fill="white"/>
</mask>
<g mask="url(#mask0)">
<path fill-rule="evenodd" clip-rule="evenodd" d="M106.808 39.7486H112.417V8.50732H106.808V39.7486Z" fill="#FEFEFE"/>
<path fill-rule="evenodd" clip-rule="evenodd" d="M115.681 8.50671H133.018V12.9695H127.151V39.748H121.544V12.9695H115.681V8.50671Z" fill="#FEFEFE"/>
<path fill-rule="evenodd" clip-rule="evenodd" d="M142.449 29.3934L135.36 8.50714H141.225L145.508 22.7438L149.79 8.50714H155.149L148.058 29.3934V39.7485H142.449V29.3934Z" fill="#FEFEFE"/>
<path fill-rule="evenodd" clip-rule="evenodd" d="M173.041 25.6878V35.2854H176.253C177.203 35.2854 177.925 35.0608 178.419 34.6153C178.914 34.1678 179.16 33.3659 179.16 32.2037V29.4804C179.16 28.0257 178.877 27.0262 178.315 26.4916C177.757 25.957 176.83 25.6878 175.539 25.6878H173.041ZM173.041 12.9697V21.225H175.233C176.285 21.225 177.109 20.9868 177.705 20.5103C178.302 20.0377 178.598 19.1718 178.598 17.9225V16.1812C178.598 15.0519 178.369 14.2326 177.909 13.727C177.451 13.2215 176.73 12.9697 175.745 12.9697H173.041ZM175.897 8.5069C178.818 8.5069 180.934 9.10155 182.243 10.2908C183.551 11.4821 184.207 13.2815 184.207 15.6911V16.8087C184.207 18.4145 183.917 19.7394 183.343 20.7795C182.762 21.8216 181.844 22.5944 180.586 23.1C182.118 23.6075 183.195 24.4326 183.824 25.5774C184.452 26.7241 184.769 28.1284 184.769 29.7942V32.3374C184.769 34.7489 184.053 36.5852 182.626 37.85C181.196 39.1148 179.073 39.7482 176.253 39.7482H167.432V8.5069H175.897Z" fill="#FEFEFE"/>
<path fill-rule="evenodd" clip-rule="evenodd" d="M194.051 21.6719H201.748V26.1347H194.051V35.2849H203.74V39.7477H188.442V8.50635H203.74V12.9691H194.051V21.6719Z" fill="#FEFEFE"/>
<path fill-rule="evenodd" clip-rule="evenodd" d="M213.732 29.8397H219.139L216.433 14.0399L213.732 29.8397ZM226.528 39.7473H220.869L219.903 34.0797H213.016L212.048 39.7473H206.899L212.61 8.50598H220.82L226.528 39.7473Z" fill="#FEFEFE"/>
<path fill-rule="evenodd" clip-rule="evenodd" d="M245.446 28.1429V32.2939C245.446 34.8216 244.739 36.7547 243.329 38.0951C241.918 39.4355 239.838 40.1037 237.085 40.1037C234.333 40.1037 232.247 39.4277 230.839 38.0738C229.426 36.7198 228.724 34.779 228.724 32.2493V16.002C228.724 13.4743 229.426 11.5335 230.839 10.1795C232.247 8.82558 234.333 8.14764 237.085 8.14764C239.838 8.14764 241.918 8.82558 243.329 10.1795C244.739 11.5335 245.446 13.4743 245.446 16.002V19.0392H240.142V15.6921C240.142 14.5609 239.879 13.7648 239.353 13.3038C238.824 12.8428 238.118 12.6104 237.237 12.6104C236.352 12.6104 235.647 12.8428 235.122 13.3058C234.595 13.7687 234.333 14.5648 234.333 15.6979V32.6018C234.333 33.733 234.595 34.5233 235.122 34.9707C235.647 35.4182 236.352 35.6409 237.237 35.6409C238.118 35.6409 238.824 35.4182 239.353 34.9707C239.879 34.5252 240.142 33.7369 240.142 32.6057V28.1429H245.446Z" fill="#FEFEFE"/>
<path fill-rule="evenodd" clip-rule="evenodd" d="M254.727 39.7479H249.117V8.50653H254.727V21.8948H261.102V8.50653H266.809V39.7479H261.102V26.3576H254.727V39.7479Z" fill="#FEFEFE"/>
<path fill-rule="evenodd" clip-rule="evenodd" d="M296.539 28.1429V32.2939C296.539 34.8216 295.833 36.7547 294.422 38.0951C293.012 39.4355 290.93 40.1037 288.176 40.1037C285.425 40.1037 283.341 39.4277 281.932 38.0738C280.52 36.7198 279.816 34.779 279.816 32.2493V16.002C279.816 13.4743 280.52 11.5335 281.932 10.1795C283.341 8.82558 285.425 8.14764 288.176 8.14764C290.93 8.14764 293.012 8.82558 294.422 10.1795C295.833 11.5335 296.539 13.4743 296.539 16.002V19.0392H291.236V15.6921C291.236 14.5609 290.972 13.7648 290.447 13.3038C289.918 12.8428 289.212 12.6104 288.33 12.6104C287.443 12.6104 286.741 12.8428 286.216 13.3058C285.686 13.7687 285.425 14.5648 285.425 15.6979V32.6018C285.425 33.733 285.686 34.5233 286.216 34.9707C286.741 35.4182 287.443 35.6409 288.33 35.6409C289.212 35.6409 289.918 35.4182 290.447 34.9707C290.972 34.5252 291.236 33.7369 291.236 32.6057V28.1429H296.539Z" fill="#FEFEFE"/>
<path fill-rule="evenodd" clip-rule="evenodd" d="M300.211 8.50671H305.82V35.2853H315.049V39.748H300.211V8.50671Z" fill="#FEFEFE"/>
<path fill-rule="evenodd" clip-rule="evenodd" d="M323.407 8.50671V32.6452C323.407 33.7783 323.67 34.5686 324.198 35.016C324.725 35.4635 325.431 35.6862 326.314 35.6862C327.199 35.6862 327.904 35.4635 328.429 35.016C328.956 34.5686 329.22 33.7783 329.22 32.6452V8.50671H334.521V32.2946C334.521 34.8243 333.819 36.7651 332.406 38.1171C330.998 39.471 328.912 40.149 326.16 40.149C323.407 40.149 321.323 39.471 319.916 38.1171C318.502 36.7651 317.798 34.8243 317.798 32.2946V8.50671H323.407Z" fill="#FEFEFE"/>
<path fill-rule="evenodd" clip-rule="evenodd" d="M343.959 25.6878V35.2854H347.17C348.119 35.2854 348.842 35.0608 349.337 34.6153C349.831 34.1678 350.076 33.3659 350.076 32.2037V29.4804C350.076 28.0257 349.795 27.0262 349.233 26.4916C348.675 25.957 347.747 25.6878 346.456 25.6878H343.959ZM343.959 12.9697V21.225H346.15C347.203 21.225 348.026 20.9868 348.621 20.5103C349.218 20.0377 349.514 19.1718 349.514 17.9225V16.1812C349.514 15.0519 349.287 14.2326 348.827 13.727C348.369 13.2215 347.647 12.9697 346.66 12.9697H343.959ZM346.814 8.5069C349.735 8.5069 351.852 9.10155 353.16 10.2908C354.469 11.4821 355.123 13.2815 355.123 15.6911V16.8087C355.123 18.4145 354.834 19.7394 354.259 20.7795C353.68 21.8216 352.762 22.5944 351.503 23.1C353.035 23.6075 354.113 24.4326 354.742 25.5774C355.369 26.7241 355.685 28.1284 355.685 29.7942V32.3374C355.685 34.7489 354.971 36.5852 353.543 37.85C352.113 39.1148 349.991 39.7482 347.17 39.7482H338.349V8.5069H346.814Z" fill="#FEFEFE"/>
<path fill-rule="evenodd" clip-rule="evenodd" d="M170.987 65.8193V51.1254H180.803V54.1142H174.391V56.8956H180.45V59.7391H174.391V62.7898H181.172V65.8193H170.987Z" fill="#FEFEFE"/>
<path fill-rule="evenodd" clip-rule="evenodd" d="M191.729 54.9438C191.427 54.5564 191.03 54.2484 190.544 54.0198C190.055 53.7913 189.585 53.677 189.131 53.677C188.896 53.677 188.66 53.6983 188.419 53.7409C188.179 53.7816 187.961 53.861 187.769 53.9792C187.576 54.0973 187.417 54.2484 187.284 54.4344C187.155 54.6203 187.09 54.8605 187.09 55.151C187.09 55.4009 187.14 55.6082 187.243 55.7728C187.347 55.9413 187.499 56.0846 187.698 56.2086C187.898 56.3345 188.134 56.4488 188.408 56.5534C188.685 56.6561 188.993 56.7626 189.337 56.873C189.832 57.0415 190.347 57.2236 190.884 57.4231C191.421 57.6245 191.908 57.8899 192.347 58.2231C192.789 58.5543 193.151 58.9669 193.439 59.4588C193.728 59.9489 193.872 60.561 193.872 61.2951C193.872 62.1396 193.717 62.8679 193.409 63.4858C193.101 64.0998 192.685 64.6092 192.164 65.0102C191.638 65.4111 191.042 65.7094 190.368 65.9031C189.693 66.0968 189 66.1937 188.284 66.1937C187.242 66.1937 186.231 66.0097 185.254 65.6436C184.278 65.2756 183.466 64.7545 182.822 64.0746L185.131 61.7096C185.489 62.1532 185.958 62.5231 186.545 62.8195C187.126 63.1178 187.709 63.2669 188.284 63.2669C188.546 63.2669 188.802 63.2398 189.046 63.1836C189.295 63.1294 189.514 63.0384 189.699 62.9144C189.884 62.7885 190.032 62.6238 190.141 62.4147C190.249 62.2074 190.307 61.9595 190.307 61.6689C190.307 61.3919 190.24 61.1576 190.099 60.9619C189.962 60.7702 189.764 60.592 189.514 60.4331C189.258 60.2743 188.943 60.129 188.564 59.9973C188.184 59.8656 187.757 59.7242 187.276 59.5731C186.807 59.4201 186.349 59.24 185.904 59.0327C185.456 58.8255 185.058 58.5582 184.709 58.2327C184.359 57.9093 184.074 57.5141 183.863 57.0512C183.651 56.5883 183.543 56.0227 183.543 55.3583C183.543 54.5409 183.707 53.8436 184.038 53.2625C184.369 52.6814 184.8 52.2049 185.337 51.8311C185.873 51.4572 186.478 51.1841 187.151 51.0117C187.827 50.8374 188.506 50.7502 189.193 50.7502C190.016 50.7502 190.859 50.9052 191.717 51.2074C192.576 51.5134 193.33 51.9628 193.976 52.5574L191.729 54.9438Z" fill="#FEFEFE"/>
<path fill-rule="evenodd" clip-rule="evenodd" d="M202.699 54.1548V65.8193H199.174V54.1548H195.049V51.1254H206.823V54.1548H202.699Z" fill="#FEFEFE"/>
<path fill-rule="evenodd" clip-rule="evenodd" d="M211.009 63.9929C211.009 64.5739 210.805 65.0582 210.401 65.4456C209.996 65.833 209.512 66.0267 208.946 66.0267C208.657 66.0267 208.388 65.9744 208.132 65.8717C207.878 65.7671 207.655 65.6257 207.462 65.4456C207.268 65.2654 207.12 65.0543 207.01 64.8122C206.897 64.5701 206.843 64.3047 206.843 64.0142C206.843 63.7372 206.897 63.4738 207.01 63.2258C207.12 62.976 207.268 62.759 207.462 62.5711C207.655 62.3852 207.878 62.236 208.132 62.1256C208.388 62.0152 208.657 61.959 208.946 61.959C209.512 61.959 209.996 62.1527 210.401 62.5401C210.805 62.9275 211.009 63.4118 211.009 63.9929Z" fill="#FEFEFE"/>
<path fill-rule="evenodd" clip-rule="evenodd" d="M218.986 65.8192V62.9177L224.678 57.7402C225.035 57.3934 225.322 57.0409 225.543 56.6806C225.763 56.3223 225.872 55.9214 225.872 55.4817C225.872 54.9567 225.709 54.5306 225.378 54.2052C225.049 53.8817 224.608 53.719 224.058 53.719C223.481 53.719 223.011 53.9243 222.646 54.3311C222.282 54.7398 222.066 55.2763 221.997 55.9407L218.678 55.4836C218.761 54.7359 218.963 54.0716 219.284 53.4866C219.607 52.9036 220.015 52.4058 220.512 51.9951C221.008 51.5845 221.574 51.2707 222.213 51.0538C222.853 50.8388 223.529 50.7303 224.243 50.7303C224.918 50.7303 225.572 50.8194 226.203 51.0015C226.837 51.1797 227.398 51.4566 227.895 51.8305C228.389 52.2043 228.784 52.6731 229.078 53.2406C229.375 53.8081 229.523 54.4725 229.523 55.2357C229.523 55.7606 229.452 56.2332 229.317 56.6574C229.18 57.0777 228.99 57.469 228.749 57.8293C228.509 58.1895 228.233 58.5227 227.926 58.8365C227.616 59.1464 227.294 59.4544 226.965 59.7585L223.585 62.7898H229.544V65.8192H218.986Z" fill="#FEFEFE"/>
<path fill-rule="evenodd" clip-rule="evenodd" d="M240.244 58.4309C240.244 57.9737 240.215 57.4682 240.161 56.9162C240.108 56.3622 240.004 55.847 239.854 55.3685C239.702 54.892 239.484 54.4911 239.203 54.1657C238.922 53.8403 238.553 53.6776 238.101 53.6776C237.646 53.6776 237.275 53.8403 236.988 54.1657C236.698 54.4911 236.475 54.892 236.317 55.3685C236.159 55.847 236.051 56.3622 235.997 56.9162C235.943 57.4682 235.915 57.9737 235.915 58.4309C235.915 58.9016 235.943 59.4168 235.997 59.9766C236.051 60.5364 236.159 61.0555 236.317 61.5339C236.475 62.0104 236.698 62.4133 236.988 62.7367C237.275 63.0622 237.646 63.2249 238.101 63.2249C238.553 63.2249 238.922 63.0622 239.203 62.7367C239.484 62.4133 239.702 62.0104 239.854 61.5339C240.004 61.0555 240.108 60.5364 240.161 59.9766C240.215 59.4168 240.244 58.9016 240.244 58.4309ZM243.79 58.4309C243.79 59.4691 243.687 60.4569 243.481 61.3983C243.275 62.3397 242.944 63.1667 242.492 63.8796C242.039 64.5904 241.451 65.158 240.729 65.5802C240.007 66.0025 239.13 66.2136 238.101 66.2136C237.071 66.2136 236.19 66.0025 235.462 65.5802C234.733 65.158 234.139 64.5904 233.677 63.8796C233.217 63.1667 232.884 62.3397 232.676 61.3983C232.47 60.4569 232.368 59.4691 232.368 58.4309C232.368 57.3927 232.47 56.4067 232.676 55.4731C232.884 54.5395 233.217 53.724 233.677 53.0248C234.139 52.3256 234.733 51.7696 235.462 51.3532C236.19 50.9387 237.071 50.7295 238.101 50.7295C239.13 50.7295 240.007 50.9387 240.729 51.3532C241.451 51.7696 242.039 52.3256 242.492 53.0248C242.944 53.724 243.275 54.5395 243.481 55.4731C243.687 56.4067 243.79 57.3927 243.79 58.4309Z" fill="#FEFEFE"/>
<path fill-rule="evenodd" clip-rule="evenodd" d="M251.09 65.8193V55.0265L248.368 57.1436L246.574 54.6739L251.375 51.1254H254.533V65.8193H251.09Z" fill="#FEFEFE"/>
<path fill-rule="evenodd" clip-rule="evenodd" d="M271.111 61.5499C271.111 62.3518 270.949 63.0472 270.626 63.6341C270.304 64.221 269.879 64.7033 269.358 65.0849C268.834 65.4645 268.249 65.7473 267.595 65.9333C266.943 66.1212 266.279 66.2141 265.607 66.2141C264.947 66.2141 264.305 66.1386 263.679 65.9856C263.054 65.8326 262.482 65.6021 261.967 65.2902C261.449 64.9803 261.001 64.5774 260.616 64.0874C260.231 63.5954 259.94 63.0046 259.75 62.3112L262.967 61.4608C263.102 61.9451 263.385 62.3712 263.81 62.7373C264.239 63.1034 264.78 63.2874 265.44 63.2874C265.69 63.2874 265.938 63.2525 266.192 63.1828C266.446 63.115 266.673 63.0065 266.873 62.8613C267.072 62.7179 267.237 62.5262 267.368 62.2918C267.499 62.0555 267.564 61.7649 267.564 61.4202C267.564 61.0444 267.478 60.7345 267.306 60.4846C267.135 60.2367 266.908 60.0391 266.627 59.8938C266.342 59.7486 266.025 59.6459 265.667 59.582C265.309 59.52 264.953 59.489 264.593 59.489H263.668V56.9574H264.676C265.007 56.9574 265.324 56.9322 265.625 56.8838C265.929 56.8354 266.2 56.7463 266.441 56.6126C266.681 56.479 266.873 56.3027 267.018 56.0799C267.16 55.8572 267.235 55.5647 267.235 55.2025C267.235 54.6737 267.051 54.2708 266.677 53.9919C266.306 53.713 265.881 53.5735 265.4 53.5735C264.903 53.5735 264.476 53.7227 264.11 54.0209C263.747 54.3192 263.51 54.7144 263.4 55.2141L260.183 54.4664C260.36 53.8427 260.629 53.3004 260.985 52.8375C261.345 52.3745 261.767 51.9871 262.255 51.6753C262.742 51.3634 263.275 51.1291 263.854 50.9683C264.43 50.8114 265.02 50.73 265.625 50.73C266.271 50.73 266.9 50.8133 267.514 50.9799C268.124 51.1446 268.669 51.4022 269.15 51.7489C269.633 52.0956 270.022 52.5295 270.316 53.0486C270.61 53.5677 270.76 54.1817 270.76 54.8887C270.76 55.7061 270.53 56.3957 270.07 56.9554C269.61 57.5172 269.021 57.8949 268.305 58.0886V58.1506C268.719 58.2474 269.096 58.4024 269.44 58.6174C269.785 58.8324 270.081 59.088 270.327 59.3844C270.576 59.6808 270.766 60.0139 270.905 60.38C271.041 60.7442 271.111 61.1354 271.111 61.5499Z" fill="#FEFEFE"/>
<path fill-rule="evenodd" clip-rule="evenodd" d="M36.5772 20.1548C27.2351 20.1548 19.6613 27.7787 19.6613 37.1808C19.6613 46.5847 27.2351 54.2086 36.5772 54.2086C45.9173 54.2086 53.4911 46.5847 53.4911 37.1808C53.4911 27.7787 45.9173 20.1548 36.5772 20.1548ZM36.5772 24.4995C43.5236 24.4995 49.1751 30.1883 49.1751 37.1808C49.1751 44.1732 43.5236 49.8621 36.5772 49.8621C29.6307 49.8621 23.9773 44.1732 23.9773 37.1808C23.9773 30.1883 29.6307 24.4995 36.5772 24.4995Z" fill="#FEFEFE"/>
<path fill-rule="evenodd" clip-rule="evenodd" d="M33.4661 17.4251H39.6871V0.362366H33.4661V17.4251Z" fill="#FEFEFE"/>
<path fill-rule="evenodd" clip-rule="evenodd" d="M33.4661 74H39.6871V56.9373H33.4661V74Z" fill="#FEFEFE"/>
<path fill-rule="evenodd" clip-rule="evenodd" d="M56.2027 40.3123H73.1532V34.05H56.2027V40.3123Z" fill="#FEFEFE"/>
<path fill-rule="evenodd" clip-rule="evenodd" d="M0 40.3123H16.9505V34.05H0V40.3123Z" fill="#FEFEFE"/>
<path fill-rule="evenodd" clip-rule="evenodd" d="M54.9493 44.8002L51.7089 50.1463L66.1771 59.035L69.4194 53.689L54.9493 44.8002Z" fill="#FEFEFE"/>
<path fill-rule="evenodd" clip-rule="evenodd" d="M6.97532 15.3276L3.733 20.6736L18.2032 29.5623L21.4455 24.2163L6.97532 15.3276Z" fill="#FEFEFE"/>
<path fill-rule="evenodd" clip-rule="evenodd" d="M18.2029 44.8002L3.73279 53.689L6.9751 59.035L21.4453 50.1463L18.2029 44.8002Z" fill="#FEFEFE"/>
<path fill-rule="evenodd" clip-rule="evenodd" d="M66.1771 15.3276L51.7089 24.2163L54.9493 29.5623L69.4194 20.6736L66.1771 15.3276Z" fill="#FEFEFE"/>
<path fill-rule="evenodd" clip-rule="evenodd" d="M48.9286 52.8506L43.5099 55.9265L51.838 70.7889L57.2566 67.711L48.9286 52.8506Z" fill="#FEFEFE"/>
<path fill-rule="evenodd" clip-rule="evenodd" d="M21.3148 3.57446L15.8981 6.65036L24.2242 21.5127L29.6429 18.4349L21.3148 3.57446Z" fill="#FEFEFE"/>
<path fill-rule="evenodd" clip-rule="evenodd" d="M24.2237 52.8506L15.8976 67.711L21.3142 70.7889L29.6423 55.9265L24.2237 52.8506Z" fill="#FEFEFE"/>
<path fill-rule="evenodd" clip-rule="evenodd" d="M51.8374 3.57446L43.5094 18.4349L48.928 21.5127L57.2561 6.65036L51.8374 3.57446Z" fill="#FEFEFE"/>
</g>
</svg>
