<svg width="300" height="98" viewBox="0 0 300 98" fill="none" xmlns="http://www.w3.org/2000/svg">
<path fill-rule="evenodd" clip-rule="evenodd" d="M267.228 57.72C266.922 57.4202 266.429 57.4202 266.123 57.7259C262.786 61.0178 259.836 62.3581 255.935 62.3581C248.979 62.3581 243.533 56.5325 243.533 49.0962C243.533 41.5364 248.844 35.8342 255.894 35.8342C260.7 35.8342 263.632 38.0445 265.865 40.2078C266.176 40.5135 266.675 40.5018 266.981 40.1902L268.497 38.6265C268.644 38.4737 268.726 38.2679 268.72 38.0504C268.714 37.8388 268.62 37.633 268.461 37.492C264.866 34.2 261.523 32.1543 255.935 32.1543C246.746 32.1543 239.543 39.5906 239.543 49.0903C239.543 58.7428 246.552 66.0263 255.847 66.0263C262.192 66.0263 265.953 63.1635 268.79 60.3594C268.943 60.2125 269.025 60.0067 269.025 59.7951C269.025 59.5835 268.937 59.3777 268.785 59.2308L267.228 57.72ZM205.596 35.6285V33.4887C205.596 33.0537 205.243 32.6951 204.814 32.701H180.743C180.309 32.701 179.956 33.0537 179.956 33.4887V35.6285C179.956 36.0635 180.309 36.4162 180.743 36.4162H190.508V69.2243C190.508 70.2824 189.938 71.2641 189.022 71.7932L153.035 92.5855C152.119 93.1146 150.985 93.1146 150.068 92.5855L114.076 71.7932C112.995 71.1701 111.615 71.5463 110.992 72.6221C110.369 73.7037 110.739 75.0852 111.82 75.7083L147.806 96.5006C148.964 97.1649 150.256 97.5 151.549 97.5C152.842 97.5 154.134 97.1649 155.286 96.5006L191.272 75.7083C193.581 74.3797 195.014 71.899 195.014 69.2301V36.4162H204.809C205.243 36.4162 205.596 36.0635 205.596 35.6285ZM214.961 61.7762H234.273C234.708 61.7762 235.06 62.1289 235.06 62.5698V64.7096C235.06 65.1446 234.708 65.4973 234.273 65.4973H211.853C211.418 65.4973 211.066 65.1446 211.066 64.7096V33.4887C211.066 33.0537 211.418 32.701 211.853 32.701H234.05C234.485 32.701 234.837 33.0537 234.837 33.4887V35.6285C234.837 36.0635 234.485 36.4162 234.05 36.4162H214.961V47.1092H232.046C232.481 47.1092 232.834 47.4619 232.834 47.897V50.0367C232.834 50.4718 232.481 50.8245 232.046 50.8245H214.961V61.7762ZM296.892 32.6951H299.213C299.653 32.6951 300.006 33.0537 300 33.4887V64.7096C300 65.1446 299.647 65.4973 299.213 65.4973H296.892C296.457 65.4973 296.105 65.1446 296.105 64.7096V50.8715H277.715V64.7096C277.715 65.1446 277.362 65.4973 276.928 65.4973H274.607C274.172 65.4973 273.82 65.1446 273.82 64.7096V33.4887C273.82 33.0537 274.172 32.701 274.607 32.701H276.928C277.362 32.701 277.715 33.0537 277.715 33.4887V47.1445H296.105V33.4828C296.105 33.0478 296.457 32.6951 296.892 32.6951Z" fill="#018BBD"/>
<path fill-rule="evenodd" clip-rule="evenodd" d="M111 24.8468C111.417 25.5689 112.175 25.974 112.957 25.974C113.339 25.974 113.726 25.8742 114.079 25.6688L150.07 4.90361C150.986 4.37524 152.12 4.37524 153.036 4.90361L189.027 25.6746C190.108 26.2911 191.489 25.9271 192.112 24.8468C192.734 23.7666 192.364 22.387 191.283 21.7646L155.292 0.999509C152.984 -0.33317 150.117 -0.33317 147.813 0.999509L111.829 21.7646C110.748 22.387 110.378 23.7666 111 24.8468ZM29.7599 33.5004H38.3668C38.5372 33.5004 38.7017 33.5826 38.8075 33.7177C38.9191 33.8527 38.9544 34.0347 38.9074 34.2049L30.5295 65.3849C30.459 65.6315 30.2358 65.8018 29.9831 65.8018H22.4043C22.1869 65.8018 21.9872 65.6785 21.8932 65.4789L14.1263 48.929L9.71414 65.3908C9.64364 65.6374 9.42039 65.8076 9.16776 65.8076H0.566664C0.390412 65.8076 0.22591 65.7254 0.120158 65.5845C0.00853213 65.4495 -0.0267183 65.2675 0.0202823 65.0973L8.39813 33.9114C8.46863 33.6648 8.69188 33.4946 8.94451 33.4946H17.0169C17.2342 33.4946 17.434 33.6237 17.528 33.8233L24.9364 49.7509L29.2135 33.9173C29.284 33.6707 29.5072 33.5004 29.7599 33.5004ZM74.2459 33.7177C74.3516 33.8586 74.3869 34.0406 74.3458 34.2049L69.399 52.6452C68.2533 56.8605 66.6142 59.9896 64.3934 62.2088C61.6204 64.9799 57.6194 66.383 52.4964 66.383C44.2419 66.383 39.3186 62.0914 39.3186 54.9055C39.3186 53.3673 39.5712 51.5943 40.053 49.7744L44.33 33.9173C44.3947 33.6707 44.6179 33.5004 44.8764 33.5004H53.6126C53.7889 33.5004 53.9534 33.5826 54.0592 33.7235C54.1649 33.8644 54.2002 34.0464 54.159 34.2108L49.7469 50.6902C49.4531 51.7705 49.318 52.6276 49.318 53.4848C49.318 56.0503 50.8455 57.4652 53.6126 57.4652C55.1225 57.4652 56.4327 56.9544 57.4021 55.9857C58.5066 54.9231 59.2468 53.4554 59.8872 51.0718L64.5227 33.9231C64.5873 33.6766 64.8105 33.5063 65.069 33.5063H73.8053C73.9756 33.5004 74.1401 33.5826 74.2459 33.7177ZM94.6441 42.201H103.574C103.833 42.201 104.056 42.0249 104.126 41.7724L106.13 34.1991C106.171 34.0288 106.136 33.8527 106.03 33.7118C105.924 33.5709 105.76 33.4887 105.583 33.4887H78.2586C78.0001 33.4887 77.7768 33.659 77.7122 33.9055L75.6618 41.4789C75.6148 41.6492 75.65 41.8312 75.7558 41.9721C75.8615 42.113 76.026 42.1951 76.2023 42.1951H84.8269L78.6463 65.0914C78.6052 65.2617 78.6404 65.4436 78.7462 65.5845C78.852 65.7254 79.0165 65.8076 79.1927 65.8076H87.8819C88.1404 65.8076 88.3637 65.6374 88.4283 65.3908L94.6441 42.201ZM135.875 43.6863C135.875 40.9388 134.988 38.6022 133.302 36.9173C131.005 34.6218 127.357 33.5004 122.163 33.5004H110.395C110.143 33.5004 109.919 33.6707 109.849 33.9173L101.471 65.0973C101.424 65.2675 101.459 65.4495 101.571 65.5845C101.677 65.7254 101.841 65.8076 102.017 65.8076H110.707C110.959 65.8076 111.182 65.6374 111.253 65.3908L113.679 56.3615H116.711L120.706 65.4671C120.794 65.6726 121 65.8018 121.223 65.8018H130.764C130.958 65.8018 131.134 65.702 131.24 65.5434C131.346 65.3791 131.357 65.1795 131.275 65.0033L126.734 55.0875C132.632 53.2734 135.875 49.2401 135.875 43.6863ZM121.758 42.113H117.51L115.765 48.4711H119.972C123.585 48.4711 125.829 47.0327 125.829 44.7137C125.829 44.0151 125.629 43.4867 125.177 42.9995C124.601 42.4241 123.414 42.113 121.758 42.113ZM164.751 33.7529C164.71 33.477 164.475 33.2774 164.193 33.2774H155.727C155.545 33.2774 155.369 33.3713 155.263 33.5239L133.555 64.927C133.437 65.0973 133.42 65.3204 133.519 65.5082C133.619 65.6902 133.807 65.8076 134.019 65.8076H143.425C143.613 65.8076 143.789 65.7137 143.895 65.5552L147.473 60.2362H158.712L159.405 65.3145C159.44 65.5963 159.681 65.8018 159.963 65.8018H169.058C169.222 65.8018 169.381 65.7313 169.487 65.6021C169.592 65.4789 169.639 65.3145 169.616 65.1501L164.751 33.7529ZM152.572 52.3869H157.848L157.002 45.5944L152.572 52.3869Z" fill="url(#paint0_linear)"/>
<defs>
<linearGradient id="paint0_linear" x1="0.00265706" y1="66.3832" x2="192.408" y2="66.3832" gradientUnits="userSpaceOnUse">
<stop offset="8.09824e-07" stop-color="#FDCF0D"/>
<stop offset="1" stop-color="#F37221"/>
</linearGradient>
</defs>
</svg>
